<svg xmlns="http://www.w3.org/2000/svg" width="378" height="363.897" viewBox="0 0 378 363.897">
  <g id="Group_228" data-name="Group 228" transform="translate(-853 -424.459)">
    <g id="Group_227" data-name="Group 227" transform="translate(853 424.459)">
      <path id="Path_36514" data-name="Path 36514" d="M291.134,156.079a53.613,53.613,0,0,0,30.455,15.185V142.307a23.3,23.3,0,1,1,15.353,0v28.957A53.852,53.852,0,0,0,367.4,79.816L329.265,41.685,291.134,79.816A53.926,53.926,0,0,0,291.134,156.079Z" transform="translate(-140.559 -21.28)" fill="rgba(0,219,208,0.1)"/>
      <path id="Path_36515" data-name="Path 36515" d="M508.864,338.763a23.233,23.233,0,0,1-21.9-15.627H458a53.852,53.852,0,0,0,91.448,30.455l38.13-38.132L549.45,277.33A53.852,53.852,0,0,0,458,307.785h28.957a23.262,23.262,0,1,1,21.9,30.979Z" transform="translate(-233.807 -133.512)" fill="rgba(0,219,208,0.1)"/>
      <path id="Path_36516" data-name="Path 36516" d="M527.987,140.169a32.481,32.481,0,1,0,64.962,0V107.688H560.467A32.48,32.48,0,0,0,527.987,140.169Z" transform="translate(-269.534 -54.974)" fill="rgba(0,219,208,0.1)"/>
      <path id="Path_36517" data-name="Path 36517" d="M704.474,243.8l14.852-14.852L704.474,214.1a21,21,0,1,0,0,29.7Z" transform="translate(-341.326 -106.154)" fill="rgba(0,219,208,0.1)"/>
      <path id="Path_36518" data-name="Path 36518" d="M512.313,44.556a21,21,0,0,0,0-29.7L497.461,0,482.609,14.852a21,21,0,0,0,29.7,29.7Z" transform="translate(-243.229)" fill="rgba(0,219,208,0.1)"/>
      <path id="Path_36519" data-name="Path 36519" d="M128.21,292.158a23.233,23.233,0,0,1,21.9,15.626h28.957A53.852,53.852,0,0,0,87.624,277.33L49.493,315.46l38.131,38.132a53.852,53.852,0,0,0,91.448-30.455H150.115a23.262,23.262,0,1,1-21.9-30.979Z" transform="translate(-25.266 -133.512)" fill="rgba(0,219,208,0.1)"/>
      <path id="Path_36520" data-name="Path 36520" d="M143.995,172.65a32.481,32.481,0,0,0,0-64.962H111.514v32.481A32.481,32.481,0,0,0,143.995,172.65Z" transform="translate(-56.927 -54.974)" fill="rgba(0,219,208,0.1)"/>
      <path id="Path_36521" data-name="Path 36521" d="M44.556,243.8a21,21,0,0,0-29.7-29.7L0,228.947,14.852,243.8A21,21,0,0,0,44.556,243.8Z" transform="translate(0 -106.154)" fill="rgba(0,219,208,0.1)"/>
      <path id="Path_36522" data-name="Path 36522" d="M245.79,44.556a21,21,0,0,0,0-29.7L230.938,0,216.087,14.852a21,21,0,0,0,29.7,29.7Z" transform="translate(-107.17)" fill="rgba(0,219,208,0.1)"/>
      <path id="Path_36523" data-name="Path 36523" d="M367.4,452.183A53.61,53.61,0,0,0,336.941,437v28.958a23.3,23.3,0,1,1-15.353,0V437a53.852,53.852,0,0,0-30.455,91.448l38.131,38.131L367.4,528.445A53.924,53.924,0,0,0,367.4,452.183Z" transform="translate(-140.559 -223.084)" fill="rgba(0,219,208,0.1)"/>
      <path id="Path_36524" data-name="Path 36524" d="M560.467,503a32.481,32.481,0,0,0,0,64.962h32.481V535.481A32.481,32.481,0,0,0,560.467,503Z" transform="translate(-269.534 -256.779)" fill="rgba(0,219,208,0.1)"/>
      <path id="Path_36525" data-name="Path 36525" d="M674.77,455.789a21,21,0,0,0,29.7,29.7l14.852-14.852-14.852-14.852A21,21,0,0,0,674.77,455.789Z" transform="translate(-341.326 -229.537)" fill="rgba(0,219,208,0.1)"/>
      <path id="Path_36526" data-name="Path 36526" d="M482.609,645.959a21,21,0,0,0,0,29.7l14.852,14.851,14.852-14.851a21,21,0,0,0-29.7-29.7Z" transform="translate(-243.229 -326.618)" fill="rgba(0,219,208,0.1)"/>
      <path id="Path_36527" data-name="Path 36527" d="M176.475,535.481a32.481,32.481,0,1,0-64.961,0v32.481h32.481A32.481,32.481,0,0,0,176.475,535.481Z" transform="translate(-56.927 -256.779)" fill="rgba(0,219,208,0.1)"/>
      <path id="Path_36528" data-name="Path 36528" d="M14.852,455.789,0,470.641l14.852,14.852a21,21,0,1,0,0-29.7Z" transform="translate(0 -229.537)" fill="rgba(0,219,208,0.1)"/>
      <path id="Path_36529" data-name="Path 36529" d="M216.087,645.959a21,21,0,0,0,0,29.7l14.852,14.851,14.852-14.851a21,21,0,1,0-29.7-29.7Z" transform="translate(-107.17 -326.618)" fill="rgba(0,219,208,0.1)"/>
    </g>
  </g>
</svg>
