<svg xmlns="http://www.w3.org/2000/svg" xmlns:xlink="http://www.w3.org/1999/xlink" width="1366" height="359" viewBox="0 0 1366 359">
  <defs>
    <clipPath id="clip-path">
      <rect id="Rectangle_49" data-name="Rectangle 49" width="1366" height="359" transform="translate(0 3761)" fill="#fff" stroke="#707070" stroke-width="1"/>
    </clipPath>
  </defs>
  <g id="Group_229" data-name="Group 229" transform="translate(0 -3773)">
    <ellipse id="Ellipse_13" data-name="Ellipse 13" cx="7" cy="10" rx="7" ry="10" transform="translate(1347 4092)" fill="#374b5c"/>
    <circle id="Ellipse_14" data-name="Ellipse 14" cx="9.5" cy="9.5" r="9.5" transform="translate(1161 3965)" fill="#374b5c"/>
    <g id="Mask_Group_7" data-name="Mask Group 7" transform="translate(0 12)" clip-path="url(#clip-path)">
      <g id="Group_128" data-name="Group 128" transform="translate(0 -124)">
        <g id="Group_109" data-name="Group 109" transform="translate(1575.443 4590.14) rotate(180)">
          <path id="Path_12414" data-name="Path 12414" d="M520.128,52.14c7.957,9.67,18.861,10.2,30.252,10.531,9.015.259,19.067-3.5,26.673,4.911C530.827,92.489,481.363,94.918,430.568,89.1c-37.486-4.295-74.949-9.274-112.823-8.924-74.18-7.515-148.664-10.325-223-15.389-7.637-.518-15.526-.213-22.478-4.447q-4.671-3.107-2.33-8.2Z" transform="translate(165.986 0)" fill="#374b5c"/>
          <path id="Path_12415" data-name="Path 12415" d="M114.281,52.14q.046,2.433.16,4.866a14.746,14.746,0,0,1-6.746,5,46.859,46.859,0,0,1-12.64,2.124c-11.224-.609-23.285,2.574-32.6-6.952.061-1.683.084-3.358.084-5.033Z" transform="translate(121.638 0)" fill="#374b5c"/>
          <path id="Path_12416" data-name="Path 12416" d="M429.118,75.262q5.117.171,10.226.358c9.663,6.213,21.457-1.241,31.135,4.843l-.046-.03c23.909,10.911,45.077-8.642,68.492-6.373,6.244.609,13.005-2.8,19.257,1.447C580.8,89.447,605.8,92.585,631.525,90.445c8.521-.716,16.759-1.69,25.12.35,14.521,5.414,29.057,8.817,44.887,5.338,8.5-1.866,17.14.122,22.836,8.178-9.815,23.6-31.364,29.658-53.019,31.44-13.28,1.1-24.374,4.828-36.572,9.153-25.63,9.084-52.981,9.168-80.256,9.9.03,1.119,4.157-.678,4.493.891,4.531,20.917,24.077,25.524,38.171,36.382,10.8,8.323,23.262,19.44,1.378,30.58-1.531.777-3.556,2.345-3.4,3.693,4.782,40.288-31.722,32.491-50.088,44.179,8.505-2.962,15.922-3.122,23.163,7.455,13.569,19.828,22.927,19.067,36.625-.145,2.513-3.518,3.838-7.744,6.183-11.323,10.219-15.617,24.016-20.818,38.978-8.193,14.65,12.351,27.412,9.168,38.963-1.873,15.419-14.749,29.521-23.3,48.344-4.85,8.49,8.33,17.9,2.284,25.539-3.8,14.787-11.78,27.808-9.594,46.555-4.828,27.861,7.1,46.014,19.287,57.5,44.423,2.688,5.886,8.269,6.541,15.313,5.962,28.013-2.315,44.209,8.97,55.326,38.689,7.614,20.338,3.335,37.242-18.069,47.179-3.807,1.767-8.307,4.622-4.965,9.838,3,4.675,8.536,7.812,13.089,3.624,7.1-6.533,17.643-11.46,13.774-24.968-3.457-12.092,5.155-17.384,14.909-20,11.528-3.1,15.4,5.406,17.483,14.14,4.523,19,20.582,37.3,2.825,57.969-3.419,3.975-1.34,15.419,4.188,15.236,20.315-.67,16.851,15.906,21.594,26.475,2.467,5.505,3.465,12.876,7.866,16.082,25.44,18.5,20.27,47.522,26.3,72.7a13.468,13.468,0,0,1-5.543,5.2c-40.684,3.662-81.436,6.168-122.3,6.792-6.754.107-14.384-2.239-19.714,2.878-14.582,14-24.184,4.462-33.877-6.168-8.7-7.965-10.645-19.561-15.236-29.62-9.373-20.559-5.087-26.163,19.005-26.993-5.368-5.749-11.262-6.853-18.473-3.525-24.846,11.46-24.892,11.361-34.341-14.224-.358,8.406,6.023,16.234,2.992,24.96-2.49,7.158-2.5,16.356-12.1,17.962-8.871,1.485-14.148-5.041-18.724-11.467a32.25,32.25,0,0,1-5.856-22c.617-7.492,2.993-15.587-5.338-21.594-7.881,3.457-3.952,10.219-3.777,15.4.365,10.911-4.066,20.818-14.292,21.328-12.122.6-9.472-11.544-9.975-19.66-.206-3.419.335-6.891-1.538-10.028.518-3.419-5.4-.784-1.98-1.241,1.005-.129,1.31.67.929,2.406-5.657,25.524-13.82,26.5-38.476,4.622-1.782-1.607-3.449-3.312-5.117-5.018-5.726-5.756-13.379-8.208-20.7-10.089-13.98-3.6-23.133-10.462-22.219-26.879-2.147,16.363-16.828,11.467-25.348,16.485,4.317,2.284,8.338,3.9,11.581,6.777,6.335,5.612,21.343,7.165,13.691,19.965-6.038,10.1-16.569,19.12-30.252,13.653-15.518-6.2-40.5-5.528-28.021-35.567,3.373-8.094-6.267-12.5-13.295-10.569-17.544,4.843-22.584-6.312-28.272-18.777-5.817-12.762-13-24.808-30.024-22.6,5.323,4.142,18.579.761,17.117,11.688-1.393,10.417-12.267,10.6-20.8,9.944a61.659,61.659,0,0,1-30.656-10.835c3.32,10.668,8.954,25.021-4.157,26.886-15.366,2.185-34.478,16.15-46.867-1.995,2.825,7.493,9,12.343,21.648,8.688,17.559-5.079,18.45,5.825,16.714,18.4,12.967-14.924,30.755-22.927,51.078-23.924,10.47-.518,21.046,2.429,23.239,15.709,2.223,13.417-5.65,17.087-17.018,20.749-8.894,2.871-26.5.3-25.059,11.779,1.652,13.1,19.485,14,30.5,12.678,20.14-2.4,37.105,5.185,54.87,11.262,8.117,2.779,15.838,7.066,24.815,6.5,56.552-3.556,111.574,6.861,166.413,18.473,23.46,4.965,48.374-4.835,70.989,7.454,3,12.343,7.47,20.041,23.582,19.318,17.574-.792,35,6.548,53.065,6.777,5.993.076,12.175,2.277,13.767,9.282,1.53,6.716-3.343,10.767-7.279,15.381-12.206,14.285-33.039,5.459-45.923,17.544,8.726-1.47,17.429-8.216,26.194-.091-9.373,13.965-23.719,15.13-38.62,15.145q-97.518.057-195.028.236c-.183-13.95,11.155-10.835,18.541-11.445a371.629,371.629,0,0,1,49.075-.274c12.145.617,21.427-5.406,31.318-10.333,4.637-2.307,4.523-6.944,3.358-11.307-1.34-5.048-5.444-7.516-9.777-5.437-15.305,7.34-19.836-2.627-23.848-13.942-2.414-6.815-5.17-7.515-13.8-8.041-19.706-1.188-40.828,3.762-59.377-6.762-8.719-4.949-14.688-2.383-20,4.592a53.543,53.543,0,0,1-21.876,17.361c-15.107,6.556-29.521,17.574-33.077-11.429-1.325-10.8-11.6-12.328-22.653-10.63-19.021,2.932-38.712,9.769-56.964-3.632-3.724-2.734-8.886-2.718-12.008.571-11.536,12.153-16.934,12.465-28.623-3.32-7.394-9.983-29.841-5.642-45.511-4.736-6.83.4-15.206.076-14.825-5.406,2.147-30.717-28.592-32.757-42.23-49.425-7.653-9.366-21.983-13.1-25.607-27.229-1.15-4.454-5.018-6.929-9.838-6.769-4.881.152-9.914,3.769-9.046,7.462,6.769,28.585-17.011,45.26-25.432,67.822-5.376,17.3-22.942,19.166-35.453,27.115-6.419,4.074-13.089-.838-16.774-7.63-4.257-7.828-4.036-16.257,3.868-20.323,15.739-8.094,22.493-22.287,29.125-37.029-27.541-8.5-27.305-8.444-21.267-36.823,2.726-12.83-3.023-22.333-15.389-25.744-13.036-3.594-26.346-7.363-40.006-.137-7.394,3.914-15.846,7.165-24.511,2.178-7.15-10.333-9.5-22.326-9.343-34.333.183-14.894,4.607-27.861,23.612-26.81,13.036.723,21.678-5.5,25.9-17.14,4.584-12.686,16.219-19.775,22.6-31.181,11.688-20.886,26-38.75,55.052-24.122-18.435-16.363-28.668-16.965-37.912-1.157-6.739,11.505-13.363,20.551-27.77,16.98-8.094-2.01-20.369-33.2-18.907-43.014,1.523-10.15,21.564-18.907,3.86-30.321-19.135-12.343-37.592-29.346-63.725-18.107-4.751,2.041-9.541,3.982-14.315,5.955-15.64,6.472-23.894.365-22.965-15.747.678-11.665-.4-24.29,8.239-35.392,9.312-.434,13.013,10.059,21.435,11.749,8.437,1.683,15.937,3.465,16.455-8.658.48-11.254,7.188-18.709,17.094-19.676,13.95-1.363,23.513-2.954,25.516-20.589,1.1-9.67,11-4.058,16.371.03,12.579,9.556,9.922,22.4,7.348,35.438-3.419,17.292-16.089,17.924-29.765,17.33,16.881,23.841,19.424,24.13,30.465.723,4.462-9.457,10.767-9.929,18.869-8.071,11.962,2.734,23.125,7.9,32.1,16,13.927,12.571,22.463,30.937,40.318,34.737-1.508-3.807-3.32-12.648-13.333-12.274-10.706.4-10.752-6.32-10.7-13.4a16.515,16.515,0,0,0-5.985-13.5c-7.2-6.4-24.138-16.325-16.28-21.084,12.5-7.554,13.158-32.955,35.811-25,7.85,2.764,7.409-4.447,8-9.4.822-6.792-.822-13.759,1.729-21.663-1.2,4.538.35-.487.266-.145-5.475,22.5-11.825,30.427-20.353,1.386-1.927-6.564.221-13.683,1.561-20.468,3.092-15.663-6.762-22.432-19.318-25.531-16.082-3.975-11.795,10.2-14.567,18.023-3.053,8.612-4.325,21.328-17.33,17.384-10.31-3.13-15.929-13.066-13.934-24.853,7.219-42.74,33.7-51.641,74.637-41.171C355.136,70.815,392.287,76.5,429.118,75.262Z" transform="translate(541.737 38.829)" fill="#374b5c"/>
          <path id="Path_12417" data-name="Path 12417" d="M851.351,101.358c-11.315,10.371-24.777,1.53-36.976,2.551-7.34.617-15.731,3.5-21.5,2.292-8.178-1.7-16.79-7.3-24.412-13.173-6.4-4.927-11.292-.533-20.376,15.465-11.962-19.775-24.046-26-41.4-22.653-7.4,1.432-12.632,3.838-15.533,11.353-3.046,7.919-5.894,16.607-11.307,22.79-11.734,13.409-6.213,22.234,6.6,31.6,5.916-9.533,10.622-18.221,7.021-30.427-2.962-10.013,2.642-14.528,12.929-11.741,10.592,2.871,21.716,3.807,29.651,13.615,5.665,7.013,11.01,11.46,4.142,21.716-6.229,9.3-2.924,20.8-.685,34.958,10.736-8.749,7.432-20.886,15.815-26.163,4.576-2.878,9.51-6.906,13.12-.982,3.83,6.274-3.685,5.513-6.739,7.112-7.249,3.792-9.449,9.465-7.188,17.163,1.2,4.1,2.81,8.193,3.244,12.389.7,6.937.921,14.726-6.67,18.008-7.812,3.381-8.97-6.13-13.759-8.894-1.4-.815-3.16-1.005-5.147-1.591-9.023,4.69,3.442,14-4.424,20.178-6.5,5.109-13.28.069-19.957,3.685,8.315,10.8,20.529,15.511,30.755,21.709,1.15,7.919-9.221,11.772-4.858,19.554,14.658-9.373,14.566-9.343,19.744,4.637,4.157,11.224,7.774,22.371,1.546,33.861-7.8-.122-7.127-5.178-6.046-8.947,2.132-7.424-.213-12.823-7.47-13.181-12.45-.609-15.693-8.779-21.861-17.795-11.353-16.577-30.123-24.359-51.276-28.052-3.168,10.569-.343,22.265-7.013,32.483-23.947-.6-35.316-16.767-44.933-36.648,12.937-1.949,28.569,12.115,37.128-5.079,8.97-18.016,5.086-27.64-11.9-39.854-8.917,11.239,5.452,22.661-.746,36.465-9.655-10.059-19.584-17.269-33.092-8.985-6.708,4.119-11.894,7.942-6.008,15.952,6.465,8.8,1,10.774-6.061,14.7-9.465,5.269-15.556-5.893-23.894-2.886-12.609,4.553-8.383-9.617-13.79-14.6-3.739,12.457-.86,23.666-4.439,34.638-3.015,9.259,3.061,11.741,13.447,8.338,13.8-4.523,25.006-16.287,42.412-11.117,21.168,6.3,37.981,19.249,55.745,30.915a7.636,7.636,0,0,1-.236,13.2c-21.252,12.838-17.924,26.392-2.551,41.186,1.028.982,1.256,3.236,1.165,4.858-.822,13.752,7,7.645,12.96,5.688,8.932-2.924,8.917-11.917,12.427-18.5,6.883-12.929,15.069-16.257,34.234-11.186,11,2.909,13.95,14.178,17.452,23.369,1.287,3.4-3.289,8.49-8.482,5.787-11.277-5.863-24.145-13.3-35-5.856-9.069,6.221-13.9,18.815-20,29.064-7.782,13.082-18.1,25.112-26.338,38.4-4.165,6.724-11.254,9.746-20.026,9.328-18.968-.906-25.371,5.985-22.059,24.26,1.675,9.244,5.444,18.1,4.454,27.777,14.407,14.917-11,31.3-4.713,35.917,15.7,11.536,12.906,24.382,11.109,38.285-1.5,11.642-5.985,21.7-20.879,20.193-20.628-2.086-13.973,10.675-11.467,21.168.655,7.866,1,15.617-7.416,20.133-7.173-.335-11.056-5.711-15.564-10.127-7.378-6.358-8.338-33.389-25.729-7.645-3.6,5.33-10.569,6.267-16.287,2.817-7.135-4.3-6.769-11.178-4.02-18.13.624-1.584,1.835-2.947,2.391-4.523,2.619-7.439,17.787-15.13,4.424-22.242-12.069-6.419-16.31,8.353-21.861,16.348-4.241,6.114-3.556,12.906-1.645,19.767,1.873,6.739,3.4,14.079-3.769,18.5-6.739,4.165-13.3.563-19.12-3.213-7.12-4.614-12.747-11.544-21.511-13.569-21.526-15.823-45.321-28.6-64.418-47.727-4.6-5.642-9.244-11.262-12.83-17.635-18.3-20.315-42.527-29.78-67.867-37.219-18.176-7.089-27.305-25.919-46.509-33.351-14.094-5.467-7.79-21.686.51-34.851-20.209.487-36.732-2.7-52.4,9.069-17.513,13.15-15.328-12.754-26.117-15.13-2.277,9.6,7.112,24.526-7.828,27.953-11.323,2.6-11.292-12.929-18.526-18.534,9.183,12.282,14.978,25.76,14.1,41.438-.3,5.543-1.911,10.713-7.751,11.917-7.005,1.447-8.863-4.82-9.5-9.541-2.3-17.011-13.577-27.3-26.148-36.7-12.838-9.609-13.257-30.069-33.534-34.7-6.617-1.508-10.866-17.384.723-26.041,2.163-.83,3.579-4.295,6.7-1.965-4.454-3.091-5.741,2.787-8.993,3.175-8.239,3.632-13.729,9.746-17.65,17.848-3.366,6.975-8.528,10.972-16.264,4.812-2.513-21.8.883-40.829,23.6-50.872,47.445-5.018,84.771,21.16,121.427,41.834,11.216-5.033-6.008-27.595,16.9-20.361,2.269.716,5.17,2.231,2.855-1.226-8.589-12.83,3.784-32.681-16.112-42.359-10.637-5.17-5.132-18.754-6.457-28.653a66.842,66.842,0,0,1-.51-10.759c.023-2.406.244-4.789.48-7.173-1.774-22.3,1.241-43.387,15.526-61.646,3.914-4.668,8.285-8.9,12.541-13.249,7.295-6.32,13.249-14.993,24.595-14.4a21.2,21.2,0,0,1,8.726,5.208c14.7,13.531,18.671,5.056,19.5-9.571a118.716,118.716,0,0,0-.67-18.016c-10.782-21.732-4.888-47.986-19.166-68.949-4.485-6.594.944-10.47,7.043-13.379C291.744,68.151,322.1,79.2,331.1,99.248c3.64,8.094,6.122,17.551,16.988,15.214C358.9,112.14,361.9,102.4,361.47,92.4c-.472-11.01-3.617-22.135,3.327-32.331,39.321-.495,78.086,5.17,117.064,9.267,28.813,3.015,58.159,1.013,87.261,1.142,2.505.015,6.785-.1,7.257-1.317C586.1,44.135,607.606,58.7,623.535,54.849a27.133,27.133,0,0,0,4.972.16c4.249,4.706,11.262.571,15.632,4.888,65.728,9.769,129.46,30.184,195.82,36.542C844.377,96.857,848.344,97.878,851.351,101.358Z" transform="translate(119.504 12.733)" fill="#374b5c"/>
          <path id="Path_12418" data-name="Path 12418" d="M685.148,563.519c-.274-4.378-1.051-8.757-4.447-11.764-8.688-7.691-12.549-15.655-5.071-26.772,5.277-7.85,3.6-11.787-6.739-16.569-16.478-7.63-19.249-26.567-24.892-42.344-1.6-4.477,1.591-10.584-4.34-13.447-8.132-1.584-4.454,11.711-13.1,9.571-6.823-6.3-.929-16.729-7.2-23.521-7.142-7.736-6.3-12.823,4.82-16.165,8.026-2.421,9.449-8.955,5.383-16.615-6.868-12.945-10.3-27.145-13.759-41.232-23.742,5.361-23.742,5.361-9.807,29.369-6.914,5.619-21.617,3.723-20.528,18.518.244,3.3-4.226,4.432-8.117,3.556-13.493-3.038-24.359-8.5-24.48-24.671,5-5.97,12.945-3.366,18.922-7.219,13.059-8.4,18.693-25.333,10.9-38.986a235.011,235.011,0,0,0-18.556-27.846c-7.272-9.328-19.455-11.1-30.755-3.571-5.635,3.754-8.49,3.563-13.066-.442-8.041-7.051-11.886-16.653-17.163-25.5-6.472-10.873-10.127-26.018-29.864-18.952-4.447,1.584-17.407-2.916-20.628-7.2-13.3-17.757-22.957-2.558-33.694,1.8-2.992,1.218-5.041,4.63-7.751,6.731-9.952,7.713-18.473,9.457-28.95-1.272-16.264-16.638-17.65-16.363-33.595.838-7.538,8.132-16.63,11.224-26.11,15.313-10.021,4.31-15.678,1.005-22.379-5.977-15.244-15.884-25.843-13.645-34.318,7.866-4.424,11.224-14.681,16.394-21.7,24.777-5.505,6.579-30.115-2.863-31.014-14.026-1.622-20.148-10.66-12.054-19.919-8.475-3.13,1.2-6.282,3.442-9.731,1.256-3.038-1.919-5.231-4.858-4.637-8.521.365-2.239,2.916-6.19,3.366-6.046,17.125,5.749,28.623-7.34,42.565-12.145,4.668-1.614,10.173-.8,15.343-1.1,4.287-9.32-15.069-14.178-3.792-24.686,6.3-5.878,6.419-20.11,24.854-8.84-23.688-30.61-25.2-31.379-54.6-30.4-2.916-9.084,6.107-15.518,6.061-23.376-4.378-8.482-16.592,4.934-18.785-7.454-.838-4.713-5.521-9.769-.3-14.338,5.916-5.193,8.97-.206,12.008,4.1,4.089,5.787,8.993,5.627,15.762,4.294,15.6-3.069,30.587-11.338,47.7-4.317,7.858,3.221,13.394-6.3,20.034-9.815,7.531-3.982,14.422-12.016,23.285-7.584,14.247,7.119,24.884-.411,36.1-6.312,8.97-4.721,17.506-10.279,26.232-15.465,4.546-3.594,72.078-30.838,78-31.47,28.668,9.655,57.451,3.274,86.218.7,5.307-.472,10.523-1.416,13.934-5.6,19.775-24.229,48.108-23.7,75.193-25.394,20.506-1.279,41.164-.091,61.761,0,3.137,2.627,7.919,1.721,10.759,5l-.069-.03c24.191,14.262,50.286,19.881,78.315,18.709,12.5-.518,25.775-2.216,36.778,6.769,7.79,11.741,6.792,24.32,3.526,37.082-8.863,16.264-24.184,7.8-36.892,9.206,3.959,43.5-2.756,46.874-59.888,27.473,20.62,29.262-5.429,41.666-18.358,57.74-8.361,10.394-20.361,7.355-29.4-2.109-7.135-7.485-13.47-15.686-24.5-17.94-7.348-1.5-14.193-11.315-21.153-6.053-8.4,6.35-5.6,17.9-3.434,26.727,3.83,15.564,7.355,30.115,27.587,36.2,30.625,9.206,43.8,45.885,27.42,73.593-10.911,18.45-4.576,20.673,12.8,22.958,25.775,3.388,53.012,50.156,45.717,73.677-2.543,8.216,7.356,10.477,11.688,15.16,27.991,30.222,60.839,55.532,88.069,86.629a30.4,30.4,0,0,1,2.269,7.622c2.894,23.3-9.563,33.976-30.884,34.57A541.292,541.292,0,0,0,733.6,577.4C715.75,580.446,700.491,571.057,685.148,563.519Z" transform="translate(891.009 26.786)" fill="#374b5c"/>
          <path id="Path_12419" data-name="Path 12419" d="M454.434,495.146c-10.523-10.7-27.633-14.582-32.308-31.486-.518-1.888-3.807-4.3-5.81-4.294-16.668.03-25.189-6.6-26.727-24.534-.64-7.439-9.716-15.084-18.061-17.026-13.028-3.031-14.033-21.282-29.11-21.2-1.607.008-1.051-6.373,2.353-8.239,4.439-2.429,9.792,4.866,15.229-2.292-6.647-7.356-17.825-13.341-12.137-27.153,1.965-4.774-4.31-8.848-8.536-11.7-4.957-3.343-11.429-5.4-13.028-11.772-2.878-11.513-10.31-13.013-19.562-9.267-12.335,4.987-17.247-3.32-22.242-11.475-2.863-4.675-2.589-7.508,3-12.107,14.224-11.7,19.044-28.128,10.813-45.169-7.706-15.952-15.731-33.732-39.245-29.719-3.723.64-7.47.107-8.772-3.388-8.026-21.442-17.475-42.656-12.686-66.6,1.888-9.411,8.6-10.561,15.549-8.079,10.531,3.754,17.1,17.566,31.927,12,1.218-.457,6,11.224,10.447,16.051,4.812,5.208,9.5,14.757,18.625,8.833,5.619-3.647,17.627-5.414,9.678-18.556-3.4-5.627,4.059-8.726,9.419-7.47,16.295,3.822,13.211-4.721,9.13-13.774-3.838-8.521-8.376-16.767-8.239-26.5,5.414-5,10.485-1.919,13.424,1.911,8.14,10.607,23.018,3.792,32.437,14.536,5.513,6.282,16.173-3.625,17.719-15.176,1.462-10.927-7.934-18.876-6.922-32.08a90.282,90.282,0,0,0,43.752,7.158c10.333,6.434,19.036-2.048,28.417-3.16,2.589-.1,7.957,3.647,5.414-4.02,2.855-13.044,14.163-19.371,22.112-28.341,14.78,8.155,3.48,19.546,3.206,27.343,27.7,19.523,53.773,36.747,59.712,73.159,4.135,25.348,18.975,47.529,29.871,70.746,2.155,4.6,6.054,8.383,6.313,13.866-7.729,19.249-7.18,41.636-22.029,58.189-7.972-1.538-11.612,3.533-14.6,9.579a5.63,5.63,0,0,1-6.221.9c-4.013-1.957-9.731-7.34-10.059,2.261-.335,10.028,2.117,20.133-.761,30.168-3.533,10.363-1.546,23.194-13.272,29.871-14.711.335-8.437-17.292-19.47-21.968-13.211,18.838-25.409,37.661-21.77,62.743,1.34,9.244.624,18.762.107,28.151-.282,5.147-1.469,14.323-3.708,14.1C447.307,457.181,467.028,486.976,454.434,495.146Z" transform="translate(1271.62 59.021)" fill="#374b5c"/>
          <path id="Path_12420" data-name="Path 12420" d="M149.447,194.079c1.165-10.782,6.2-19.729,14.064-26.818,9.883-8.9,13.3-17.962,9.122-31.935-4.8-16.021,4.112-24.694,20.079-24.031,7.957.327,13.577,2.711,13.462,11.726-.137,11,4.4,17.7,15.686,20.14,6.982,1.508,11.62,7.432,15.777,12.815,5.414,7,10.485,12.571,20.681,12.686,11.764.129,17.209,6.99,13.127,19.051-1.386,4.089-3.442,8.071-1.751,12.411,1.157,2.97,4.5,8.239,6.579,4.8,8.68-14.277,17.239-4.31,25.394-.647,4.469,2,7.325,1.249,11.673-.244,21.366-7.333,21.633-6.891,23.567,14.94.114,1.34,1.965,2.528,3.031,3.815,5.817-.32,5.086-5.84,7.378-9.038,7.751-10.79,16.4-13.021,25.592-4.119,8.3,8.041,13.318,10.729,26.079,6.289,9.023-3.137,20.947-.822,32.072-5.216,12.092-4.774,25.7,10.18,27.077,27.092.129,1.569-1.424,3.229-1.477,4.866-.046,1.416.921,2.863,2,5.818,6.343-7.264,12.092-13.668,22.874-13.683,10.851-.008,13.546-11.84,19.166-19.006,9.343-11.9,14.247-13.752,24.138-2.787,7.2,7.987,11.559,10.706,20.658,3.777,4.919-3.739,11.361-1.827,17.247.678,16.934,7.211,17.01,7.036,29.9-3.114,4.31,11.018,13.28,19.9,13.683,32.141,4.576,1.112,6.64-1.873,9.381-3.685,15.328-10.12,16.683-9.488,20.346,8.589.678,3.35,1.66,6.632,2.429,9.967.761,3.267,1.432,6.556,2.817,13.013-17.94-6.145-29.209,10.165-46.189,8.125s-34.4-.442-51.626-.419c-6.023.015-12.214-.411-16.264,5.49-5.3,5.718-10.485,5.764-15.564-.3-15.99-11.186-33.13.571-49.715-2.383-9.967-1.767-20.62-1.325-30.747-.107-18.122,2.178-29.8-3.358-33.1-22.523-.716-4.157-3.678-7.683-6.944-10.6,1.188,3.236.457-1.553-2.292.525,9.152,8.871,7.942,16.356-3.556,21.45-6.145,2.726-11.536-.929-16.676-4.2a9.434,9.434,0,0,0-6.419-1.5c10.553,9.67,9.647,15.716-5.627,16.554-14.422.784-28.767-.822-43.12-2.254-8.65-14.315-18.32-25.645-37.768-25.8-14.49-.122-23.879-8.041-19.988-25.4,3.008-13.424,2.482-24.473-17.292-18.8-10.736,3.076-15.214-4.942-16.911-14.376-1.211-6.762-.784-13.653-1.355-20.46-.609-7.15-2.475-13.736-10.241-16.158-7.2-2.254-13.721-.266-18.594,5.353-7.264,8.383-14.787,16.554-20.772,26.018C164.425,202.279,157.389,206.825,149.447,194.079Z" transform="translate(697.073 391.041)" fill="#374b5c"/>
          <path id="Path_12421" data-name="Path 12421" d="M61.409,364.5c.046-13.683.83-27.191-3.206-40.821-3.13-10.584-2.086-21.876,1.462-32.955,3.312-10.348,5.81-19.973,19.645-19.333,4.378.206,8.163-2.307,11.277-5.482,4.355-4.439,8.262-9.442,5.993-15.907-1.9-5.406-7.348-6.3-12.556-7.241-18.016-3.251-21.3-9.084-13.447-24.777,2.635-5.269,6.7-9.9,10.516-14.49,4.218-5.086,5.939-9.785,2.132-16.2-10.972-18.442-7.759-37.509-1.5-56.545,16.318,3.647,24.952-7.576,24.077-19.5-.563-7.782-2.292-20.841-13.158-26.194-.731-10.249,1.774-19.272,9.914-26.163,16.044,7.051,24.648,26.864,46.22,25.539,4.911-.3,5.048,9.678,2.977,15.8-7.135,21.115-5.642,43.631-10.462,65.1,3.091,14.566,15.031,26.163,12.2,43.166-1.31,7.9,9.876,10.356,15.808,14.833a34.015,34.015,0,0,1,8.772,6.3c6.251,9.51,19.775,16.561,12.571,30.945-5.193,10.356-10.439,24.557-25.7,10.1-6.046-5.718-9.252-4.333-14.163,1.881-21.313,26.955-22.211,48.207-2.109,73.662,18.762,23.757,21.572,66.581,6.731,93.459-7.652,13.873-17.643,16.729-32.2,11.056-32.019-12.472-38.346-7.325-36.054,27.831a33.275,33.275,0,0,1-.678,10.241,15.1,15.1,0,0,1-3.921,5.954c-11.178-2.338-23.277-.251-33.625-6.861-2.513-4.6-2.475-9.32-.708-14.132,8.65-8.818,17.193-16.074,20.171-30.511,3.64-17.658,26.216-25.1,31.8-43.89,1.013-3.388,14.574,1.287,7.858-9.785-3.647-6.008-3.853-17.384-14.924-13.645C78.8,380.774,70.447,372.482,61.409,364.5Z" transform="translate(19.13 44.694)" fill="#374b5c"/>
          <path id="Path_12422" data-name="Path 12422" d="M95.467,244.274c-4.927-7.2-11.711-12.282-18.678-17.376-10.561-7.721-16.637-17.056-19.036-31.425-2.391-14.391-10.112-28.135-10.417-43.5,1.02-.647,2.033-1.294,3.046-1.957,13.28,3.4,23.46,9.594,24.221,25.234.655,13.47,13.569,18.145,20.65,27.625-24.823-16.044-23.94-38.026-15.61-61.867l.107-.031c7.919-4.234,7.089-13.211,10.668-19.8,3.107-5.718,6.96-9.853,14.064-8.757,8.17,1.249,8.071,7.569,8.064,13.706,0,4.287-.5,8.581-.03,12.853.381,3.518,1.553,6.922,5.848,6.807,3.83-.107,5.787-2.163,6.061-6.526,1.005-16.295,13.645-20.688,26.346-22.79,8.071-1.333,18.13,3.693,11.62,12.975-10.477,14.924.5,19.965,8.795,26.506,10.744,8.475,23.559,15.069,20.346,32.377,13.028-1.431,14.33-10.706,17.353-18.336,6.838-17.323,21.176-17.14,36.374-16.577,15.632.579,29.727,2.132,30.96,22.249.267,10.051-4.142,18.876-11.833,23.894-20.711,13.531-11.406,21.945,3.815,30.252a13.447,13.447,0,0,1-.571,11.094c-10.028,12.32-24.153,11.323-37.105,9.2-13.736-2.261-24.579.533-34.181,10.059-13.219-.015-24.975,11.406-39.009,5.01-3.868-2.338-4.873-6.137-5.254-10.264-8.962-14.01-20.848-27.123-14.087-45.945C124.143,247.807,123.465,248.371,95.467,244.274Z" transform="translate(21.667 397.565)" fill="#374b5c"/>
          <path id="Path_12423" data-name="Path 12423" d="M375.579,302.939c-15.092-3.373-30.092-5.124-45.2.328-5.764,2.071-10.988,4.569-15.655,8.6-26.628,23-61.586,10.561-68.591-24.313-23.955-2.612-47.887-4.142-71.69,1.462a12.125,12.125,0,0,1-4.15-5.764c.038-18.686,11.993-28.28,28.006-30.595,22.447-3.251,22.539-20.422,27.458-35.788-18.389,7.812-35.1,17.262-53.644,22.539a29.078,29.078,0,0,1-7.485.662,25.536,25.536,0,0,1-7.333-1.98,48.626,48.626,0,0,1-14.079-12.625c-7.782-27.45-21.13-48.793-50.735-58.92-12.5-4.279-24.541-15.823-24.161-32.986C71.9,127.8,79.408,125.439,81.251,118c1.591-6.449,2.254-14.658,11.97-13.721,8.612.83,13.219,7.2,16.714,14.422,1.5,3.107-.434-.769.883,2.421,13.013,31.531,13.013,31.531,35.171,4.013,13.622,36.778,48.839,30.008,75.147,33.77,40.585,5.81,41.5,1.66,53.3,41.582,2.665,10.721-4.8,17.871-9.153,26.125-10.439,12.084-14,25.6-8.49,41,1.371,9.868,4.4,17.186,16.44,10.9,6.053-3.16,12.153-6.229,18.267-9.267,19.577-9.724,38.62-19.615,55.418,5.391,3.274,4.873,11.894,6.221,17.079,10.8,2.718,2.14,5.368,4.378,8.087,6.526a23.621,23.621,0,0,1,4.8,4.9A5.274,5.274,0,0,1,375.579,302.939Z" transform="translate(160.417 344.382)" fill="#374b5c"/>
          <path id="Path_12424" data-name="Path 12424" d="M85.718,202.018c-.944-9.571,1.462-18.518,4.774-27.381,1.774-4.736,5.421-11.445,3.594-14.376-6.883-11.056-7.249-19.394,4.447-27.077,2.627-1.728,2.718-6.335.921-9.5-1.812-3.19-5.421-5.018-8.665-3.366-18.526,9.442-23.78-4.965-30.092-16.752-1.965-3.67-2.467-8.1-6.442-10.538,4.394-6.731,4.9-14.285,5.734-22.074,1.934-17.993,4.569-19.371,23.338-15.374,2.52.541,5.033,1.1,7.546,1.66,22.79,12.214,22.851,17.292.624,42.367,17.818-10.142,38.476,5.559,56.568-7.919,4.447-3.312,10.653,3.6,14.361,8.361,6.282,8.064,13.059,15.488,23.117,20.658,2.536-8.018,4.127-16.737,13.965-18.9,29.491-2.558,35.011,1.843,38.331,30.488-8.345,10.127-27.617,9.472-27.107,28.851.259,9.967,5.262,8.673,11.467,7.584,5.856-1.972,10.31-6.434,15.853-8.68,7.226-2.932,15.891-11.795,21.5.952,4.492,10.2-.609,18.556-10.295,23.293-8.482,4.142-18.381,4.576-26.628,9.5-20.11,5.536-41.049,3.548-55.212-10.31-17.985-17.6-33.108-7.028-40.714,4.485C115.049,205.589,101.312,203.3,85.718,202.018Z" transform="translate(67.432 10.565)" fill="#374b5c"/>
          <path id="Path_12425" data-name="Path 12425" d="M336.042,94.179a29.91,29.91,0,0,0,4.706.723c10.927,15.176,12,32,11.62,50.316a254.27,254.27,0,0,0,8.726,71.073c4.219,15.67,2.384,28.128-9.061,39.3-6.328,3.594-1.729,11.239-5.8,15.663l.145-.206c-6.663,12.351-21.792,3.069-29.917,11.734-12.465-3.213-20.719-15.107-34.128-16.417a25.23,25.23,0,0,1-10.3-4.965,20.4,20.4,0,0,1-3.632-7.241c-.084-23.848,2.36-47.392,8.863-70.388,4.568-16.173,14.429-26.437,32.117-27.366,8.589-8.642,2.048-22.249,10.188-31.036,9.7,4.211,17.277,4.82,16-9.48C334.915,108.631,328.58,101.253,336.042,94.179Z" transform="translate(1483.837 278.064)" fill="#374b5c"/>
          <path id="Path_12426" data-name="Path 12426" d="M108.666,161.8V156.64c15.518-24.96,35.742-34.372,60.367-25.836,20.346,7.051,42.047,7.173,62.309,14.536,17.5,6.366,21.267-8.993,27.427-19.8,6.777.107,10.188,3.647,10.523,10.325,10.988,13.889,9.221,30.519,10.021,46.593-.266,3.4-.069,7.439-3.571,9.069-15.358,7.18-31.752,11.879-44.438,24.625-5.33,5.361-14.772,3.137-22.211.541-27.473-9.6-53.453-22.341-76.86-39.618C124.618,171.458,117.232,165.808,108.666,161.8Z" transform="translate(427.33 485.519)" fill="#374b5c"/>
          <path id="Path_12427" data-name="Path 12427" d="M309.619,150.291c4.683-1.538,9.823-6.724,14.231-2.429,17.4,16.919,38.2,9.221,56.7,6.183,16.219-2.657,32.125-3.366,48.268-3.739,27.838-.647,29.9-2.665,30.953-31.219,4.264-1.454,6.564,1.051,8.559,4.2,2.482,5.193,3.472,11.049,6.982,15.792,23.171,17.909,22.036,28.592-4.63,40.12-8.65,3.731-17.742,6.373-25.805,11.5-8.612,5.475-16.264,4.828-21.831-4.592-7.82-13.257-17.681-20.072-34.1-14.361-16.173,5.627-17.917,18.221-18.693,32.163-.076,1.34-2.292,2.414-3.724,3.388-16.973-.19-32.194,7.6-48.313,11.239-15.381,3.472-29.734,3.685-44.5-.807-4.371,4.416-11.7-.061-15.769,5.261l.114-.076c-8.779,2.2-20.27,7.987-22.371-6.175-1.523-10.264,8.9-13.112,17.993-14.262,13.584-1.706,27.511-1.386,14.208-22.478-6.86-10.873,5.947-14.742,14.445-14.071,13.4,1.051,20.688-6.092,27.282-15.632Z" transform="translate(1266.538 440.014)" fill="#374b5c"/>
          <path id="Path_12428" data-name="Path 12428" d="M406.191,122.817c-1.866,23.026-1.85,22.881-24.6,21.016-4.774-.388-10.424-1.942-14.247,4.355,1.8,7.85,14.148,6.236,14.97,15.252.152,1.652.845,3.259,1.881,7.066-11.6,4.02-19.782,17.2-35.864,10.279-5-2.147-11,1.333-11.932,6.99-1.264,7.721,5.612,6.823,10.485,7.34,2.558.267,5.162.221,7.751.312-22.181,9.411-44.43,4.69-66.664.3-11.726.464-22.493,7.333-37.09,5.665,8.81-12.373,14.368-25.562,32.171-18.747,4.637,1.774,8.528.175,11.658-2.916,5.239-5.178,17.307-6.16,15.419-15.023-2.109-9.906-13.036-5.429-19.965-5.368-11.368.107-21.96-2.246-32.628-5.551-4.629-1.439-8.787-3.792-14.62-2.178-21.221,5.878-25.082,1.9-19.927-18.96a29.025,29.025,0,0,1,2.056-4.7h0c10.1-2.01,15.16,5.307,21.32,12.343,6.686-3.175,5.109-12.32,11.566-15.358,7.325-3.449,13.1,1.66,19.6,2.216,14.955,1.264,30.915,1.211,44.773-1.074C350.476,121.446,378.307,124.53,406.191,122.817Z" transform="translate(1169.966 467.488)" fill="#374b5c"/>
          <path id="Path_12429" data-name="Path 12429" d="M413.124,175.272c10.813-7.942,21.587,2.368,32.323.061,5.795-1.249,16.2,3.815,15.99-6.175-.175-8.041-10.736,1.005-16.013-5.5,10.059-4.843,18.671-11.612,29.856-2.033,4.736,4.058,10.318,2.147,12.739-3.358,2.5-5.688-1.393-7.2-6.556-6.982-6.008.244-5.109-3.556-2.962-6.594,3.434-4.873,7.538-9.267,14.224-17.315-.518,20.49,14.285,29.506,16.706,44.476.609,3.784,7.295,3.746,11.544,3.472,23.894-1.523,48.093,3.845,71.751-3.647,8.033-2.543,15.747-2.254,17.1,8.985-50.012.091-100.038.678-150.05.107-34.608-.4-68.446,4.294-101.866,12.465a93.8,93.8,0,0,1-22.881,2.855c-8.68-.023-22.181-13.607-23.772,8.064-.038.579-4.995,1.789-7.089,1.058-20.2-7.036-41.156-1.828-61.616-4.135-25.98-14.856-52.547-27.122-83.842-24.724-11.46.883-19.044-6.526-22.325-17.475-3.175-10.584-3.122-20.376,8.779-25.98,17.8,16.272,40.661,11.947,61.707,14.81,8.048,1.1,14.8-2.558,20.285-8.688,5.475-6.107,10.348-15.13,20.612-7.021,8.5,6.716,15.389,15.358,10.348,26.315-11.787,25.638,6.434,16.721,17.726,16.12,38.407-3.51,77.073,2.635,115.343-3.891C399.129,169.173,406.652,169.82,413.124,175.272Z" transform="translate(598.903 497.649)" fill="#374b5c"/>
          <path id="Path_12430" data-name="Path 12430" d="M256.711,207.114c.655-2.459,2.635-6.221,1.721-7.157-3.975-4.074-11.894-5.787-.015-11.437,6.823-3.244-4.8-9.762-2.619-15.709,6.48-2.056,13.074-3.754,19.371-6.213,23.7-9.274,30.321-7.013,43.242,15.488,1.241,2.163,2.125,4.546,4.523,9.754,15.45-18.633,44.209-12.244,57.542-36.016-7.538-4.85-20.14-3.183-20.186-15.922,15.6-16.089,33.96-24.359,56.766-20.1,2.292,1.173,4.538,2.467,6.723,3.83a17.381,17.381,0,0,1,2.825,10.637c-3.838,15.381-10.15,30.709-1.417,46.516a9.632,9.632,0,0,1-3.282,5.97c-24.846-4.927-46.479,9.259-70.114,12.1-11.071,1.325-21.648,4.782-32.62.525-10.2-3.952-20-2.231-30.077,1.013C278.6,203.786,268.293,208.705,256.711,207.114Z" transform="translate(1376.356 440.192)" fill="#374b5c"/>
          <path id="Path_12431" data-name="Path 12431" d="M181.066,114.572c-16.79,2.025,3.518,18.267-10.957,21.93-10.8-6.777-24.427-12.815-31.349-28.029-3.876-8.505-10.219-12.625-15.556.19-3.244,7.8-9.32,4.645-15.259,3.221-10.584-2.52-20.582-11.825-31.988,2.193-5.064,6.221-11.026-6.046-18.907-8.475,37.6-23.947,32.11-28.25,15.335-42.587q7.607-2.753,15.221-5.505c11.246-3.426,23.056-5.756,32.925,2.01,10.79,8.5,8.848-5.795,14.079-6.647l10.241-.008c7.515,5.4,16.972-.518,24.5,4.089,3.289,3.51,1.013,6.472-.792,9.244-15.206,23.437-15.214,23.4,7.439,38.095C179.635,106.661,182.985,109.372,181.066,114.572Z" transform="translate(85.92 4.795)" fill="#374b5c"/>
          <path id="Path_12432" data-name="Path 12432" d="M217.086,140.762c2.383-.784,6.335-.967,6.891-2.444,5.475-14.437,13.059-14.94,24.8-6.054,7.98,6.038,17.666,3.586,26.689.084,8.086-3.137,13.165-.6,13.866,8.6-3.381.312-8.528-.678-9.868,1.142-13.12,17.757-33.915,18.412-52.334,23.361-17.437,4.69-34.707,8.932-49.684,19.539-1.949,1.378-5.315,3.982-5.962,3.465-15.632-12.579-29.118.609-43.4,3.32-9.975,1.9-20.589-1.333-26.551-6.83-9.823-9.061-18.747-12.335-31.2-8.574-3.3,1-6.388-1.759-8.551-4.622,12.823-.845,25.044-3.822,36.275-10.279,7.9-2.086,16.341-10.79,23.612-4.8,18.861,15.564,32.8,5.277,50.636-3.008C185.661,147.463,202.748,147.6,217.086,140.762Z" transform="translate(117.219 490.995)" fill="#374b5c"/>
          <path id="Path_12433" data-name="Path 12433" d="M67.559,100.841c3.137-.86,7.363-3.83,9.328-.64,6.472,10.493,12.488,11.125,22.775,3.807,7.843-5.581,17.848-4.843,16.082,9.206-1.6,12.708,16.554,15.762,12.7,29.43-7.713,4.576-13.6-6.358-21.328-3.023-3.282,3.487-2.9,7.584-1.173,11.741,2.437,5.863.495,8.719-5.223,11.833-22.386,12.175-22.219,12.48-23.163,40.326-5.322,4.927-14.726.107-20.239,6-14.49-17.795-13.736-36.953-5.071-56.826C62.64,136.979,66.2,119.23,67.559,100.841Z" transform="translate(12.98 308.354)" fill="#374b5c"/>
          <path id="Path_12434" data-name="Path 12434" d="M181.394,155.413c-12.731,6.35-9.526,15.549-5.894,26.148,3.358,9.815,10.074,10.356,18.077,10.2.86-.023,1.729.084,2.574.008,31.371-2.97,58.852,4.005,78.581,30.762-22.813-3.267-45.877-4.371-68.537-9.221a85.278,85.278,0,0,1-34.745-15.731c-9.175-6.967-18.884-15.678-31.531-5.795-8.361-14.452-10.873-30.161-10.021-46.593,7.394-5.658,4.249-13.828,5.026-21.061C151.591,132.813,179,125.534,181.394,155.413Z" transform="translate(566.725 476.192)" fill="#374b5c"/>
          <path id="Path_12435" data-name="Path 12435" d="M340.986,69.129c-1.645.335-3.274.761-4.942.982-13.729,1.8-10.538,27.557-32.064,20.825-13.622-4.256-26.841,7.881-41,9.663-9.122-5.2-19.082-7.729-28.752-3.327-17.117,7.8-28.585.67-38.575-12.373,14.239-6.427,29.8-7.409,44.849-9.419,11.277-1.508,22.128-.921,29.14-12.115,2.421-3.868,7.485-5.147,11.551-4.127C300.873,64.18,321.79,61.5,340.986,69.129Z" transform="translate(1002.725 44.726)" fill="#374b5c"/>
          <path id="Path_12436" data-name="Path 12436" d="M361.571,87.826c-27.229-2.292-54.6,3.046-81.969-3.647-14.612-3.579-25.15-9.647-32.316-22.356,30.267-6.609,60.451-8.345,90.833-.122,7.607,2.064,13.675,11.917,23.239,5.17,5.528,5.292,5.475,11.452,2.84,18.039C363.33,85.884,362.454,86.851,361.571,87.826Z" transform="translate(1344.222 26.707)" fill="#374b5c"/>
          <path id="Path_12437" data-name="Path 12437" d="M292.989,118.855c-2.345.929-5.277,1.264-6.937,2.893-4.333,4.272-3.411,15.008-13.6,11.833-6.427-2-3.937-11.117-9.48-14.422q-.183-20.536-.381-41.072l-.343-.4c8.147-7.371,13.9-17.833,26.026-20.034a20.929,20.929,0,0,0,3.708.464c3.038.48,4.843,2.376,5.893,5.132q10.52,10.2,21.039,20.391c.274,6.145.259,11.871-6.312,15.587-5.993,3.388-11.323,7.873-14.688,14.178C297.832,116.624,296.165,118.428,292.989,118.855Z" transform="translate(1443.2 36.446)" fill="#374b5c"/>
          <path id="Path_12438" data-name="Path 12438" d="M65.226,105.842q2.536,28.417,5.079,56.826l.053,15.511c1.378,5.178.937,10.394.312,15.617l-1.66.533c-23.262-2.848-24.511-3.944-24.823-25.569-.168-11.818-.366-23.727.807-35.453C46.266,120.614,48.353,107.5,65.226,105.842Z" transform="translate(0 355.208)" fill="#374b5c"/>
          <path id="Path_12439" data-name="Path 12439" d="M62.442,67.055c3.594.662,5.627-11.46,10.066-1.477,1.66,3.746.038,9.1,2,12.51,4.013,6.944,15.6,9.381,12.67,20.483-2.5,9.488-13.005,10.576-18.891,16.714-3.883,4.043-6.906,10.051-15.32,9.861-.472-4.074-.959-8.231-1.447-12.389A96.023,96.023,0,0,1,62.442,67.055Z" transform="translate(49.331 62.698)" fill="#374b5c"/>
          <path id="Path_12440" data-name="Path 12440" d="M282.457,190.646c-16.8-15.442-6.556-30.96-.137-46.471,3.434-3.419,3.038-6.891.137-10.386l.023-.023q-1.976-1.873-1.18-3.571c.525-1.1,1.02-1.66,1.5-1.66,5.49-2.68,4.858-18.5,17-7.394,4.348,3.982,9.351-1.607,14.1-2.581.35,10.927-.084,21.663-7.3,30.785-6.7,11.064-16.866,20.414-15.61,35.293C291.328,188.552,287.939,192.36,282.457,190.646Z" transform="translate(1516.308 430.55)" fill="#374b5c"/>
          <path id="Path_12441" data-name="Path 12441" d="M53.657,170.535c16.973,2.079,27.625-4.188,31.973-21.678,2.2-8.848,7.454-16.934,12.64-25.463-2.673,20.871,8.825,38.4,12,57.778-10.074-6.716-21.579-4.47-32.628-5.322C69.449,175.21,60.129,179.132,53.657,170.535Z" transform="translate(63.477 471.304)" fill="#374b5c"/>
          <path id="Path_12442" data-name="Path 12442" d="M274.942,162.751c5.056-3.114,6.556-8.658,4.531-13.013-7.812-16.729,1.995-22.074,15.3-25.851,1.546-.434,2.886-1.607,4.317-2.437,5.825,24.48-3.662,43.311-22.516,61.563-.952-6.465-1.546-10.485-2.14-14.513C274.606,166.581,274.774,164.669,274.942,162.751Z" transform="translate(1523.823 458.446)" fill="#374b5c"/>
          <path id="Path_12443" data-name="Path 12443" d="M258.951,67.993c-20.2,11.018-44.423,1.013-65.065,12.876-6.244,3.586-16.455-1.173-22.683-7.949,11.84.548,22.744-2.619,34.2-5.627C222.622,62.762,241.483,51.112,258.951,67.993Z" transform="translate(840.969 46.341)" fill="#374b5c"/>
          <path id="Path_12444" data-name="Path 12444" d="M279.814,143.563a267.518,267.518,0,0,0,6.556-27.427c2.109-11.353,2.6-24.45,15.473-30.762,7.713,6.845,6.548,14.46,2.018,22.44-6.19,10.919-10.219,22.691-13.394,34.79q-2.159,2.81-4.356,5.619l-.045.038a3.129,3.129,0,0,1-4.759-.807A12.339,12.339,0,0,1,279.814,143.563Z" transform="translate(1559.376 219.824)" fill="#374b5c"/>
          <path id="Path_12445" data-name="Path 12445" d="M288.276,66.895c-7.371,8.368-12.472,19.691-26.026,20.034q.069-10.279.129-20.551C275.027,52.785,276.07,52.8,288.276,66.895Z" transform="translate(1443.2 27.201)" fill="#374b5c"/>
          <path id="Path_12446" data-name="Path 12446" d="M108.067,53.3c-.647,6.617,1.4,13.813-3.343,19.577-4.736,5.749-13.257,6.48-13.318-.678-.137-16.584-10.318-14.041-20.193-14.079-3.381-.015-6.769-.122-10.15-.183,2.429-3.967,6.419-4.706,10.561-5.132Q89.853,53.041,108.067,53.3Z" transform="translate(112.463 4.372)" fill="#374b5c"/>
          <path id="Path_12447" data-name="Path 12447" d="M198.254,65.583c-10.432-1.241-21.9,4.1-31.135-4.843C177.589,61.783,189,56.8,198.254,65.583Z" transform="translate(813.963 53.709)" fill="#374b5c"/>
          <path id="Path_12448" data-name="Path 12448" d="M238.484,137.05c3.685-6.457,9.891-5.368,15.769-5.261C250.149,137,244.34,137.1,238.484,137.05Z" transform="translate(1286.001 525.949)" fill="#374b5c"/>
          <path id="Path_12449" data-name="Path 12449" d="M152.142,59.107c-5.749.084-11.68.769-15.632-4.888C142.2,54.31,148.282,53.16,152.142,59.107Z" transform="translate(611.502 13.523)" fill="#374b5c"/>
          <path id="Path_12450" data-name="Path 12450" d="M278.887,131.04c-.411-6.084-1.523-12.434,5.8-15.663C284.08,121.088,283.844,126.943,278.887,131.04Z" transform="translate(1551.18 418.276)" fill="#374b5c"/>
          <path id="Path_12451" data-name="Path 12451" d="M256.635,61.334c-4.295-.129-8.079-1.371-10.752-5C250.414,55.965,254.365,56.833,256.635,61.334Z" transform="translate(1334.941 27.226)" fill="#374b5c"/>
          <path id="Path_12452" data-name="Path 12452" d="M280.641,98.508q2.182-2.81,4.356-5.619C285.133,96,283.786,97.945,280.641,98.508Z" transform="translate(1564.846 269.531)" fill="#374b5c"/>
          <path id="Path_12453" data-name="Path 12453" d="M272.048,62.843c-1.964-1.713-3.921-3.419-5.893-5.132C269.459,57.886,271.394,59.63,272.048,62.843Z" transform="translate(1469.029 36.849)" fill="#374b5c"/>
          <path id="Path_12454" data-name="Path 12454" d="M280.01,93.531a12.216,12.216,0,0,1,4.759.807C282.446,98.458,280.855,98.2,280.01,93.531Z" transform="translate(1560.672 273.747)" fill="#374b5c"/>
          <path id="Path_12455" data-name="Path 12455" d="M104.8,115.141c-3.32-2.452-6.64-4.9-9.944-7.371-6.13-4.576-19.143,4.66-20.186-8.8-.883-11.368-1.7-23.7,9.092-32.217,1.942-1.531,3.845-3.1,7.668-6.2-7.744-4.462-17.955.708-22.843-7.127q2.65-.32,5.307-.647c82.9,2.734,165.7,7.1,248.223,15.8,4.081,11.14,1.294,22.98,4.15,34.661,2.977,12.168-7.416,22.341-16.478,29.711-6.99,5.7-28.082-7.592-27.717-19.409.366-11.932-4.089-14.292-13.378-15.313a7.332,7.332,0,0,1-4.31-2.612c-8.246-10.051-17.254-12.191-28.341-4.1-2.086,1.523-6.518-2.086-9.274,2.033-.388,8,6.861,5.155,10.866,6.739,4.751,1.888,8.224,6.724,5.521,9.6-14.391,15.328-.495,28.47,2.239,42.39.982,4.965,2.825,9.769,4.279,14.643-16.79,2.558-22.386-10.142-29.156-21.267-4.675-7.668-11.01-13.371-19.6-16.379-17.011-5.277-26.8,6.83-37.935,15.739-8.467,4.866-16.546,7.7-21.648-4.294-6.617-10.2-4.028-27.222-22.371-28.882C113.415,111.342,109.394,113.58,104.8,115.141Z" transform="translate(162.191 4.227)" fill="#374b5c"/>
          <path id="Path_12456" data-name="Path 12456" d="M184.63,265.4c-7.736-10.934-13.889-23.255-31.729-19.3-3.845.853-9.769-7.736-14.741-11.977-2.026-6.815-13.47-11.125-6.891-19.9,5.376-7.165,13.18-10.637,22.607-5.688,9.9,5.193,14.239.525,15.335-9.312.381-3.381,1.363-6.7,1.736-10.082,2.68-24.176,1.85-25.2-23.018-27.815,7-14,27.336-20.985,21.282-40.707,5.734-1.66,12.906-1.69,16.95-5.262,15.853-14,33.359-5.33,49.585-3.746,17.544,1.721,27.579,32,14.726,44.179-10.774,10.219-2.84,13.424,3.937,15.686,9.868,3.3,20.536,4.18,36.595,7.165-16.813,8.6-25.029,17.064-25.645,32.209-.343,8.528-13.074,4.531-19.067,10.043-8.4,7.736-10.356,14.087-2.6,20.627,3.678,3.1,9.335,4.1,11-.4,3.746-10.066,9.548-11.97,19.638-10.607,4.736.64,6.267-7.2,8.7-11.6,4.546,1.081,12.48,6.754,13.081.7,1.668-16.767,19.318-20.681,24.252-34.958,4.363-12.609,17.749-6.609,27.244-6.35,9.3.259,12.716,7.515,12.891,16.15.175,8.566.068,17.133.228,25.7.084,5.1-.335,10.889,5.863,12.846,4.751,1.492,7.843-1.721,10.417-5.482,1.424-2.079,3.168-4.31,5.307-5.4,2.01-1.02,6.609-1.378,6.868-.739,3.929,9.724,12.556,21.5,9.845,29.194-7.523,21.366-7.531,23.993,15.214,25.257,25.356,1.416,29.087,4.774,34.3,30.884q-10.291.091-20.589.2c-31.25,5.475-62.773.914-94.122,2.581-10.028.533-20.445-2.726-30.077,2.6-14.78,12.115-19.676-4.767-30.146-8.49,22.128-18.427,22.15-20.018.731-40.006-8.147,24.267-26.049,26.864-46.912,20.27-7.1-2.246-12.96-.723-19.767.571C193.844,287.07,189.245,282.539,184.63,265.4Z" transform="translate(563.488 366.206)" fill="#374b5c"/>
          <path id="Path_12457" data-name="Path 12457" d="M588.25,262.481c-44.156,3.708-86.972-5.459-130.169-12.434-36.29-5.848-72.718-10.249-110.044-7.957-15.655.967-32.514-7.965-47.773-14.757-6.038-2.68-10.226-4-16.386-2.231-15.861,4.546-30.534-2.345-45.222-6.419-6.411-1.782-12.1-7.82-11.635-15.549.51-8.452,9.937-13.447,14.452-11.589,12.587,5.178,19.059-14.726,31.828-5.8,3.236,2.254,4.455-3.518,4.439-6.784-.015-6.069.221-12.541-7.744-14.247-19.744-4.211-36.366,2.6-51.451,14.78-7.1,5.734-11.452,15.67-24.412,15.039-1.652-8.048,6.381-10.972,8.97-16.318,1.591-3.289,2.307-6.647.4-9.746-2.444-3.967-5.673-1.82-8.962-.716-19.6,6.564-27.983-.822-28.516-24.983,6.838,2.726,6.914,15.176,13.493,13.843,11.924-2.421,24.145-1.005,35.658-4.173,6.16-1.7,5.071-7.729,3.541-13.1-2.345-8.246-10.82-13.386-11.6-25.706,20.117,11.193,37.539,28.722,63.71,16.919-7.257-8.132-19.173-3.914-24.892-11.559-3.267-4.363-11.878-7.675-5.635-14.376,4.538-4.873,9.259-.541,12.267,4.218,1.881,2.985,4.165,5.817,7.9,5.779,20.148-.19,28.021,13.287,32.818,29.7,2.749,9.381,4.9,17.384,17,8.924,4.683-3.274,9.975.525,14.848,1.546,10.934,2.3,13.241,9.373,9.069,19-1.683,3.891-4.69,7.257-6.1,11.216-2.277,6.4,2.5,9.906,7.287,11.414,6.777,2.14,3.586-13.439,11.977-8.14,3.731,2.36,4.409,9.107,7.6,12.914,3.3,3.929,8.026,3.289,10.812-1.058,4.257-6.632,16.211-2.863,17.27-13.135.137-1.34-2.254-4.165-2.323-4.127-11.2,5.916-15.792-19.424-28.683-6.084-1.614,1.675-5.254-.084-5.688-2.84-.35-2.269.076-5.939,1.561-6.982A111.133,111.133,0,0,1,365.7,156.7c5.848-2.65,19.272.373,7.645-12.952-2.048-2.345,1.576-6.366,4.881-7.828,3.876-1.721,6.434.563,8.429,3.655.464.723,1.2,1.485,1.226,2.246,1.058,24.556,19.607,29.026,38.247,33.4,5.14,1.211,6.221,5.292,6.906,9.67v.008c4.63,3.769,9.541,7.249,13.828,11.376,5.323,5.125,9.929,9.739,16.851,1.858,6.114-6.96,4.554-12.229-2.246-17.125-2.756-1.987-5.764-3.762-4.683-8.422,26.506.868,21.785,22.074,23.765,38.62,10.188-4.043,14.924-9.031,10.828-19.98a32.461,32.461,0,0,1,1.157-24.686c23.475,7.348,26.666,9.815,21.663,29.719-4.356,17.361,4.812,25.029,15.236,34.767,12.846-22.721,12.846-22.721-1.69-40.082,3.061-7.927,12.259-6.815,17.4-12.358,3.031,11.7,5.795,22.356,8.551,33.009,13.8-1.173,18.084-25.737,36.6-14.818,10.219,6.023,9.016,15.236,6.785,26.323-2.155-3.3-3.541-5.307-4.8-7.386-3.586-5.863-8.589-5.147-13.211-2.109-4.9,3.229-6.564,8.163-2.551,13.181,8.384,10.508,13.234,22.021,11.734,35.7Z" transform="translate(806.76 332.964)" fill="#374b5c"/>
          <path id="Path_12458" data-name="Path 12458" d="M107.738,108.167c7.736-3.175,13.675-14.985,24.229-4.812,1.85,1.782,5.353,1.409,5.163-1.812-1.523-24.907,27.343-16.927,34.9-32.278,1.279-2.6,7.279-1.112,8.764,1.934,12.96,26.544,38.582,23.3,61.441,26.612,11.917,9.351,21.244,25.249,40.79,12.252,5.429-3.609,13.417.464,16.188,8.475-12.3,18.9-15.107,40.181-15.549,62.058-1.325,1.127-1.789,2.269-1.378,3.434s.83,1.759,1.264,1.759q.046,5.163.084,10.325c2.635,19.82-16.7,23.8-26.75,28.836-10.911,5.467-11.315-12.32-17.064-21.914-2.886,5.962-8.825,8.8-14.384,6.076-26.864-13.211-34.874,8.5-43.1,24.823-4.508,8.947-8.284,15.884-17.719,19.051-12.891.358-16.333,10.538-19.539,19.935-2.939,8.62-4.188,17.81-6.183,26.742,19.158,21.77,38.826,43.212,46.3,72.451,7.668,16.63,18.655,30.321,36.869,35.445,22.364,6.3,33.907,20.468,36.047,43.326.464,4.881,3.137,9.548,4.789,14.323-1.736,11.711-8.414,8.909-15.381,5.231-1.477-11.285-4.287-20.2-19.341-16.188-4.4,1.173-10.082-3.2-14.879-2.612-10.721,1.294-22.973,1.371-22.957,17.726.023,17.566-16.021,17.544-25.919,23.978-2.041-1.873-4.371-3.4-4.165-3.906,7.668-18.93-3.548-27.808-18.054-35.681-7.584-4.119-14.239-10.2-17.559-18.351-1.683-4.135-4-10.188,2.97-13.082,3.168-1.31,10.614,1.348,7.1-6.015-1.873-3.937-10.142-3.868-11.285-1.241-3.64,8.376-25.638,4.188-15.663,22.493.449.822-12.807,9.122-20.391,14.437-10.4-13.47-3.229-28.44-4.614-43.227C68.257,410.665,69.91,421,69.613,429.9c-.5,14.795-8.46,4.835-13.607,4.226-.183-6.861.662-13.881-2.505-20.323C45.612,397.8,57.666,387.86,65.3,377.116c4.4-6.2,11.917-6.289,18.64-2.414,2.17,1.249,3.564,3.8,5.673,5.185,23.567,15.5,36.96,9.716,38.354-18.252.731-14.711,7.774-28.31,5.711-43.235-.8-5.817,1.888-14.231-4.1-16.63C109.1,293.578,111.2,269.532,96.7,257.432c-3.967-3.312-2.673-7.378.175-11.346,9.724-13.561,19.7-26.772,23.285-43.92,1.8-8.6,16.455-8.505,22.523-.137,2.231,3.076.472,8.315,4.34,11.155,16.394-15.922,16.386-15.922,4.531-30.557-2.977-3.67-2.2-8.125-2.536-12.351,9.556-1.873,22.1,5.7,26.955-10.736,2.193-7.439,9.594-6.5,13.7.175,7.059,11.49,12.678,4.751,17.346-1.477,7.218-9.64-2.079-12.206-7.927-13.409-12.4-2.543-9.069-14.818-15.648-24.435-6.625,26.262-23.232,40.372-44.659,49.791-5.444-3.487-8.285-10.531-16.325-10.622-6.137-.068-10.432-4.637-5.97-9.784,10.79-12.48,4.789-21.183-4.523-30.069C108.766,116.649,108,112.438,107.738,108.167Z" transform="translate(45.412 104.417)" fill="#374b5c"/>
          <path id="Path_12459" data-name="Path 12459" d="M108.776,193.575c-.746-.4-1.85-.6-2.2-1.226-13.668-24.381-34.463-44.354-44.1-71.225,4.287-.739,9.541-2.155,9.274-6.845C70.536,93.1,84.722,94.61,98.557,95.189v-.008c-7.219,10.493-1.454,19.462,3.053,28.592,8.719,2.14,14.262-5.756,21.93-6.312.693,1.241,2.254,3.206,1.934,3.586-9.45,11.307-5.65,20.437,4.4,28.676,1.333,1.089,2.406,2.566,3.853,3.427,17.681,10.455,29.559,24.633,29.1,46.928,11.566-27.922-6.914-45.161-23.7-64.235C154.2,137.2,154.2,137.2,177.26,165.858c9.587-13.264-4.82-24.473-1.645-38.392,12.206,7.013,29.445,6.868,25.341,31.28,23.369-28.691,49.677-18.556,74.751-16.082,3.076,10.637-5.323,10.942-9.625,13.668-7.759,4.919-7.31,10.538-3.769,17.589,3.541,7.066,7.158,8.4,13.752,2.81,5.345-4.523,11.094-1.15,10.637,4.85-1.005,13.226,3.327,19.12,17.049,19,9.366-.084,6.015,8.46,7.1,13.782,8.65,9.937,10.417,21.831,9.8,34.425-1.355,5.726-4.18,10.2-10.219,11.917-8.193,3.739-11.772,1.256-8.62-7.378,2.261-6.2,4.02-12.51-2.688-15.67-7.279-3.427-12.236-17.247-16.066-13.813-9.092,8.147-21.023-3.617-28.189,6.845-1.69,2.475-7.47,4.279-7.8-.259-1.294-17.467-11.9-10.523-19.973-7.888-7.653,2.505-13.165.541-18.655-4.477-2.444-2.231-6.937-5.916-8.239-5.147-18.45,10.988-12.137-4.972-13.668-12.252-.518-2.459-.883-4.949-1.576-8.878-1.949,3.2-3.343,5.147-4.386,7.272-4.47,9.084-10.881,16.447-21.724,14.391-11.353-2.155-13.112-12.381-13.554-21.96-.525-11.422-5.109-19.021-16.676-22.562C127.256,193.316,126.921,193.712,108.776,193.575Z" transform="translate(121.836 282.955)" fill="#374b5c"/>
          <path id="Path_12460" data-name="Path 12460" d="M366.713,175.956c7.371,10.34,1.614,17.163-5.916,24.077-6.4,5.878-12.754,8.178-20.879,3.807-22.957-12.335-50.689-7.934-73.5-20.841-9.861,9.411-31.311-4.272-35.026,17.833-1.47,8.764-11.437.236-14.78,6.221l-5.125-.3q-2.6-2.5-5.307-4.9c-6.906-3.061-11.5-10.394-20-10.584a12.006,12.006,0,0,1-8.993-4.028c-13.021-14.33-17.856-15.343-34.623-6.754-9.754,4.987-19.181,10.607-28.874,15.716-16.295,8.574-19.737,6.487-21.252-12.625-.2-2.543,0-5.109.008-7.668,10.82-9.343,23.216-15.419,30.26-30.526,12.145-26.064,35.8-10.363,55.068-9.6a19.474,19.474,0,0,1,6.3,3.518c4.477,4.432,5.993,9.99,6.472,16.112,2.086,26.247,3.807,28.211,27.724,19.577,13.241-4.774,29.483-1.69,39.77-14.422,11.863-2.848,15.587,8.079,22.912,13.112,4.4,3.031,9.876,9.092,15.815,3.655,4.729-4.317,1.569-9.8-2.01-13.554-7.127-7.455-4.3-15.328.921-20.688,9.419-9.663,11.3-29.6,32.673-24.3,11.642,2.886,16.066,9.449,9.472,19.9-4.051,6.427-10.371,11.391-14.825,17.627-3.122,4.363-4.051,10.089,2.277,12.861,5.49,2.414,10.325-.069,12.32-5.612,1.074-2.985-.937-7.317.495-9.914,5.231-9.5,17.879-9.411,22.128.259C363.272,160.872,364.612,168.586,366.713,175.956Z" transform="translate(319.386 435.105)" fill="#374b5c"/>
          <path id="Path_12461" data-name="Path 12461" d="M65.858,143.557c3.236-3.868,9.746-8.315,9.191-11.521-3.769-21.48,16.2-27.519,25.074-40.555,6.1-8.962,14.4-9.335,21.237-1.1,10.005,12.046,14.742,3.069,20.087-4.683,7.538,8.048,9.427,18.457,15.518,28.965,2.855-9.358,2.673-20.346,16.866-16.257,7.47,2.155,7.8-7.241,11.041-11.719,1.241,2.094,3.693,4.272,3.541,6.259-1.652,21.7-1.767,21.785,18.655,21.671,3.678-.023,7.043-.206,7.782,4.241.609,3.655-.465,7.675-4.691,7.424-12.389-.723-11.5,6.518-6.1,12.206,10.325,10.873,3.959,20.559.289,30.876-6.091,1.066-3.228-10.2-10.417-7.6-.67,1.4-2.239,3.13-1.873,4.18,2.246,6.442,5.246,12.625,7.272,19.12.617,1.987-.419,5.178-1.812,6.922a4.654,4.654,0,0,1-6.83.228c-12.214-13.455-33.793-10.013-45.131-27.062-6.762-10.173-22.813-10.089-34.4-14.863C97.45,144.646,81.072,145.514,65.858,143.557Z" transform="translate(144.18 213.846)" fill="#374b5c"/>
          <path id="Path_12462" data-name="Path 12462" d="M133.279,158.739c-7.721-4.447-15.084-6.229-23.841-1.249-4.439,2.528-7.005,11.346-14.658,6.29-6.259-4.142-13.257-7.569-14.346-16.546-.381-3.2-2.7-6.16-4.135-9.221,1.508-12.739,11.467-9.929,19.455-10.447,12.884-.83,18.084-7.394,15.571-21.4-14.079.723-21.4,15.96-35.072,16.257-.967-30.176-.274-31.044,26.818-33.816,4.8-.487,7.66-3.373,9.366-7.652,17.9-20.749,22.188-22.341,41.5-15.419,28.828,23.734,29.11,40.752-1.1,58.54-11.566,6.815-6.381,16.287-9.046,24.465A20.831,20.831,0,0,1,133.279,158.739Z" transform="translate(211.352 64.216)" fill="#374b5c"/>
          <path id="Path_12463" data-name="Path 12463" d="M181.528,164.321c2.383,6.145,7.774,14.643-4.386,14.7-15.084.076-28.653,3.6-42.07,9.891-3.609,1.7-8.452,1.02-12.731,1.013-17.65-.038-20.49-2.581-15.853-19.432,2.756-10.005,2.338-18.4-2.574-27.039,5.558-8.513,8.521-18.579,15.708-26.1,6.2,8.368,15.587,12.351,23.894,17.962C156.7,144.226,168.911,154.574,181.528,164.321Z" transform="translate(395.898 431.36)" fill="#374b5c"/>
          <path id="Path_12464" data-name="Path 12464" d="M189.188,149.608c-.4,11.612,1.69,24.716-15.708,26.1l.038-.122c-3.921-3.358-9.777-2.68-13.493-6.419-16.851-16.957-31.265-11.49-44.59,4.736-4.355,5.292-9,11.087-16.82,8.323-5.909-2.094-6.625-6.937-3.031-12.145-.023-9.922,11.315-15.229,10.348-25.531q2.673-5.163,5.353-10.325c11.444-25.424,15.122-26.689,39.633-13.409,9.023,4.888,18.122,9.64,27.511,13.79Q183.809,142.112,189.188,149.608Z" transform="translate(326.332 399.106)" fill="#374b5c"/>
          <path id="Path_12465" data-name="Path 12465" d="M98.251,64.363c6.16,11.018,14.056,20.323,25.676,25.942q-.011,14.151-.038,28.3c-.023,7.211-1.371,13.942-9.092,16.767-7.934,2.909-12.937-2.292-17.6-7.47-3.388-3.777-6.419-7.866-9.609-11.818C89.632,98.537,96.9,82.059,98.251,64.363Z" transform="translate(287.931 80.848)" fill="#374b5c"/>
          <path id="Path_12466" data-name="Path 12466" d="M167.56,154.359c-11.224,5.825-19.561-2.124-27.739-6.914-22.15-12.983-21.891-13.432-39.4,6.533.647-12.32-7.3-23.468-4.934-36.024,5.977-5.536,11.01-14.056,20.178-3.289,9.449,11.094,19.47,20.559,36.572,19.211C165.1,132.863,162.474,147.369,167.56,154.359Z" transform="translate(337.201 379.356)" fill="#374b5c"/>
          <path id="Path_12467" data-name="Path 12467" d="M122.493,77.79c.754,18.13.716,36.1-10.66,51.725q-10.2,7.9-20.384,15.823c-1.165-1.234-3.122-2.322-3.381-3.723-1.508-8.246-2.627-16.561-4.142-26.6,12.51.609,25.135,3.4,30.663-11.536,5.178-13.972,2.2-25.1-8.795-34.707-1.858-1.622-2.825-4.272-4.2-6.442C112.3,62.424,117.6,69.833,122.493,77.79Z" transform="translate(263.689 67.421)" fill="#374b5c"/>
          <path id="Path_12468" data-name="Path 12468" d="M147.5,68.342c4.546,11.848,8.193,23.209,21.861,13.615,3.244-2.277,6.465.015,7.63,3.8,1.1,3.579-.35,6.807-2.657,9.366-4.584,5.086-10.295,5.7-16.211,2.749-6.343-3.175-16.006-2.459-16.1-13.318C141.977,80.3,141.6,76.055,147.5,68.342Z" transform="translate(647.8 107.167)" fill="#374b5c"/>
          <path id="Path_12469" data-name="Path 12469" d="M67.218,98.44c1.142-2.246,4.63-4.888,5.1-3.731,2.414,5.894-3.335,2.368-5.1,3.724Z" transform="translate(153.175 279.704)" fill="#374b5c"/>
          <path id="Path_12470" data-name="Path 12470" d="M83.712,87.916c-3.48-1.812-3.419-3.541.114-5.193C83.788,84.451,83.75,86.188,83.712,87.916Z" transform="translate(245.255 202.289)" fill="#374b5c"/>
          <path id="Path_12471" data-name="Path 12471" d="M275.569,261.171l-5.162-5.231q-.034-2.467-.251-4.934c2.025-13.828-3.122-26.932-5.985-41.1,10.675-4.028,15.617,9.678,26.94,4,0-12.038,2.223-25.98-.533-38.856-3.9-18.168.525-32.9,10.28-47.522,4.256-6.389,6.937-13.813,10.546-20.658,2.368-4.492,4.706-10.013,11.071-8.7,5.764,1.188,6.838,7.142,8.817,11.734,2.955,6.845-1.8,15.9,6.023,21.412-19.12,6.906-27.138,23.2-28.95,40.9-2.147,20.985-8.932,41.521-6.868,62.941,4.089,11.437,8.688,23.133-4.82,31.661C287.972,272.326,280.571,270.651,275.569,261.171Z" transform="translate(1455.9 303.161)" fill="#374b5c"/>
          <path id="Path_12472" data-name="Path 12472" d="M295.2,106c-.944,9.16,6.419,15.686,7.759,23.886,1.546,9.472-3.442,16.912-12.5,19.546-10.089,2.947-10.249-5.764-11.741-12.244.068-9.29.754-18.534-2.749-27.579-3.343-8.612-.868-15.48,8.894-17.011C295.37,90.953,294.357,99.489,295.2,106Z" transform="translate(1524.677 266.243)" fill="#374b5c"/>
          <path id="Path_12473" data-name="Path 12473" d="M266.287,70.424q2.467-2.718,4.927-5.452c1.652.122,3.32.152,4.949.4,3.944.571,9.16.335,8.376,6.236-.48,3.579-4.462,4.157-7.858,4.31C272.127,76.112,268.769,74.117,266.287,70.424Z" transform="translate(1469.902 84.876)" fill="#374b5c"/>
          <path id="Path_12474" data-name="Path 12474" d="M62.8,130.694c-3.244-12.861,15.214-4.348,13.546-12.769-2.391-12.115,6.145-8.719,11.7-11.368,7.2-3.442,12.861-10.142,9.579-18.9-4.158-11.094.167-14.155,10.318-13.721,9.579.411,15.83,5.482,11.589,14.521-4.226,9.016-1.325,10.965,6.32,11.064,7.576.1,13.455,2.147,16.508,9.647,2.718,6.693,5.749,13.424-5.574,14.673a8.1,8.1,0,0,0-6.229,3.335c-12.115,15.686-12.2,15.632-20.833-2.68-.723-1.538-1.249-3.168-1.843-4.69-12.678.937-1.218,17.94-12.868,19.333-8.642,1.043-16.424-.906-21.975-8.353Z" transform="translate(121.404 143.909)" fill="#374b5c"/>
          <path id="Path_12475" data-name="Path 12475" d="M49.926,134.238c-3.632-5.14-3.541-10.34-.312-15.617,11.1-2.924,22.7-8.863,30.953,5.185.343,8.239,4.584,15.381,1.728,24.907-4.058,13.569,4.089,24.656,17.886,28.851,3.64,1.1,8.795-1.759,10.409,3.959,1.409,5-1.881,7.9-5.863,10.12-4.6,2.558-9.868,5.528-13.965.556-7.043-8.528-18.4-17.749-18.526-26.81C72,147.807,58.721,143.452,49.926,134.238Z" transform="translate(20.745 414.766)" fill="#374b5c"/>
          <path id="Path_12476" data-name="Path 12476" d="M144.206,125.332c5.627-.274,11.719.815,15.381-5.231a17.691,17.691,0,0,1,10.394,10.333c11.467,13.432-1.317,34.95,15.541,46.585.015,1.736.038,3.472.053,5.216-4.1,10.2-17,11.247-21.77,21.054-1.675,3.449-6.731,3.609-7.911-.244-3.5-11.422-9.83-6.594-15.45-3.076-4.279,2.688-7.706,6.708-11.658,9.975-9.8,8.1-21.389,10.12-29.81.541-9.876-11.231-20.856-8.566-32.43-7.546,8.528-10,16.47-17.178,32.354-11.741a47.874,47.874,0,0,0,39.922-3.853c4.378-3.427,3.038-6.883.046-10.348a35.188,35.188,0,0,1-19.295-4.591c-12.069-6.724-11.84-9.061-.221-17.209C130.2,147.589,141.974,140.3,144.206,125.332Z" transform="translate(148.73 449.523)" fill="#374b5c"/>
          <path id="Path_12477" data-name="Path 12477" d="M76.084,127.573c3.046,1.226,6.533,2.749,6.792,6.16.358,4.637-3.944,3.716-6.838,4.188Q76.061,132.747,76.084,127.573Z" transform="translate(211.514 498.946)" fill="#374b5c"/>
          <path id="Path_12478" data-name="Path 12478" d="M95.691,196.781c-7.569,3.434-15.252,6.815-15.45-6.609-.2-13.325-.076-26.651-.091-39.976,1.706.023,3.411.053,5.109.069,1.774,1.9,3.518,1.789,5.231-.076,8.673-3.678,17.323-7.394,26.011-11.026,7.112-2.977,14.559-5.361,19.135-12.328,3.061-4.652,4.789-12.983,12.769-8.376,8.185,4.729,12.328,13.6,8.018,22.173-5.269,10.462-14.582,18.686-16.4,31.28-.495,3.381-5.566,4.089-8.871,2.947C110.2,167.6,102.141,180.805,95.691,196.781Z" transform="translate(238.56 429.761)" fill="#374b5c"/>
          <path id="Path_12479" data-name="Path 12479" d="M106.625,136.787c2.734,12.785,8.833,11.833,13.972,2.246,3.975-7.432,5.566-14.787,15.785-17.544,23.97-6.449,23.749-7.1,40.9,13.858,2.109,2.574,4.835,4.645,7.272,6.944-10.135-1.1-20.772,7.927-30.778-3.122-3.6-3.975-10.127-1.721-15.16,3.8-13.912,15.267-14.361,14.863-7.279,34.729-12.739-5.65-23.787-2.49-34.805.921C86.949,161.557,92.409,148.11,106.625,136.787Z" transform="translate(315.292 432.402)" fill="#374b5c"/>
          <path id="Path_12480" data-name="Path 12480" d="M86.032,121.457c-1.683,3.564-3.434,3.533-5.231.076C82.545,121.51,84.288,121.48,86.032,121.457Z" transform="translate(243.019 458.492)" fill="#374b5c"/>
          <path id="Path_12481" data-name="Path 12481" d="M107.3,128.945q2.661,2.444,5.315,4.9Q109.95,131.4,107.3,128.945Z" transform="translate(418.268 508.021)" fill="#374b5c"/>
          <path id="Path_12482" data-name="Path 12482" d="M129.159,64.543c4.462,9.693-3.609,10.485-8.711,10.005-14.376-1.363-21.96,2.292-20.582,18.64.274,3.274-6.838,7.127-6.891,12.823C73.094,107.2,70.2,104.336,76.391,89.5c.624-1.508,2.33-2.581,2.886-4.089,7.538-20.582,7.515-20.6,29.6-21.077C115.582,69.85,122.352,69.089,129.159,64.543Z" transform="translate(194.631 80.63)" fill="#374b5c"/>
          <path id="Path_12483" data-name="Path 12483" d="M265.7,142c22.752,7.325,24.884,5.718,22.325-17.285-.426-3.792.655-6.533,3.6-8.726l-.015.084c3.365,3.571,6.769,3.35,10.2.107,14.224,1.165,23.544,9.838,31.524,20.574q-.16,2.616-.32,5.231c-23.3-4.919-41.521,10.135-62.141,15.777C264.764,153.955,265.731,147.811,265.7,142Z" transform="translate(1465.767 422.331)" fill="#374b5c"/>
          <path id="Path_12484" data-name="Path 12484" d="M279.273,116.108c-3.457,5.216-6.861,5.361-10.2-.107Q274.175,116.047,279.273,116.108Z" transform="translate(1488.31 422.404)" fill="#374b5c"/>
          <path id="Path_12485" data-name="Path 12485" d="M257.936,136.219c-3.244,6.427-10.424,11.026-18.229,13.181-4.843,1.332-6.3-4.371-5.855-8.741.662-6.4,15.084-14.84,21.2-12.411C257.479,129.206,258.385,131.75,257.936,136.219Z" transform="translate(1254.853 500.579)" fill="#374b5c"/>
          <path id="Path_12486" data-name="Path 12486" d="M152.168,139.2c6.67-7.942,15.838-5.01,24.039-5.079,33.389-.289,66.771-.114,100.16-.107-6.754,7.744-15.876,4.919-24.1,4.988C218.9,139.311,185.534,139.167,152.168,139.2Z" transform="translate(715.071 539.108)" fill="#374b5c"/>
          <path id="Path_12487" data-name="Path 12487" d="M274.624,119.407c5.223,3.526,4.881,6.99-.137,10.386Z" transform="translate(1524.141 444.933)" fill="#374b5c"/>
          <path id="Path_12488" data-name="Path 12488" d="M185.887,111.185c-1,1.1-1.858,2.909-3.038,3.16-1.995.426-2.878-1.081-2.086-3.008a4.017,4.017,0,0,1,1.607-1.873C184.273,108.383,185.491,109.038,185.887,111.185Z" transform="translate(902.299 375.777)" fill="#374b5c"/>
          <path id="Path_12489" data-name="Path 12489" d="M206.063,113.31c-1.127,2.261-4.637,4.911-5.125,3.731-2.444-5.924,3.335-2.391,5.125-3.739Z" transform="translate(1033.734 404.552)" fill="#374b5c"/>
        </g>
        <ellipse id="Ellipse_8" data-name="Ellipse 8" cx="4" cy="4.5" rx="4" ry="4.5" transform="translate(824 3952)" fill="#374b5c"/>
      </g>
    </g>
  </g>
</svg>
