<svg id="Group_105" data-name="Group 105" xmlns="http://www.w3.org/2000/svg" width="30.612" height="30.612" viewBox="0 0 30.612 30.612">
  <path id="Path_12253" data-name="Path 12253" d="M639.887,337.944A2.944,2.944,0,1,1,636.944,335a2.944,2.944,0,0,1,2.944,2.944Zm0,0" transform="translate(-621.638 -322.637)" fill="#fff"/>
  <path id="Path_12254" data-name="Path 12254" d="M576.608,265.52a2.924,2.924,0,0,0-1.676-1.676,4.887,4.887,0,0,0-1.64-.3c-.931-.042-1.211-.052-3.568-.052s-2.637.009-3.569.051a4.891,4.891,0,0,0-1.64.3,2.925,2.925,0,0,0-1.676,1.676,4.887,4.887,0,0,0-.3,1.64c-.042.931-.052,1.21-.052,3.569s.009,2.637.052,3.568a4.885,4.885,0,0,0,.3,1.64,2.924,2.924,0,0,0,1.676,1.676,4.882,4.882,0,0,0,1.64.3c.931.042,1.21.051,3.568.051s2.638-.009,3.569-.051a4.881,4.881,0,0,0,1.64-.3,2.924,2.924,0,0,0,1.676-1.676,4.892,4.892,0,0,0,.3-1.64c.042-.931.051-1.211.051-3.568s-.009-2.637-.051-3.569a4.879,4.879,0,0,0-.3-1.64Zm-6.884,9.743a4.535,4.535,0,1,1,4.535-4.535,4.535,4.535,0,0,1-4.535,4.535Zm4.714-8.189a1.06,1.06,0,1,1,1.06-1.06,1.06,1.06,0,0,1-1.06,1.06Zm0,0" transform="translate(-554.418 -255.421)" fill="#fff"/>
  <path id="Path_12255" data-name="Path 12255" d="M442.306,128a15.306,15.306,0,1,0,15.306,15.306A15.308,15.308,0,0,0,442.306,128Zm8.736,18.93a6.448,6.448,0,0,1-.408,2.134,4.494,4.494,0,0,1-2.57,2.57,6.453,6.453,0,0,1-2.133.408c-.937.043-1.237.053-3.624.053s-2.686-.01-3.624-.053a6.452,6.452,0,0,1-2.133-.408,4.494,4.494,0,0,1-2.57-2.57,6.448,6.448,0,0,1-.408-2.133c-.043-.937-.053-1.237-.053-3.624s.01-2.686.053-3.624a6.449,6.449,0,0,1,.408-2.134,4.5,4.5,0,0,1,2.571-2.57,6.453,6.453,0,0,1,2.134-.408c.937-.043,1.237-.053,3.624-.053s2.686.01,3.624.053a6.455,6.455,0,0,1,2.134.408,4.5,4.5,0,0,1,2.57,2.571,6.448,6.448,0,0,1,.409,2.134c.043.937.053,1.237.053,3.624s-.01,2.686-.053,3.624Zm0,0" transform="translate(-427 -128)" fill="#fff"/>
</svg>
