<svg id="Group_220" data-name="Group 220" xmlns="http://www.w3.org/2000/svg" width="77.5" height="74.608" viewBox="0 0 77.5 74.608">
  <g id="Group_219" data-name="Group 219">
    <path id="Path_36514" data-name="Path 36514" d="M278.578,65.139a10.992,10.992,0,0,0,6.244,3.113V62.315a4.778,4.778,0,1,1,3.148,0v5.937A11.041,11.041,0,0,0,294.213,49.5L286.4,41.685,278.578,49.5A11.056,11.056,0,0,0,278.578,65.139Z" transform="translate(-247.706 -37.501)" fill="#00dbd0"/>
    <path id="Path_36515" data-name="Path 36515" d="M468.43,277.369a4.763,4.763,0,0,1-4.491-3.2H458a11.041,11.041,0,0,0,18.749,6.244l7.818-7.818-7.818-7.818A11.041,11.041,0,0,0,458,271.018h5.937a4.769,4.769,0,1,1,4.491,6.352Z" transform="translate(-412.036 -235.287)" fill="#00dbd0"/>
    <path id="Path_36516" data-name="Path 36516" d="M527.987,114.347a6.659,6.659,0,1,0,13.319,0v-6.659h-6.659A6.659,6.659,0,0,0,527.987,114.347Z" transform="translate(-474.997 -96.88)" fill="#00dbd0"/>
    <path id="Path_36517" data-name="Path 36517" d="M675.97,215.295l3.045-3.045L675.97,209.2a4.306,4.306,0,1,0,0,6.09Z" transform="translate(-601.515 -187.074)" fill="#00dbd0"/>
    <path id="Path_36518" data-name="Path 36518" d="M483.809,9.135a4.306,4.306,0,0,0,0-6.09L480.764,0l-3.045,3.045a4.306,4.306,0,0,0,6.09,6.09Z" transform="translate(-428.639)" fill="#00dbd0"/>
    <path id="Path_36519" data-name="Path 36519" d="M65.632,267.814a4.763,4.763,0,0,1,4.491,3.2H76.06a11.041,11.041,0,0,0-18.749-6.244l-7.818,7.818,7.818,7.818a11.041,11.041,0,0,0,18.749-6.244H70.123a4.769,4.769,0,1,1-4.491-6.351Z" transform="translate(-44.526 -235.287)" fill="#00dbd0"/>
    <path id="Path_36520" data-name="Path 36520" d="M118.173,121.007a6.659,6.659,0,0,0,0-13.319h-6.659v6.659A6.659,6.659,0,0,0,118.173,121.007Z" transform="translate(-100.322 -96.88)" fill="#00dbd0"/>
    <path id="Path_36521" data-name="Path 36521" d="M9.135,215.295a4.306,4.306,0,0,0-6.09-6.09L0,212.25l3.045,3.045A4.306,4.306,0,0,0,9.135,215.295Z" transform="translate(0 -187.074)" fill="#00dbd0"/>
    <path id="Path_36522" data-name="Path 36522" d="M217.286,9.135a4.306,4.306,0,0,0,0-6.09L214.241,0,211.2,3.045a4.306,4.306,0,0,0,6.09,6.09Z" transform="translate(-188.865)" fill="#00dbd0"/>
    <path id="Path_36523" data-name="Path 36523" d="M294.213,440.111A10.991,10.991,0,0,0,287.969,437v5.937a4.778,4.778,0,1,1-3.148,0V437a11.041,11.041,0,0,0-6.244,18.749l7.818,7.818,7.818-7.818A11.056,11.056,0,0,0,294.213,440.111Z" transform="translate(-247.706 -393.139)" fill="#00dbd0"/>
    <path id="Path_36524" data-name="Path 36524" d="M534.646,503a6.659,6.659,0,0,0,0,13.319h6.659v-6.659A6.66,6.66,0,0,0,534.646,503Z" transform="translate(-474.997 -452.518)" fill="#00dbd0"/>
    <path id="Path_36525" data-name="Path 36525" d="M669.88,450.9a4.306,4.306,0,0,0,6.09,6.09l3.045-3.045L675.97,450.9A4.306,4.306,0,0,0,669.88,450.9Z" transform="translate(-601.515 -404.511)" fill="#00dbd0"/>
    <path id="Path_36526" data-name="Path 36526" d="M477.719,641.069a4.306,4.306,0,0,0,0,6.09l3.045,3.045,3.045-3.045a4.306,4.306,0,1,0-6.09-6.09Z" transform="translate(-428.639 -575.596)" fill="#00dbd0"/>
    <path id="Path_36527" data-name="Path 36527" d="M124.833,509.659a6.659,6.659,0,1,0-13.319,0v6.659h6.659A6.659,6.659,0,0,0,124.833,509.659Z" transform="translate(-100.322 -452.518)" fill="#00dbd0"/>
    <path id="Path_36528" data-name="Path 36528" d="M3.045,450.9,0,453.944l3.045,3.045a4.306,4.306,0,1,0,0-6.09Z" transform="translate(0 -404.511)" fill="#00dbd0"/>
    <path id="Path_36529" data-name="Path 36529" d="M211.2,641.069a4.306,4.306,0,0,0,0,6.09l3.045,3.045,3.045-3.045a4.306,4.306,0,1,0-6.09-6.09Z" transform="translate(-188.865 -575.596)" fill="#00dbd0"/>
  </g>
</svg>