<svg id="Group_17" data-name="Group 17" xmlns="http://www.w3.org/2000/svg" width="83.752" height="83.758" viewBox="0 0 83.752 83.758">
  <path id="Path_11687" data-name="Path 11687" d="M54.456,354.988H29.33A29.346,29.346,0,0,1,.017,325.675a1.4,1.4,0,0,1,1.4-1.4h80.96a1.4,1.4,0,0,1,1.4,1.4A29.347,29.347,0,0,1,54.456,354.988ZM2.845,327.071A26.555,26.555,0,0,0,29.33,352.2H54.456a26.555,26.555,0,0,0,26.485-25.126Z" transform="translate(-0.017 -271.23)" fill="#00dbd0"/>
  <path id="Path_11688" data-name="Path 11688" d="M204.327,41.881H180.6a1.4,1.4,0,0,1-1.4-1.4v-20.7a5.785,5.785,0,0,1,5.232-5.815c.155-.008.257-.011.357-.011a5.563,5.563,0,0,1,2.786.745v-1.9a5.785,5.785,0,0,1,5.23-5.815c.155-.008.258-.011.359-.011a5.55,5.55,0,0,1,2.786.751V5.59c0-.1,0-.2.007-.3A5.579,5.579,0,0,1,201.833.008,5.826,5.826,0,0,1,206.807,3.9l1.717-1.742c.172-.172.343-.327.521-.473a7.338,7.338,0,0,1,10.317,1,7.475,7.475,0,0,1-.617,10.01l-1.58,1.58a5.8,5.8,0,0,1,3.907,4.929c.01.155.011.257.011.359a5.584,5.584,0,0,1-4.958,5.543,5.549,5.549,0,0,1,.763,3.124,5.777,5.777,0,0,1-5.843,5.286h-1.886a5.579,5.579,0,0,1-4.832,8.372Zm-22.334-2.79h22.334a2.792,2.792,0,0,0,0-5.583,1.4,1.4,0,1,1,0-2.792h6.742a2.975,2.975,0,0,0,3.035-2.7,2.786,2.786,0,0,0-2.644-2.882l-.153,0a1.4,1.4,0,1,1,0-2.792H215.5a2.788,2.788,0,0,0,2.793-2.786l0-.153a2.975,2.975,0,0,0-2.956-2.644H214.1a1.4,1.4,0,0,1-.987-2.383l3.671-3.671a4.688,4.688,0,0,0,.409-6.272,4.539,4.539,0,0,0-6.369-.6c-.11.091-.216.187-.32.289l-3.787,3.843a1.4,1.4,0,0,1-2.39-.978V5.828a2.989,2.989,0,0,0-2.7-3.037,2.767,2.767,0,0,0-2.881,2.644l0,.155v6.979h0a1.4,1.4,0,0,1-1.4,1.394h0a1.4,1.4,0,0,1-1.395-1.4v-.009a2.8,2.8,0,0,0-2.789-2.79l-.151,0a2.977,2.977,0,0,0-2.644,3.007v6.766h0a1.4,1.4,0,0,1-1.4,1.395h0a1.4,1.4,0,0,1-1.394-1.4v-.01a2.794,2.794,0,0,0-2.788-2.788l-.152,0a2.977,2.977,0,0,0-2.644,3.007v19.33Z" transform="translate(-149.888 0.001)" fill="#00dbd0"/>
  <rect id="Rectangle_4" data-name="Rectangle 4" width="55.273" height="2.792" transform="translate(21.349 47.871) rotate(-45)" fill="#00dbd0"/>
  <rect id="Rectangle_5" data-name="Rectangle 5" width="2.792" height="6.979" transform="translate(51.644 11.181)" fill="#00dbd0"/>
  <rect id="Rectangle_6" data-name="Rectangle 6" width="2.792" height="8.375" transform="translate(43.269 18.16)" fill="#00dbd0"/>
  <rect id="Rectangle_7" data-name="Rectangle 7" width="2.792" height="9.771" transform="translate(34.894 25.126)" fill="#00dbd0"/>
  <rect id="Rectangle_8" data-name="Rectangle 8" width="6.979" height="2.792" transform="translate(53.04 16.765)" fill="#00dbd0"/>
  <rect id="Rectangle_9" data-name="Rectangle 9" width="8.375" height="2.792" transform="translate(44.665 25.126)" fill="#00dbd0"/>
  <rect id="Rectangle_10" data-name="Rectangle 10" width="9.771" height="2.792" transform="translate(36.29 33.501)" fill="#00dbd0"/>
  <path id="Path_11689" data-name="Path 11689" d="M42.221,40a6.987,6.987,0,0,1-6.979-6.979V32.3l-1.175-.918a6.421,6.421,0,1,1,7.651-10.221l.483.347.5-.382c.1-.077.194-.141.286-.2a6.441,6.441,0,0,1,8.921,1.781l.006.009a6.425,6.425,0,0,1-1.481,8.619L49.2,32.3v.715A6.986,6.986,0,0,1,42.221,40ZM37.338,22.232a3.629,3.629,0,0,0-1.8,6.781,1.393,1.393,0,0,1,.169.113l1.787,1.4a1.392,1.392,0,0,1,.536,1.1v1.4a4.188,4.188,0,1,0,8.375,0v-1.4a1.4,1.4,0,0,1,.536-1.1l1.787-1.4a3.61,3.61,0,0,0-4.195-5.874l-1.471,1.107a1.4,1.4,0,0,1-1.66.021l-1.4-1a1.5,1.5,0,0,1-.152-.127A3.613,3.613,0,0,0,37.338,22.232Z" transform="translate(-25.861 -16.26)" fill="#00dbd0"/>
  <rect id="Rectangle_11" data-name="Rectangle 11" width="2.792" height="2.792" transform="translate(30.706 1.396)" fill="#00dbd0"/>
  <rect id="Rectangle_12" data-name="Rectangle 12" width="2.792" height="2.792" transform="translate(39.082 46.064)" fill="#00dbd0"/>
  <path id="Path_11690" data-name="Path 11690" d="M460.786,62.406V59.614a2.792,2.792,0,1,0,0-5.583V51.239a5.583,5.583,0,0,1,0,11.167Z" transform="translate(-385.409 -42.857)" fill="#00dbd0"/>
  <rect id="Rectangle_13" data-name="Rectangle 13" width="2.792" height="2.792" transform="translate(2.789 20.952)" fill="#00dbd0"/>
  <rect id="Rectangle_14" data-name="Rectangle 14" width="2.792" height="2.792" transform="translate(0 15.369)" fill="#00dbd0"/>
  <path id="Path_11691" data-name="Path 11691" d="M309.831,278.667h-2.792a2.792,2.792,0,1,0-5.583,0h-2.792a5.583,5.583,0,1,1,11.167,0Z" transform="translate(-249.809 -228.409)" fill="#00dbd0"/>
  <path id="Path_11692" data-name="Path 11692" d="M16.767,186.044H5.6a5.583,5.583,0,0,1,0-11.167h.176a5.585,5.585,0,0,1,10.815,0h.176a5.583,5.583,0,0,1,0,11.167ZM5.6,177.67a2.792,2.792,0,0,0,0,5.583H16.767a2.792,2.792,0,1,0,0-5.583h-1.4a1.4,1.4,0,0,1-1.4-1.4,2.792,2.792,0,1,0-5.583,0,1.4,1.4,0,0,1-1.4,1.4Z" transform="translate(-0.017 -142.766)" fill="#00dbd0"/>
  <path id="Path_11693" data-name="Path 11693" d="M49.66,255.859H44.077a1.4,1.4,0,0,1-1.4-1.4V248.88a1.4,1.4,0,0,1,1.4-1.4H49.66a1.4,1.4,0,0,1,1.4,1.4v5.583A1.4,1.4,0,0,1,49.66,255.859Zm-4.188-2.792h2.792v-2.792H45.473Z" transform="translate(-35.702 -206.998)" fill="#00dbd0"/>
  <path id="Path_11694" data-name="Path 11694" d="M430.843,230.261a4.188,4.188,0,1,1,4.187-4.188A4.193,4.193,0,0,1,430.843,230.261Zm0-5.582a1.4,1.4,0,1,0,1.4,1.4A1.4,1.4,0,0,0,430.843,224.679Z" transform="translate(-356.862 -185.588)" fill="#00dbd0"/>
  <path id="Path_11695" data-name="Path 11695" d="M402.3,207.3a9.771,9.771,0,1,1,9.771-9.771A9.783,9.783,0,0,1,402.3,207.3Zm0-16.749a6.979,6.979,0,1,0,6.979,6.979A6.987,6.987,0,0,0,402.3,190.548Z" transform="translate(-328.314 -157.04)" fill="#00dbd0"/>
</svg>
