<svg id="Group_64" data-name="Group 64" xmlns="http://www.w3.org/2000/svg" width="123.381" height="136.178" viewBox="0 0 123.381 136.178">
  <g id="Group_57" data-name="Group 57" transform="translate(18.134 0)">
    <g id="Group_56" data-name="Group 56">
      <path id="Path_12132" data-name="Path 12132" d="M545.029,184.387a.99.99,0,0,1-.065-.536,1.039,1.039,0,0,1,.216-.5,1.053,1.053,0,0,1,.438-.333,1.009,1.009,0,0,1,.534-.062,1.06,1.06,0,0,1,.508.221,1.033,1.033,0,0,1,.328.432,1.02,1.02,0,0,1,.064.532,1.082,1.082,0,0,1-.654.835,1.011,1.011,0,0,1-.535.067,1.024,1.024,0,0,1-.5-.214A1.06,1.06,0,0,1,545.029,184.387Z" transform="translate(-544.952 -160.691)" fill="#374b5c"/>
      <path id="Path_12133" data-name="Path 12133" d="M550.989,174.159l.942,1,1.363-1.286.556.589-1.363,1.286.977,1.036,1.528-1.441.581.616-2.3,2.166-3.633-3.85,2.3-2.166.576.611Z" transform="translate(-546.139 -157.95)" fill="#374b5c"/>
      <path id="Path_12134" data-name="Path 12134" d="M562.673,164.744a2.415,2.415,0,0,1,1.483.684l-.926.61a1.451,1.451,0,0,0-.819-.268,1.515,1.515,0,0,0-.866.273,1.379,1.379,0,0,0-.624,1.381,2.087,2.087,0,0,0,.347.867,2.063,2.063,0,0,0,.655.654,1.381,1.381,0,0,0,1.516-.029,1.512,1.512,0,0,0,.593-.686,1.447,1.447,0,0,0,.076-.859l.927-.61a2.412,2.412,0,0,1,.043,1.633,2.852,2.852,0,0,1-2.4,1.78,2.323,2.323,0,0,1-1.277-.3,3.227,3.227,0,0,1-1.537-2.335,2.329,2.329,0,0,1,.221-1.291,2.863,2.863,0,0,1,2.585-1.5Z" transform="translate(-548.722 -156.085)" fill="#374b5c"/>
      <path id="Path_12135" data-name="Path 12135" d="M575.115,158.295a2.5,2.5,0,0,1,1.247.53,2.982,2.982,0,0,1,1.061,2.591,2.5,2.5,0,0,1-.515,1.256,2.8,2.8,0,0,1-2.49,1.02,2.492,2.492,0,0,1-1.248-.534,2.824,2.824,0,0,1-.854-1.165,2.793,2.793,0,0,1-.207-1.426,2.5,2.5,0,0,1,.516-1.253,2.8,2.8,0,0,1,2.49-1.019Zm-1.683,1.6a1.433,1.433,0,0,0-.281.767,2.215,2.215,0,0,0,.7,1.7,1.438,1.438,0,0,0,.739.35,1.695,1.695,0,0,0,1.513-.62,1.427,1.427,0,0,0,.281-.767,2.219,2.219,0,0,0-.7-1.7,1.444,1.444,0,0,0-.739-.35,1.7,1.7,0,0,0-1.512.62Z" transform="translate(-551.818 -154.45)" fill="#374b5c"/>
      <path id="Path_12136" data-name="Path 12136" d="M598.327,157.142a2.3,2.3,0,0,1-.877,1.008,3.111,3.111,0,0,1-1.455.455l-1.875.155-.435-5.275,1.877-.155a3.184,3.184,0,0,1,1.509.2,2.263,2.263,0,0,1,1.029.841,3.09,3.09,0,0,1,.229,2.768Zm-1.217-.028a1.938,1.938,0,0,0-.208-2.517,1.833,1.833,0,0,0-1.357-.34l-.732.06.282,3.415.732-.061A1.837,1.837,0,0,0,597.11,157.114Z" transform="translate(-557.281 -153.196)" fill="#374b5c"/>
      <path id="Path_12137" data-name="Path 12137" d="M608.515,154.085l-.12,1.366,1.867.164-.071.807-1.867-.164-.125,1.419,2.091.184-.074.845-3.145-.277.464-5.273,3.145.277-.075.837Z" transform="translate(-560.668 -153.155)" fill="#374b5c"/>
      <path id="Path_12138" data-name="Path 12138" d="M621.346,160.2a1.451,1.451,0,0,1-.717.382,2.081,2.081,0,0,1-.987-.04,2.515,2.515,0,0,1-.926-.434,1.688,1.688,0,0,1-.549-.71,1.578,1.578,0,0,1-.086-.889l1.088.279a.858.858,0,0,0,.119.584.809.809,0,0,0,.517.353.681.681,0,0,0,.533-.046.617.617,0,0,0,.284-.4.6.6,0,0,0-.037-.431,1.037,1.037,0,0,0-.284-.339q-.187-.148-.525-.367a5.858,5.858,0,0,1-.7-.517,1.5,1.5,0,0,1-.4-.587,1.342,1.342,0,0,1-.015-.832,1.3,1.3,0,0,1,.742-.92,2.018,2.018,0,0,1,1.358-.059,2.063,2.063,0,0,1,1.2.724,1.527,1.527,0,0,1,.28,1.186l-1.1-.282a.792.792,0,0,0-.117-.513.746.746,0,0,0-.471-.311.7.7,0,0,0-.495.032.623.623,0,0,0-.246.8,1.049,1.049,0,0,0,.279.33,5.577,5.577,0,0,0,.509.355,7.552,7.552,0,0,1,.719.533,1.452,1.452,0,0,1,.409.592,1.391,1.391,0,0,1,.014.855A1.44,1.44,0,0,1,621.346,160.2Z" transform="translate(-563.446 -153.659)" fill="#374b5c"/>
      <path id="Path_12139" data-name="Path 12139" d="M631.737,158.994l-2.042,4.884-.975-.408,2.041-4.884Z" transform="translate(-566.146 -154.529)" fill="#374b5c"/>
      <path id="Path_12140" data-name="Path 12140" d="M642.461,165.35a2.122,2.122,0,0,1,.02,1.523l-.944-.583a1.256,1.256,0,0,0-.122-.75,1.5,1.5,0,0,0-.573-.605,1.554,1.554,0,0,0-.8-.247,1.414,1.414,0,0,0-.781.223,2.011,2.011,0,0,0-.646.676,1.787,1.787,0,0,0-.3,1.337,1.608,1.608,0,0,0,.793,1.036,1.489,1.489,0,0,0,1.009.227,1.572,1.572,0,0,0,.942-.52l-1.524-.941.4-.645,2.278,1.407-.536.867a2.485,2.485,0,0,1-.882.592,2.353,2.353,0,0,1-1.1.154,2.654,2.654,0,0,1-1.17-.41,2.712,2.712,0,0,1-.992-1.013,2.344,2.344,0,0,1-.284-1.295,3.156,3.156,0,0,1,1.469-2.379,2.383,2.383,0,0,1,1.284-.331,2.672,2.672,0,0,1,1.348.427A2.6,2.6,0,0,1,642.461,165.35Z" transform="translate(-568.301 -155.816)" fill="#374b5c"/>
      <path id="Path_12141" data-name="Path 12141" d="M650.36,177.811l-.778-.715.685-4.253-2.432,2.652-.779-.714,3.577-3.9.779.714-.706,4.276,2.452-2.674.778.714Z" transform="translate(-570.785 -157.639)" fill="#374b5c"/>
      <path id="Path_12142" data-name="Path 12142" d="M659.072,182.952a1,1,0,0,1,.536.065,1.084,1.084,0,0,1,.654.835,1.015,1.015,0,0,1-.067.534,1.081,1.081,0,0,1-.336.44,1.041,1.041,0,0,1-.5.214,1.027,1.027,0,0,1-.532-.065,1.042,1.042,0,0,1-.437-.333,1.053,1.053,0,0,1-.217-.5,1.031,1.031,0,0,1,.39-.967A1.064,1.064,0,0,1,659.072,182.952Z" transform="translate(-573.595 -160.691)" fill="#374b5c"/>
    </g>
  </g>
  <path id="Path_12143" data-name="Path 12143" d="M606.251,202.381a186.691,186.691,0,0,0-3.017-19.147.7.7,0,0,0-.459-.524.7.7,0,0,0-.684.128,116.578,116.578,0,0,0-11.913,11.088,39.361,39.361,0,0,0-8.431,14.027,29.668,29.668,0,0,0-1.313,6.783,21.852,21.852,0,0,0,2.315,12.154,14.81,14.81,0,0,0,8.515,7.137,56.044,56.044,0,0,0,2.971,9.733.7.7,0,0,0,.651.436.693.693,0,0,0,.266-.052.7.7,0,0,0,.385-.917,54.627,54.627,0,0,1-2.686-8.564c5.559-1.9,10.132-6.96,12.257-13.606C607.117,214.767,606.813,208.087,606.251,202.381Zm-14.77,17.526c4.649-3.905,9.26-7.964,13.737-12.077a48.038,48.038,0,0,1-.122,5.947c-4.617,2.487-9.2,5.154-13.653,7.941C591.447,221.114,591.458,220.51,591.481,219.907Zm13.65-13.9c-4.409,4.074-8.961,8.094-13.554,11.977A55.365,55.365,0,0,1,594.7,203.2a44.633,44.633,0,0,1,8.863-10.425c.56,3.449.986,6.656,1.291,9.748C604.963,203.645,605.057,204.814,605.131,206Zm-1.838-14.841a41.9,41.9,0,0,0-8.578,9.479,67.95,67.95,0,0,1,1.541-10.843c1.909-1.764,3.878-3.46,5.833-5.118C602.545,186.956,602.942,189.1,603.293,191.163Zm-12.068,3.7c1.032-1.157,2.125-2.265,3.24-3.353a59.91,59.91,0,0,0-1.2,11.525v0a55.71,55.71,0,0,0-1.962,6.921,28.845,28.845,0,0,1-2.5-11.419.676.676,0,0,0-.21-.476Q589.81,196.455,591.226,194.862Zm-3.777,4.811a30.234,30.234,0,0,0,3.228,12.237.681.681,0,0,0,.214.23,58.026,58.026,0,0,0-.853,9.757,62.934,62.934,0,0,1-7.974-9.055,28.214,28.214,0,0,1,1.022-4.463A33.657,33.657,0,0,1,587.449,199.673Zm-3.469,26.542a20.453,20.453,0,0,1-2.145-11.357,64.337,64.337,0,0,0,8.225,8.988,58.193,58.193,0,0,0,.9,8.595A13.568,13.568,0,0,1,583.98,226.214Zm9.108,6.87a.691.691,0,0,0-.258-.1c-.121-.022-.238-.064-.359-.09a56.785,56.785,0,0,1-1-8.927.682.682,0,0,0-.029-.706.7.7,0,0,0,.351-.105c4.266-2.683,8.668-5.251,13.1-7.662a30.164,30.164,0,0,1-1.126,5.138C601.867,226.571,597.914,231.157,593.088,233.085Z" transform="translate(-535.775 -160.623)" fill="#374b5c"/>
  <g id="Group_59" data-name="Group 59" transform="translate(0 58.919)">
    <g id="Group_58" data-name="Group 58">
      <path id="Path_12144" data-name="Path 12144" d="M521.733,232.97v1.372h1.874v.81h-1.874v1.425h2.1v.847h-3.157V232.13h3.157v.84Z" transform="translate(-520.676 -232.055)" fill="#374b5c"/>
      <path id="Path_12145" data-name="Path 12145" d="M535.144,236.7a1.451,1.451,0,0,1-.6.547,2.072,2.072,0,0,1-.967.207,2.52,2.52,0,0,1-1-.191,1.707,1.707,0,0,1-.708-.551,1.593,1.593,0,0,1-.3-.84h1.125a.858.858,0,0,0,.259.536.808.808,0,0,0,.588.214.686.686,0,0,0,.506-.176.614.614,0,0,0,.176-.454.6.6,0,0,0-.142-.409,1.049,1.049,0,0,0-.359-.258c-.146-.065-.345-.14-.6-.225a5.967,5.967,0,0,1-.81-.326,1.491,1.491,0,0,1-.536-.468,1.344,1.344,0,0,1-.221-.8,1.306,1.306,0,0,1,.491-1.076,2.019,2.019,0,0,1,1.3-.394,2.059,2.059,0,0,1,1.338.4,1.53,1.53,0,0,1,.567,1.079H534.1a.8.8,0,0,0-.241-.468.745.745,0,0,0-.531-.184.705.705,0,0,0-.473.154.626.626,0,0,0-.041.832,1.06,1.06,0,0,0,.353.251,5.545,5.545,0,0,0,.581.217,7.835,7.835,0,0,1,.828.338,1.466,1.466,0,0,1,.543.472,1.392,1.392,0,0,1,.225.825A1.433,1.433,0,0,1,535.144,236.7Z" transform="translate(-523.426 -232.029)" fill="#374b5c"/>
      <path id="Path_12146" data-name="Path 12146" d="M546.97,232.13v.84h-1.461v4.453h-1.057V232.97H543v-.84Z" transform="translate(-526.323 -232.055)" fill="#374b5c"/>
      <path id="Path_12147" data-name="Path 12147" d="M555.709,237.74v1.1h-1.14v-1.1Z" transform="translate(-529.251 -233.474)" fill="#374b5c"/>
    </g>
  </g>
  <g id="Group_61" data-name="Group 61" transform="translate(92.994 58.881)">
    <g id="Group_60" data-name="Group 60">
      <path id="Path_12148" data-name="Path 12148" d="M647.708,233.628a.839.839,0,0,0-.169-.555.652.652,0,0,0-.529-.2q-.742,0-.787,1.012H645.2a1.975,1.975,0,0,1,.569-1.421,1.885,1.885,0,0,1,1.327-.483,1.737,1.737,0,0,1,1.257.424,1.5,1.5,0,0,1,.439,1.129,2.192,2.192,0,0,1-.326,1.113,4.531,4.531,0,0,1-.828,1.027,6.506,6.506,0,0,1-1.057.806h2.317v.862h-3.727v-.787Q647.707,234.791,647.708,233.628Z" transform="translate(-645.166 -231.979)" fill="#374b5c"/>
      <path id="Path_12149" data-name="Path 12149" d="M656.768,234.7q0-2.684,2.024-2.684a1.707,1.707,0,0,1,1.544.72,4.332,4.332,0,0,1,0,3.936,1.708,1.708,0,0,1-1.544.719Q656.768,237.394,656.768,234.7Zm3,0a3.118,3.118,0,0,0-.2-1.248.912.912,0,0,0-1.559,0,4.045,4.045,0,0,0,0,2.5.912.912,0,0,0,1.559,0A3.141,3.141,0,0,0,659.767,234.7Z" transform="translate(-648.101 -231.989)" fill="#374b5c"/>
      <path id="Path_12150" data-name="Path 12150" d="M671.373,233.628a.838.838,0,0,0-.168-.555.652.652,0,0,0-.529-.2q-.742,0-.787,1.012h-1.026a1.975,1.975,0,0,1,.569-1.421,1.886,1.886,0,0,1,1.327-.483,1.737,1.737,0,0,1,1.256.424,1.5,1.5,0,0,1,.439,1.129,2.191,2.191,0,0,1-.326,1.113,4.528,4.528,0,0,1-.829,1.027,6.525,6.525,0,0,1-1.057.806h2.317v.862h-3.727v-.787Q671.373,234.791,671.373,233.628Z" transform="translate(-651.154 -231.979)" fill="#374b5c"/>
      <path id="Path_12151" data-name="Path 12151" d="M680.434,234.7q0-2.684,2.024-2.684a1.708,1.708,0,0,1,1.544.72,4.33,4.33,0,0,1,0,3.936,1.709,1.709,0,0,1-1.544.719Q680.434,237.394,680.434,234.7Zm3,0a3.129,3.129,0,0,0-.2-1.248.913.913,0,0,0-1.56,0,4.058,4.058,0,0,0,0,2.5.913.913,0,0,0,1.56,0A3.152,3.152,0,0,0,683.433,234.7Z" transform="translate(-654.089 -231.989)" fill="#374b5c"/>
    </g>
  </g>
  <g id="Group_63" data-name="Group 63" transform="translate(22.205 98.228)">
    <g id="Group_62" data-name="Group 62">
      <path id="Path_12152" data-name="Path 12152" d="M574.344,289.945h-1.057l-2.37-3.6v3.6h-1.057v-5.293h1.057l2.37,3.629v-3.629h1.057Z" transform="translate(-555.324 -284.652)" fill="#374b5c"/>
      <path id="Path_12153" data-name="Path 12153" d="M586.061,288.9h-2.121l-.375,1.065h-1.117l1.95-5.233H585.6l1.941,5.233h-1.117Zm-.284-.8-.78-2.233-.779,2.233Z" transform="translate(-558.509 -284.672)" fill="#374b5c"/>
      <path id="Path_12154" data-name="Path 12154" d="M599.327,284.652v.84h-1.461v4.454h-1.057v-4.454h-1.454v-.84Z" transform="translate(-561.774 -284.652)" fill="#374b5c"/>
      <path id="Path_12155" data-name="Path 12155" d="M608.287,284.652v3.1a1.379,1.379,0,0,0,.273.934,1,1,0,0,0,.792.311.99.99,0,0,0,.783-.311,1.38,1.38,0,0,0,.274-.934v-3.1h1.05v3.1a2.59,2.59,0,0,1-.274,1.241,1.771,1.771,0,0,1-.758.754,2.382,2.382,0,0,1-1.1.247,2.054,2.054,0,0,1-1.522-.57,2.264,2.264,0,0,1-.569-1.672v-3.1Z" transform="translate(-564.781 -284.652)" fill="#374b5c"/>
      <path id="Path_12156" data-name="Path 12156" d="M622.711,289.945l-1.238-2.062h-.464v2.062h-1.057v-5.293h2.017a1.993,1.993,0,0,1,1.406.45,1.543,1.543,0,0,1,.483,1.185,1.527,1.527,0,0,1-.333,1,1.652,1.652,0,0,1-.964.54l1.319,2.114Zm-1.7-2.789h.87q.906,0,.907-.8a.789.789,0,0,0-.221-.6.956.956,0,0,0-.686-.214h-.87Z" transform="translate(-567.997 -284.652)" fill="#374b5c"/>
      <path id="Path_12157" data-name="Path 12157" d="M633.013,285.492v1.372h1.874v.81h-1.874V289.1h2.1v.847h-3.156v-5.293h3.156v.84Z" transform="translate(-571.034 -284.652)" fill="#374b5c"/>
      <path id="Path_12158" data-name="Path 12158" d="M557.514,317.086v1.965h-1.057v-5.293h1.927a1.986,1.986,0,0,1,1.413.45,1.6,1.6,0,0,1,.476,1.222,1.555,1.555,0,0,1-.492,1.206,1.993,1.993,0,0,1-1.4.45Zm1.687-1.656a.811.811,0,0,0-.217-.608,1,1,0,0,0-.712-.209h-.758v1.626h.758Q559.2,316.239,559.2,315.43Z" transform="translate(-551.933 -292.016)" fill="#374b5c"/>
      <path id="Path_12159" data-name="Path 12159" d="M571.069,319.05l-1.237-2.062h-.465v2.062H568.31v-5.293h2.018a1.988,1.988,0,0,1,1.405.45,1.541,1.541,0,0,1,.483,1.185,1.524,1.524,0,0,1-.333,1,1.642,1.642,0,0,1-.964.54l1.32,2.114Zm-1.7-2.789h.871c.6,0,.907-.267.907-.8a.791.791,0,0,0-.222-.6.953.953,0,0,0-.685-.214h-.871Z" transform="translate(-554.932 -292.016)" fill="#374b5c"/>
      <path id="Path_12160" data-name="Path 12160" d="M584.084,314a2.49,2.49,0,0,1,.953.963,2.983,2.983,0,0,1,0,2.8,2.491,2.491,0,0,1-.953.967,2.8,2.8,0,0,1-2.691,0,2.5,2.5,0,0,1-.952-.967,2.984,2.984,0,0,1,0-2.8,2.5,2.5,0,0,1,.952-.963,2.8,2.8,0,0,1,2.691,0Zm-2.163.84a1.426,1.426,0,0,0-.55.6,2.222,2.222,0,0,0,0,1.837,1.434,1.434,0,0,0,.55.6,1.7,1.7,0,0,0,1.635,0,1.449,1.449,0,0,0,.551-.6,2.223,2.223,0,0,0,0-1.837,1.44,1.44,0,0,0-.551-.6,1.7,1.7,0,0,0-1.635,0Z" transform="translate(-557.913 -291.99)" fill="#374b5c"/>
      <path id="Path_12161" data-name="Path 12161" d="M598.389,317.783a2.292,2.292,0,0,1-.955.933,3.125,3.125,0,0,1-1.489.334h-1.881v-5.293h1.881a3.186,3.186,0,0,1,1.489.326,2.251,2.251,0,0,1,.955.923,3.085,3.085,0,0,1,0,2.777Zm-1.211-.127a1.938,1.938,0,0,0,0-2.527,1.834,1.834,0,0,0-1.324-.45h-.734v3.427h.734A1.834,1.834,0,0,0,597.178,317.656Z" transform="translate(-561.447 -292.016)" fill="#374b5c"/>
      <path id="Path_12162" data-name="Path 12162" d="M608.19,313.757v3.1a1.378,1.378,0,0,0,.273.934,1.151,1.151,0,0,0,1.575,0,1.382,1.382,0,0,0,.273-.934v-3.1h1.049v3.1a2.581,2.581,0,0,1-.273,1.241,1.763,1.763,0,0,1-.758.754,2.372,2.372,0,0,1-1.1.247,2.056,2.056,0,0,1-1.522-.569,2.266,2.266,0,0,1-.569-1.673v-3.1Z" transform="translate(-564.756 -292.016)" fill="#374b5c"/>
      <path id="Path_12163" data-name="Path 12163" d="M623.835,314.2a2.415,2.415,0,0,1,.862,1.387h-1.11a1.451,1.451,0,0,0-.536-.675,1.517,1.517,0,0,0-.874-.247,1.381,1.381,0,0,0-1.282.81,2.315,2.315,0,0,0,0,1.822,1.379,1.379,0,0,0,1.282.809,1.517,1.517,0,0,0,.874-.247,1.447,1.447,0,0,0,.536-.675h1.11a2.413,2.413,0,0,1-.862,1.387,2.855,2.855,0,0,1-2.98.169,2.322,2.322,0,0,1-.9-.956,3.23,3.23,0,0,1,0-2.8,2.327,2.327,0,0,1,.9-.956,2.86,2.86,0,0,1,2.984.168Z" transform="translate(-567.918 -291.998)" fill="#374b5c"/>
      <path id="Path_12164" data-name="Path 12164" d="M636.766,313.757v.84h-1.461v4.453h-1.057V314.6h-1.454v-.84Z" transform="translate(-571.246 -292.016)" fill="#374b5c"/>
      <path id="Path_12165" data-name="Path 12165" d="M648.093,318.324a1.453,1.453,0,0,1-.6.547,2.076,2.076,0,0,1-.967.206,2.5,2.5,0,0,1-1-.191,1.7,1.7,0,0,1-.709-.551,1.6,1.6,0,0,1-.3-.84h1.124a.866.866,0,0,0,.259.536.809.809,0,0,0,.589.214.682.682,0,0,0,.506-.176.612.612,0,0,0,.176-.453.6.6,0,0,0-.141-.409,1.045,1.045,0,0,0-.36-.258c-.146-.065-.345-.14-.6-.225a5.974,5.974,0,0,1-.81-.326,1.5,1.5,0,0,1-.535-.468,1.343,1.343,0,0,1-.221-.8,1.3,1.3,0,0,1,.492-1.076,2.016,2.016,0,0,1,1.3-.394,2.059,2.059,0,0,1,1.338.4,1.529,1.529,0,0,1,.566,1.079h-1.139a.794.794,0,0,0-.24-.468.744.744,0,0,0-.532-.184.7.7,0,0,0-.472.154.623.623,0,0,0-.041.832,1.049,1.049,0,0,0,.352.251,5.723,5.723,0,0,0,.581.217,7.709,7.709,0,0,1,.828.337,1.47,1.47,0,0,1,.544.473,1.4,1.4,0,0,1,.224.825A1.428,1.428,0,0,1,648.093,318.324Z" transform="translate(-574.207 -291.99)" fill="#374b5c"/>
      <path id="Path_12166" data-name="Path 12166" d="M551.459,331.638V333.6H550.4V328.31h1.928a1.985,1.985,0,0,1,1.412.45,1.6,1.6,0,0,1,.476,1.222,1.553,1.553,0,0,1-.492,1.206,1.991,1.991,0,0,1-1.4.45Zm1.687-1.656a.808.808,0,0,0-.218-.608,1.006,1.006,0,0,0-.712-.209h-.757v1.626h.757Q553.145,330.791,553.146,329.982Z" transform="translate(-550.401 -295.698)" fill="#374b5c"/>
      <path id="Path_12167" data-name="Path 12167" d="M565.347,332.558h-2.122l-.375,1.064h-1.117l1.949-5.233h1.207l1.942,5.233h-1.117Zm-.285-.8-.78-2.234-.78,2.234Z" transform="translate(-553.268 -295.718)" fill="#374b5c"/>
      <path id="Path_12168" data-name="Path 12168" d="M579.119,328.749a2.416,2.416,0,0,1,.862,1.387h-1.11a1.449,1.449,0,0,0-.536-.674,1.516,1.516,0,0,0-.874-.247,1.381,1.381,0,0,0-1.282.81,2.315,2.315,0,0,0,0,1.822,1.379,1.379,0,0,0,1.282.809,1.521,1.521,0,0,0,.874-.246,1.451,1.451,0,0,0,.536-.675h1.11a2.414,2.414,0,0,1-.862,1.387,2.855,2.855,0,0,1-2.981.169,2.328,2.328,0,0,1-.9-.956,3.231,3.231,0,0,1,0-2.8,2.339,2.339,0,0,1,.9-.956,2.86,2.86,0,0,1,2.984.168Z" transform="translate(-556.604 -295.68)" fill="#374b5c"/>
      <path id="Path_12169" data-name="Path 12169" d="M590.633,330.911l2.242,2.691h-1.283l-1.956-2.422V333.6h-1.057V328.31h1.057v2.376l1.965-2.376h1.274Z" transform="translate(-560.06 -295.698)" fill="#374b5c"/>
      <path id="Path_12170" data-name="Path 12170" d="M604.025,332.558H601.9l-.375,1.064h-1.117l1.95-5.233h1.207l1.941,5.233h-1.117Zm-.285-.8-.78-2.234-.779,2.234Z" transform="translate(-563.054 -295.718)" fill="#374b5c"/>
      <path id="Path_12171" data-name="Path 12171" d="M617.82,328.716a2.122,2.122,0,0,1,.817,1.285h-1.109a1.263,1.263,0,0,0-.5-.573,1.486,1.486,0,0,0-.806-.214,1.551,1.551,0,0,0-.809.21,1.4,1.4,0,0,0-.547.6,2,2,0,0,0-.2.914,1.8,1.8,0,0,0,.445,1.3,1.611,1.611,0,0,0,1.218.465,1.491,1.491,0,0,0,.979-.338,1.569,1.569,0,0,0,.529-.937h-1.792v-.757h2.676v1.02a2.473,2.473,0,0,1-.438.967,2.349,2.349,0,0,1-.855.709,2.653,2.653,0,0,1-1.211.266,2.72,2.72,0,0,1-1.375-.341,2.354,2.354,0,0,1-.922-.952,3.163,3.163,0,0,1,0-2.8,2.373,2.373,0,0,1,.919-.956,2.672,2.672,0,0,1,1.371-.345A2.6,2.6,0,0,1,617.82,328.716Z" transform="translate(-566.39 -295.68)" fill="#374b5c"/>
      <path id="Path_12172" data-name="Path 12172" d="M628.406,328.31V333.6h-1.057V328.31Z" transform="translate(-569.869 -295.698)" fill="#374b5c"/>
      <path id="Path_12173" data-name="Path 12173" d="M640.353,333.6H639.3l-2.37-3.6v3.6H635.87V328.31h1.057l2.37,3.628V328.31h1.057Z" transform="translate(-572.025 -295.698)" fill="#374b5c"/>
      <path id="Path_12174" data-name="Path 12174" d="M652.977,328.716a2.119,2.119,0,0,1,.817,1.285h-1.109a1.257,1.257,0,0,0-.5-.573,1.487,1.487,0,0,0-.807-.214,1.551,1.551,0,0,0-.809.21,1.413,1.413,0,0,0-.547.6,2.012,2.012,0,0,0-.195.914,1.8,1.8,0,0,0,.445,1.3,1.613,1.613,0,0,0,1.218.465,1.489,1.489,0,0,0,.979-.338,1.568,1.568,0,0,0,.529-.937h-1.792v-.757h2.676v1.02a2.479,2.479,0,0,1-.438.967,2.356,2.356,0,0,1-.855.709,2.651,2.651,0,0,1-1.211.266,2.724,2.724,0,0,1-1.375-.341,2.36,2.36,0,0,1-.923-.952,3.164,3.164,0,0,1,0-2.8,2.38,2.38,0,0,1,.919-.956,2.676,2.676,0,0,1,1.372-.345A2.6,2.6,0,0,1,652.977,328.716Z" transform="translate(-575.285 -295.68)" fill="#374b5c"/>
    </g>
  </g>
  <rect id="Rectangle_21" data-name="Rectangle 21" width="11.341" height="1.406" transform="translate(55.751 111.361)" fill="#374b5c"/>
</svg>
