<svg id="Group_55" data-name="Group 55" xmlns="http://www.w3.org/2000/svg" width="190.772" height="86.891" viewBox="0 0 190.772 86.891">
  <g id="Group_51" data-name="Group 51" transform="translate(15.851 32.518)">
    <g id="Group_50" data-name="Group 50">
      <path id="Path_12109" data-name="Path 12109" d="M1251.273,228.564l.919-.559q.2-1.017-.787-1.018-1.413,0-1.413,2.168a9.87,9.87,0,0,0,.23,1.971,5,5,0,0,1,2.5,4.286,4.9,4.9,0,0,1-1.807,4.057,7.617,7.617,0,0,1-4.894,1.445,14.179,14.179,0,0,1-2.66-.263q-1.445.92-1.445,1.38t2.1.459h3.35q7.456,0,7.456,5.354a5.433,5.433,0,0,1-2.251,4.582q-2.25,1.691-7.012,1.691-8.112,0-8.113-3.514,0-1.906,2.529-2.628l1.97.887a6.75,6.75,0,0,0-.263,1.807q0,2.824,4.2,2.824a6.9,6.9,0,0,0,3.941-.952,2.806,2.806,0,0,0,1.38-2.365,1.98,1.98,0,0,0-.837-1.888,7.69,7.69,0,0,0-3.334-.477h-3.186a6.331,6.331,0,0,1-3.81-.887,2.668,2.668,0,0,1-1.15-2.184,3.035,3.035,0,0,1,.822-2.167,14.918,14.918,0,0,1,2.923-2.152,4.749,4.749,0,0,1-3.81-4.992,4.966,4.966,0,0,1,1.774-3.974,8.033,8.033,0,0,1,5.32-1.511,7.542,7.542,0,0,1,3.646.821,7.513,7.513,0,0,1-.2-1.609,3.278,3.278,0,0,1,.985-2.66,3.355,3.355,0,0,1,2.2-.821,2.879,2.879,0,0,1,1.955.64,2.2,2.2,0,0,1,.739,1.757,2.138,2.138,0,0,1-.592,1.658,2.039,2.039,0,0,1-1.428.542,2.106,2.106,0,0,1-1.379-.443A1.628,1.628,0,0,1,1251.273,228.564Zm-6.964,6.142v1.773a7.89,7.89,0,0,0,.378,2.989,1.22,1.22,0,0,0,1.15.787,1.158,1.158,0,0,0,1.117-.772,9.277,9.277,0,0,0,.345-3.17v-1.609a10.83,10.83,0,0,0-.328-3.367,1.132,1.132,0,0,0-1.1-.8,1.253,1.253,0,0,0-1.166.837A9.16,9.16,0,0,0,1244.309,234.706Z" transform="translate(-1237.445 -225.674)" fill="#374b5c"/>
      <path id="Path_12110" data-name="Path 12110" d="M1276.643,232.638a2.582,2.582,0,0,0-2.135,1.576,7.3,7.3,0,0,0-.919,3.744v8.8h2.332v.591h-10.247v-.591h1.806V232.309h-1.806v-.592h7.915v3.153a4.457,4.457,0,0,1,1.642-2.578,4.506,4.506,0,0,1,2.76-.9,3.617,3.617,0,0,1,2.512.871,3.139,3.139,0,0,1,.969,2.463,3.687,3.687,0,0,1-.722,2.447,2.741,2.741,0,0,1-2.217.854,2.521,2.521,0,0,1-2.2-.985,3.035,3.035,0,0,1-.182-2.726h1.182Q1278.154,232.638,1276.643,232.638Z" transform="translate(-1244.587 -227.12)" fill="#374b5c"/>
      <path id="Path_12111" data-name="Path 12111" d="M1293.952,245.5a8.365,8.365,0,0,1-2.118-6.076,7.467,7.467,0,0,1,2.382-5.961,8.9,8.9,0,0,1,6.059-2.07q7.455,0,7.16,7.489h-9.262v1.281a11.253,11.253,0,0,0,.82,4.861,2.929,2.929,0,0,0,2.859,1.642q3.808,0,4.992-4.073l.591.1a6.787,6.787,0,0,1-2.251,3.678,7.642,7.642,0,0,1-4.876,1.314Q1296.07,247.68,1293.952,245.5Zm4.254-7.275h3.383v-1.609a13.883,13.883,0,0,0-.312-3.63,1.23,1.23,0,0,0-1.248-.969,1.458,1.458,0,0,0-1.379,1.035,9.984,9.984,0,0,0-.444,3.564Z" transform="translate(-1251.205 -227.12)" fill="#374b5c"/>
      <path id="Path_12112" data-name="Path 12112" d="M1321.036,245.5a8.364,8.364,0,0,1-2.119-6.076,7.467,7.467,0,0,1,2.382-5.961,8.9,8.9,0,0,1,6.06-2.07q7.455,0,7.16,7.489h-9.261v1.281a11.234,11.234,0,0,0,.821,4.861,2.925,2.925,0,0,0,2.856,1.642q3.81,0,4.992-4.073l.592.1a6.788,6.788,0,0,1-2.249,3.678,7.647,7.647,0,0,1-4.878,1.314Q1323.155,247.68,1321.036,245.5Zm4.254-7.275h3.382v-1.609a13.87,13.87,0,0,0-.312-3.63,1.23,1.23,0,0,0-1.248-.969,1.457,1.457,0,0,0-1.379,1.035,10,10,0,0,0-.443,3.564Z" transform="translate(-1258.058 -227.12)" fill="#374b5c"/>
      <path id="Path_12113" data-name="Path 12113" d="M1345.87,231.718h7.916v3.022a5.452,5.452,0,0,1,1.609-2.43,4.987,4.987,0,0,1,3.285-.92q5.09,0,5.091,5.485v9.887h1.84v.591h-9.3v-.591h1.347V236.086a7.556,7.556,0,0,0-.264-2.546.956.956,0,0,0-.952-.574q-1.052,0-1.856,1.38a6.535,6.535,0,0,0-.8,3.35v9.066h1.411v.591h-9.328v-.591h1.806V232.309h-1.806Z" transform="translate(-1264.876 -227.12)" fill="#374b5c"/>
      <path id="Path_12114" data-name="Path 12114" d="M1379.6,245.5a8.362,8.362,0,0,1-2.118-6.076,7.467,7.467,0,0,1,2.381-5.961,8.9,8.9,0,0,1,6.06-2.07q7.454,0,7.16,7.489h-9.263v1.281a11.251,11.251,0,0,0,.821,4.861,2.928,2.928,0,0,0,2.858,1.642q3.809,0,4.992-4.073l.591.1a6.79,6.79,0,0,1-2.251,3.678,7.642,7.642,0,0,1-4.877,1.314Q1381.721,247.68,1379.6,245.5Zm4.254-7.275h3.383v-1.609a13.874,13.874,0,0,0-.312-3.63,1.23,1.23,0,0,0-1.248-.969,1.458,1.458,0,0,0-1.379,1.035,9.995,9.995,0,0,0-.443,3.564Z" transform="translate(-1272.875 -227.12)" fill="#374b5c"/>
      <path id="Path_12115" data-name="Path 12115" d="M1415.318,232.638a2.584,2.584,0,0,0-2.135,1.576,7.3,7.3,0,0,0-.919,3.744v8.8h2.331v.591h-10.247v-.591h1.806V232.309h-1.806v-.592h7.915v3.153a4.45,4.45,0,0,1,1.643-2.578,4.5,4.5,0,0,1,2.758-.9,3.617,3.617,0,0,1,2.514.871,3.144,3.144,0,0,1,.969,2.463,3.69,3.69,0,0,1-.723,2.447,2.739,2.739,0,0,1-2.216.854,2.526,2.526,0,0,1-2.2-.985,3.037,3.037,0,0,1-.18-2.726h1.183Q1416.827,232.638,1415.318,232.638Z" transform="translate(-1279.672 -227.12)" fill="#374b5c"/>
      <path id="Path_12116" data-name="Path 12116" d="M1429.6,232.421v-.592h9.525v.592h-1.774l3.58,10.9,3.81-10.9h-2.2v-.592h4.631v.592h-1.643l-6.142,17.7a10.7,10.7,0,0,1-2.431,4.319,4.69,4.69,0,0,1-3.285,1.231,4.782,4.782,0,0,1-3.054-.887,2.769,2.769,0,0,1-1.116-2.266,2.846,2.846,0,0,1,.722-2.1,2.573,2.573,0,0,1,1.905-.722q2.724,0,2.725,2.266a4.4,4.4,0,0,1-.2,1.182h-1.15a1.783,1.783,0,0,0-.066,1.247.847.847,0,0,0,.887.493,3.028,3.028,0,0,0,2.4-1.33,14.317,14.317,0,0,0,2-4.056l.723-2.036h-2.89l-5.616-15.042Z" transform="translate(-1286.035 -227.231)" fill="#374b5c"/>
    </g>
  </g>
  <g id="Group_53" data-name="Group 53" transform="translate(66.259 1.043)">
    <g id="Group_52" data-name="Group 52" transform="translate(17.296)">
      <path id="Path_12117" data-name="Path 12117" d="M1340.023,200.393a.468.468,0,0,1-.388-.732,12.7,12.7,0,0,0,2.183-6.1c.093-.652.191-1.325.352-2.008a16.523,16.523,0,0,1,1.505-4.171c-.765-.111-1.522-.246-2.265-.378-1.22-.217-2.481-.441-3.726-.551-2.163-.189-5.189-.041-7.325,1.729a3.533,3.533,0,0,0-1.346,2.121.474.474,0,0,1-.525.4.468.468,0,0,1-.4-.525,4.44,4.44,0,0,1,1.677-2.721c2.381-1.975,5.665-2.145,8.006-1.941,1.285.112,2.567.341,3.808.561.865.154,1.748.311,2.634.429a8.038,8.038,0,0,1,1.811-1.908,4.439,4.439,0,0,1,4.266-.8,1.734,1.734,0,0,1,1.151,1.507,1.836,1.836,0,0,1-1.122,1.515,8.259,8.259,0,0,1-4.616.776c-.34-.021-.679-.052-1.019-.09a14.946,14.946,0,0,0-1.6,4.255c-.151.643-.241,1.266-.335,1.926a13.526,13.526,0,0,1-2.337,6.491A.467.467,0,0,1,1340.023,200.393Zm5.26-13.759c.159.013.318.026.476.036a7.409,7.409,0,0,0,4.106-.663c.19-.1.632-.38.635-.7,0-.263-.293-.51-.588-.638a3.515,3.515,0,0,0-3.331.689A6.93,6.93,0,0,0,1345.283,186.634Z" transform="translate(-1328.079 -183.539)" fill="#374b5c"/>
      <path id="Path_12118" data-name="Path 12118" d="M1349.372,204.163a1.284,1.284,0,0,1-.752-.229,1.567,1.567,0,0,1-.592-1.273,5.644,5.644,0,0,1,.576-2.35,6.944,6.944,0,0,0,.484-1.5l.005-.037a.948.948,0,0,0-.258.108,13.939,13.939,0,0,0-4.447,4.841.468.468,0,1,1-.809-.472,14.911,14.911,0,0,1,4.779-5.174c.646-.384,1.272-.322,1.555.153a1.065,1.065,0,0,1,.1.724,7.653,7.653,0,0,1-.543,1.714,4.876,4.876,0,0,0-.507,1.963.707.707,0,0,0,.193.541c.159.114.483.059.88-.15s.787-.456,1.17-.7l.19-.119q.556-.347,1.094-.724a3.7,3.7,0,0,1,.8-2.846,2.114,2.114,0,0,1,2.224-.684,1,1,0,0,1,.6.4,1.053,1.053,0,0,1,0,1.079,5.476,5.476,0,0,1-1.689,1.776l-.219.17q-.315.248-.64.487a1.314,1.314,0,0,0,.477.586,1.655,1.655,0,0,0,.841.171,5.513,5.513,0,0,0,3.472-1.187.454.454,0,0,1,.362-.1.467.467,0,0,1,.316.2h0s1.348,1.525,8.748,1.525h10.6a.468.468,0,1,1,0,.937h-10.6c-6.141,0-8.392-1.03-9.162-1.593a6.632,6.632,0,0,1-3.746,1.153,2.576,2.576,0,0,1-1.31-.3,2.14,2.14,0,0,1-.771-.843q-.447.3-.9.59l-.189.119c-.4.253-.813.51-1.232.731A2.387,2.387,0,0,1,1349.372,204.163Zm5.6-5.368a1.247,1.247,0,0,0-.973.457,2.7,2.7,0,0,0-.6,1.561l.233-.182.224-.174a4.735,4.735,0,0,0,1.421-1.448.415.415,0,0,0,.053-.175A1.8,1.8,0,0,0,1354.969,198.8Z" transform="translate(-1331.985 -187.152)" fill="#374b5c"/>
    </g>
    <path id="Path_12119" data-name="Path 12119" d="M1313.464,200.8h-8.069a.468.468,0,1,1,0-.937h8.069c8.62,0,10.757-1.741,10.777-1.758a.5.5,0,0,1,.369-.111.474.474,0,0,1,.328.2c1.364,1.984,2.619,1.439,2.67,1.414,1.308-.4,1.927-1.885,2.227-3.063.265-1.043.43-2.138.59-3.2.154-1.022.313-2.078.564-3.109a9.074,9.074,0,0,1,3.465-5.626.469.469,0,0,1,.518.781,8.388,8.388,0,0,0-3.073,5.067c-.24.99-.4,2.025-.548,3.027-.164,1.082-.332,2.2-.609,3.288-.516,2.025-1.484,3.305-2.8,3.7-.01.011-1.755.839-3.51-1.385C1323.446,199.646,1320.536,200.8,1313.464,200.8Z" transform="translate(-1304.926 -183.791)" fill="#374b5c"/>
  </g>
  <g id="Group_54" data-name="Group 54" transform="translate(45.207 71.34)">
    <path id="Path_12120" data-name="Path 12120" d="M1278.494,284.133l-.646,2.053-1.1-.347,1.741-5.533,2.015.633a2.176,2.176,0,0,1,1.329.935,1.754,1.754,0,0,1,.1,1.434,1.7,1.7,0,0,1-.909,1.1,2.2,2.2,0,0,1-1.61.011Zm2.308-1.178a.878.878,0,0,0-.028-.706,1.1,1.1,0,0,0-.676-.454l-.792-.249-.535,1.7.792.249Q1280.535,283.8,1280.8,282.955Z" transform="translate(-1276.743 -278.318)" fill="#374b5c"/>
    <path id="Path_12121" data-name="Path 12121" d="M1292.948,284.4l-.8,3.307a1.506,1.506,0,0,0,.051,1.064,1.263,1.263,0,0,0,1.678.4,1.513,1.513,0,0,0,.531-.924l.8-3.307,1.118.27-.8,3.307a2.812,2.812,0,0,1-.611,1.251,1.92,1.92,0,0,1-1,.608,2.6,2.6,0,0,1-1.233-.018,2.258,2.258,0,0,1-1.475-1,2.483,2.483,0,0,1-.177-1.927l.8-3.307Z" transform="translate(-1280.331 -279.286)" fill="#374b5c"/>
    <path id="Path_12122" data-name="Path 12122" d="M1308.077,293.486l-.958-2.455-.5-.085-.379,2.228-1.142-.194.972-5.719,2.179.371a2.188,2.188,0,0,1,1.437.745,1.849,1.849,0,0,1-.241,2.393,1.8,1.8,0,0,1-1.141.406l1.037,2.527Zm-1.326-3.326.939.16q.98.167,1.128-.7a.866.866,0,0,0-.129-.685,1.053,1.053,0,0,0-.7-.357l-.94-.159Z" transform="translate(-1283.916 -280.078)" fill="#374b5c"/>
    <path id="Path_12123" data-name="Path 12123" d="M1320.991,290.34l-.156,1.495,2.042.214-.092.882-2.043-.214-.163,1.553,2.288.24-.1.923-3.44-.36.6-5.769,3.442.36-.1.915Z" transform="translate(-1287.517 -280.595)" fill="#374b5c"/>
    <path id="Path_12124" data-name="Path 12124" d="M1347.622,296.449l-1.158.008-2.626-3.924.03,3.944-1.158.008-.043-5.8,1.158-.009,2.626,3.958-.029-3.976,1.159-.009Z" transform="translate(-1293.422 -280.935)" fill="#374b5c"/>
    <path id="Path_12125" data-name="Path 12125" d="M1361.566,294.574l-2.318.181-.32,1.2-1.22.095,1.684-5.883,1.319-.1,2.567,5.552-1.221.1Zm-.379-.852-1.042-2.375-.662,2.508Z" transform="translate(-1297.228 -280.786)" fill="#374b5c"/>
    <path id="Path_12126" data-name="Path 12126" d="M1376.192,288.065l.132.911-1.586.231.7,4.829-1.146.167-.7-4.83-1.578.23-.132-.911Z" transform="translate(-1300.813 -280.281)" fill="#374b5c"/>
    <path id="Path_12127" data-name="Path 12127" d="M1386.554,286.1l.713,3.326a1.508,1.508,0,0,0,.508.937,1.262,1.262,0,0,0,1.687-.362,1.506,1.506,0,0,0,.079-1.063l-.714-3.326,1.125-.241.714,3.326a2.825,2.825,0,0,1-.008,1.392,1.929,1.929,0,0,1-.638.982,2.592,2.592,0,0,1-1.12.518,2.253,2.253,0,0,1-1.762-.26,2.482,2.482,0,0,1-.994-1.661l-.714-3.326Z" transform="translate(-1304.24 -279.6)" fill="#374b5c"/>
    <path id="Path_12128" data-name="Path 12128" d="M1404.141,287.805l-1.927-1.8-.489.14.624,2.172-1.113.32-1.6-5.576,2.124-.61a2.181,2.181,0,0,1,1.617.049,1.851,1.851,0,0,1,.821,2.26,1.8,1.8,0,0,1-.852.86l2.03,1.828Zm-2.636-2.422.916-.264q.955-.275.712-1.119a.868.868,0,0,0-.413-.561,1.05,1.05,0,0,0-.787-.018l-.916.264Z" transform="translate(-1307.834 -278.829)" fill="#374b5c"/>
    <path id="Path_12129" data-name="Path 12129" d="M1414.278,279.288l.508,1.416,1.933-.693.3.834-1.934.693.527,1.47,2.165-.776.315.874-3.256,1.167-1.958-5.461,3.256-1.167.311.866Z" transform="translate(-1311.185 -277.645)" fill="#374b5c"/>
  </g>
  <rect id="Rectangle_20" data-name="Rectangle 20" width="19.257" height="1.874" transform="translate(87.285 65.208)" fill="#374b5c"/>
  <path id="Path_12130" data-name="Path 12130" d="M1281.889,198.7a52.364,52.364,0,0,1-7.888-.837,20.608,20.608,0,0,1-1.016-4.016c-.083-.456-.165-.911-.256-1.362a11.239,11.239,0,0,0-2.641-5.792,1.44,1.44,0,0,0-.985-.488h-.016a1.4,1.4,0,0,0-1.26,1.038,8.653,8.653,0,0,0-.309,4.225,10.4,10.4,0,0,0,1.382,4.264,6.691,6.691,0,0,0,.7.92,22,22,0,0,1-3.488-1.652.693.693,0,0,0-.325-.258,68.4,68.4,0,0,0-2.223-9.758,3.994,3.994,0,0,0-2.044-2.718,1.431,1.431,0,0,0-1.24.023,1.563,1.563,0,0,0-.7,1.2,13.975,13.975,0,0,0,.989,6.735,27.1,27.1,0,0,0-6.214-5.062,4.776,4.776,0,0,0-2.722-.72.7.7,0,0,0-.629.684c-.028,1.311.735,2.535,2.333,3.74a22.275,22.275,0,0,0,7.229,3.257,16.708,16.708,0,0,0,1.951,2.009,14.463,14.463,0,0,0-10.029,1.8.7.7,0,0,0,.058,1.236,8.9,8.9,0,0,0,3.889.781,20.2,20.2,0,0,0,2.534-.184,25.82,25.82,0,0,0,6.433-1.559,22.857,22.857,0,0,0,3.443,1.658,16.352,16.352,0,0,0-4.395,2.284,6.929,6.929,0,0,0-2.726,4.383,1.186,1.186,0,0,0,.494,1.289,1.022,1.022,0,0,0,.541.151,1.61,1.61,0,0,0,.75-.22,36.258,36.258,0,0,0,7.759-6.205l.721-.692c.432.109.863.212,1.293.3.017.005.033.006.051.01a52.327,52.327,0,0,0,8.5.939h.03a.7.7,0,0,0,.028-1.405Zm-27.708-10.952a4.788,4.788,0,0,1-1.625-1.829,5.286,5.286,0,0,1,1.125.483,21.632,21.632,0,0,1,4.557,3.5A17.369,17.369,0,0,1,1254.181,187.752Zm14.957.005.006-.015a10.071,10.071,0,0,1,2.206,5.026c.09.442.17.888.252,1.333.164.9.332,1.828.575,2.737a4.651,4.651,0,0,1-2.084-1.849,9.076,9.076,0,0,1-1.18-3.7A6.989,6.989,0,0,1,1269.138,187.758Zm-8.169-4.054c.008-.053.016-.1.023-.128l0,0c.63.254.978,1.079,1.234,1.854a60.077,60.077,0,0,1,1.943,8.251l-.044-.035C1261.913,191.05,1260.527,186.708,1260.969,183.7Zm-2.179,12.673a13.381,13.381,0,0,1-4.126.018,13.356,13.356,0,0,1,8.13-.781A29.208,29.208,0,0,1,1258.79,196.376Zm4.4,7.947a5.753,5.753,0,0,1,2.126-3.066,14.771,14.771,0,0,1,4.037-2.08q.22-.083.436-.161A34.151,34.151,0,0,1,1263.193,204.324Z" transform="translate(-1225.024 -182.143)" fill="#374b5c"/>
  <path id="Path_12131" data-name="Path 12131" d="M1431.412,195.939a14.459,14.459,0,0,0-10.029-1.8,16.759,16.759,0,0,0,1.951-2.009,22.245,22.245,0,0,0,7.228-3.257c1.6-1.206,2.362-2.429,2.333-3.74a.7.7,0,0,0-.629-.684,4.754,4.754,0,0,0-2.721.72,27.111,27.111,0,0,0-6.215,5.062,13.967,13.967,0,0,0,.989-6.733,1.559,1.559,0,0,0-.7-1.2,1.427,1.427,0,0,0-1.238-.022,3.992,3.992,0,0,0-2.043,2.718,68.525,68.525,0,0,0-2.224,9.757.684.684,0,0,0-.325.258,21.984,21.984,0,0,1-3.488,1.652,6.68,6.68,0,0,0,.7-.92,10.4,10.4,0,0,0,1.381-4.264,8.665,8.665,0,0,0-.308-4.225,1.394,1.394,0,0,0-1.275-1.038,1.439,1.439,0,0,0-.984.487,11.218,11.218,0,0,0-2.642,5.793c-.091.453-.174.908-.256,1.364a20.571,20.571,0,0,1-1.016,4.014,52.366,52.366,0,0,1-7.888.837.7.7,0,0,0,.028,1.405h.03a52.463,52.463,0,0,0,8.5-.939c.015,0,.03,0,.046-.009.431-.09.862-.194,1.294-.3l.719.69a36.3,36.3,0,0,0,7.762,6.208,1.622,1.622,0,0,0,.75.22,1.02,1.02,0,0,0,.54-.151,1.188,1.188,0,0,0,.495-1.287,6.93,6.93,0,0,0-2.726-4.384,16.381,16.381,0,0,0-4.394-2.284,22.893,22.893,0,0,0,3.433-1.651,25.923,25.923,0,0,0,6.444,1.552,20.19,20.19,0,0,0,2.534.185,8.891,8.891,0,0,0,3.887-.781.7.7,0,0,0,.059-1.236Zm-1.2-9.534a5.3,5.3,0,0,1,1.124-.483,4.773,4.773,0,0,1-1.626,1.829,17.352,17.352,0,0,1-4.055,2.151A21.622,21.622,0,0,1,1430.217,186.405Zm-8.547-.975c.255-.775.6-1.6,1.234-1.854h0c.008.032.016.074.023.127.443,3.007-.944,7.352-3.161,9.946l-.042.033A60.241,60.241,0,0,1,1421.67,185.431ZM1412.3,194.1c.081-.446.162-.893.252-1.336a10.074,10.074,0,0,1,2.207-5.026l.006.015a6.989,6.989,0,0,1,.225,3.53,9.065,9.065,0,0,1-1.179,3.7,4.72,4.72,0,0,1-2.082,1.845C1411.966,195.928,1412.132,195.007,1412.3,194.1Zm8.41,10.221a34.231,34.231,0,0,1-6.6-5.309c.145.052.292.106.438.161a14.8,14.8,0,0,1,4.037,2.08A5.754,5.754,0,0,1,1420.705,204.325Zm4.4-7.949a29.2,29.2,0,0,1-4-.764,13.369,13.369,0,0,1,8.129.783A13.44,13.44,0,0,1,1425.109,196.376Z" transform="translate(-1263.058 -182.143)" fill="#374b5c"/>
  <ellipse id="Ellipse_1" data-name="Ellipse 1" cx="3.191" cy="3.191" rx="3.191" ry="3.191" transform="translate(0 41.957)" fill="#374b5c"/>
  <ellipse id="Ellipse_2" data-name="Ellipse 2" cx="3.191" cy="3.191" rx="3.191" ry="3.191" transform="translate(184.391 41.957)" fill="#374b5c"/>
</svg>
