<svg id="Group_210" data-name="Group 210" xmlns="http://www.w3.org/2000/svg" width="108.059" height="148.76" viewBox="0 0 108.059 148.76">
  <g id="Group_35" data-name="Group 35" transform="translate(0 0)">
    <path id="Path_12025" data-name="Path 12025" d="M65.122,203.458a.129.129,0,0,1-.13.055c-.116-.028-.171-.134-.164-.319a1.6,1.6,0,0,0-.093-.678.6.6,0,0,0-.43-.3L59.8,201.1a4.768,4.768,0,0,0-.779-.152.3.3,0,0,0-.258.08,1.368,1.368,0,0,0-.193.5l-.06.24a1.45,1.45,0,0,0,0,.7,1.417,1.417,0,0,0,.3.608,3.484,3.484,0,0,1,.321.41.421.421,0,0,1,.086.328c-.025.1-.1.137-.235.1a.537.537,0,0,1-.256-.134,5.03,5.03,0,0,0-.643-.49A3.294,3.294,0,0,0,57.45,203q-.276-.1-.217-.343c.01-.037.044-.068.105-.1a.855.855,0,0,1,.116-.047,1.725,1.725,0,0,0,.237-.114.892.892,0,0,0,.211-.313,2.392,2.392,0,0,0,.159-.43l1.019-4.1a2,2,0,0,0,.063-.465,1.021,1.021,0,0,0-.04-.329c-.024-.06-.063-.15-.118-.273a.878.878,0,0,1-.079-.17.3.3,0,0,1-.012-.165c.02-.079.093-.1.216-.074a1.89,1.89,0,0,1,.223.079c.122.069.2.116.244.141s.149.074.323.167a2.17,2.17,0,0,0,.5.2l.208.052c.269.066.388.162.358.285a.2.2,0,0,1-.139.14,1.462,1.462,0,0,1-.374.058.991.991,0,0,0-1.029.881l-.141.567a.537.537,0,0,0,0,.337.545.545,0,0,0,.288.24,4.307,4.307,0,0,0,.736.235l4.4,1.091a.594.594,0,0,0,.5-.061,1.655,1.655,0,0,0,.424-.544.908.908,0,0,1,.136-.175.154.154,0,0,1,.147-.033.14.14,0,0,1,.1.1.3.3,0,0,1,0,.175q-.1.4-.247.854-.168.584-.22.791t-.173.791q-.078.456-.179.86A.361.361,0,0,1,65.122,203.458Z" transform="translate(-57.223 -158.599)" fill="#374b5c"/>
    <path id="Path_12026" data-name="Path 12026" d="M69.668,189.2a.13.13,0,0,1-.131,0q-.167-.093-.09-.321a1.1,1.1,0,0,0,.056-.581.7.7,0,0,0-.362-.365l-4.449-2.5a.784.784,0,0,0-.514-.141,1.077,1.077,0,0,0-.472.334c-.114.126-.223.159-.327.1a.14.14,0,0,1-.075-.12.276.276,0,0,1,.038-.159c.136-.242.28-.474.433-.7q.272-.439.372-.616t.362-.687q.278-.54.4-.766c.066-.117.149-.149.247-.094a.181.181,0,0,1,.095.118.457.457,0,0,1-.015.2,1.335,1.335,0,0,0-.048.657.714.714,0,0,0,.36.371l1.764.993c.092.051.167.025.226-.08L69,182.254a.155.155,0,0,0,.026-.114.172.172,0,0,0-.091-.09l-1.764-.993a.723.723,0,0,0-.5-.12,1.276,1.276,0,0,0-.535.377.454.454,0,0,1-.167.125.179.179,0,0,1-.15-.019q-.147-.084-.043-.27.127-.225.444-.743.307-.5.412-.684t.322-.619q.165-.36.368-.722a.256.256,0,0,1,.121-.113.147.147,0,0,1,.137,0c.1.059.134.166.09.322a1.049,1.049,0,0,0-.042.589.792.792,0,0,0,.382.364l4.439,2.5a.737.737,0,0,0,.506.131,1.045,1.045,0,0,0,.465-.344c.1-.123.211-.152.322-.09a.133.133,0,0,1,.065.114.258.258,0,0,1-.033.149c-.122.216-.258.435-.41.66q-.285.459-.394.655t-.361.687q-.192.409-.4.781c-.066.117-.148.149-.246.093a.177.177,0,0,1-.1-.121.5.5,0,0,1,.02-.195,1.407,1.407,0,0,0,.049-.65.633.633,0,0,0-.332-.361l-1.832-1.032c-.111-.063-.189-.055-.233.024l-1.472,2.616c-.052.092-.025.167.079.226l1.832,1.032a.613.613,0,0,0,.495.084,1.508,1.508,0,0,0,.537-.382A.553.553,0,0,1,71.16,186a.179.179,0,0,1,.155.023c.1.055.114.141.049.259q-.2.353-.455.738-.306.5-.411.684-.183.324-.351.693-.245.482-.362.687A.274.274,0,0,1,69.668,189.2Z" transform="translate(-58.761 -154.092)" fill="#374b5c"/>
    <path id="Path_12027" data-name="Path 12027" d="M79.654,174.946a.143.143,0,0,1-.131-.033.2.2,0,0,1-.055-.138.376.376,0,0,1,.056-.2,1.469,1.469,0,0,0,.207-.573.625.625,0,0,0-.243-.444L75.8,170.007a.771.771,0,0,0-.474-.262,1.1,1.1,0,0,0-.561.234c-.146.1-.262.106-.349.022a.144.144,0,0,1-.039-.13.3.3,0,0,1,.089-.165c.2-.2.4-.406.624-.6q.421-.406.585-.576.959-1,1.66-1.774a3.8,3.8,0,0,0,.385-.456c.1-.137.151-.214.167-.23a.362.362,0,0,1,.161-.094.2.2,0,0,1,.188.04q.169.132.524.379a6.951,6.951,0,0,1,.654.5.246.246,0,0,1,.082.142.13.13,0,0,1-.03.112.228.228,0,0,1-.277.029l-.285-.11c-.137-.053-.249-.093-.337-.121a.784.784,0,0,0-.244-.039,1.114,1.114,0,0,0-.813.342l-.584.607a.692.692,0,0,0-.2.4.427.427,0,0,0,.135.379l1.531,1.474a.243.243,0,0,0,.389-.016l.687-.713a.479.479,0,0,0,.159-.4,1.834,1.834,0,0,0-.193-.537c-.071-.131-.071-.235,0-.31a.123.123,0,0,1,.119-.026.265.265,0,0,1,.153.1c.249.282.458.5.625.664q.341.327.68.607l.072.055c.1.093.117.17.061.229a.208.208,0,0,1-.162.055.47.47,0,0,1-.22-.064,1.61,1.61,0,0,0-.541-.2.408.408,0,0,0-.359.131l-.725.753a.239.239,0,0,0-.008.382l1.54,1.481a.518.518,0,0,0,.851-.009l.671-.7a1.351,1.351,0,0,0,.414-.787,2.674,2.674,0,0,0-.2-1.085.238.238,0,0,1,.051-.247.09.09,0,0,1,.1-.019.366.366,0,0,1,.128.085,2.029,2.029,0,0,1,.3.38q.152.24.358.625c.05.1.1.187.14.26a.183.183,0,0,1,.01.143.309.309,0,0,1-.077.137q-.319.333-.624.633-1.662,1.678-1.95,1.978-.258.268-.514.583-.357.4-.522.574A.272.272,0,0,1,79.654,174.946Z" transform="translate(-61.563 -150.984)" fill="#374b5c"/>
    <path id="Path_12028" data-name="Path 12028" d="M101.015,158.841a3.614,3.614,0,0,1-1.832-.63,3.529,3.529,0,0,1-1.248-1.542,3.776,3.776,0,0,1-.293-1.994,3.93,3.93,0,0,1,.795-1.922,4.428,4.428,0,0,1,1.813-1.385,6.972,6.972,0,0,1,1.123-.349,6.166,6.166,0,0,1,1.11-.183.323.323,0,0,1,.314.158,9.63,9.63,0,0,1,.654,1.163.247.247,0,0,1,.021.175.179.179,0,0,1-.107.108.27.27,0,0,1-.2.019.444.444,0,0,1-.173-.115,2.962,2.962,0,0,0-.841-.578,1.882,1.882,0,0,0-.688-.129,2.114,2.114,0,0,0-.837.205,2.2,2.2,0,0,0-1.074.927,2.669,2.669,0,0,0-.347,1.372,3.806,3.806,0,0,0,.333,1.51,4.574,4.574,0,0,0,1.519,2.037,1.853,1.853,0,0,0,1.885.173,1.021,1.021,0,0,0,.355-.241,2.264,2.264,0,0,0,.244-.327.641.641,0,0,0,.053-.342,1.266,1.266,0,0,0-.108-.432c-.087-.239-.2-.524-.347-.854a.387.387,0,0,0-.384-.262,2.755,2.755,0,0,0-.754.071.446.446,0,0,1-.205-.008.2.2,0,0,1-.14-.111.143.143,0,0,1,.025-.14.292.292,0,0,1,.124-.11q.382-.166.828-.323.566-.222.772-.312t.61-.29q.445-.217.651-.308a.209.209,0,0,1,.142-.013.152.152,0,0,1,.1.09.245.245,0,0,1-.112.307.94.94,0,0,0-.309.349.67.67,0,0,0-.008.39,4.264,4.264,0,0,0,.265.8l.143.33q.031.072.224.148a.393.393,0,0,1,.2.171.257.257,0,0,1,.017.164.221.221,0,0,1-.119.137,1.49,1.49,0,0,0-.239.239,6.451,6.451,0,0,1-.813.808,4.643,4.643,0,0,1-1.138.68A4.225,4.225,0,0,1,101.015,158.841Z" transform="translate(-67.442 -147.156)" fill="#374b5c"/>
    <path id="Path_12029" data-name="Path 12029" d="M120.613,153.674a2.766,2.766,0,0,1-.955-.641,12.38,12.38,0,0,1-.877-.919q-.389-.456-.834-1.1a.705.705,0,0,0-.35-.3.751.751,0,0,0-.394-.057c-.081.012-.111.092-.09.24l.306,2.127a.627.627,0,0,0,.255.474,1.585,1.585,0,0,0,.7.161.415.415,0,0,1,.194.046.185.185,0,0,1,.083.141c.016.111-.047.177-.187.2q-.424.061-.918.1-.6.064-.815.094t-.787.136q-.429.1-.83.153a.273.273,0,0,1-.162-.022.13.13,0,0,1-.083-.1c-.019-.126.049-.215.2-.267a1.249,1.249,0,0,0,.556-.324.673.673,0,0,0,.084-.518l-.719-5a.94.94,0,0,0-.209-.544.915.915,0,0,0-.574-.161c-.175,0-.272-.07-.29-.2a.146.146,0,0,1,.05-.127.294.294,0,0,1,.171-.075c.252-.036.536-.062.852-.077.059-.009.153-.016.28-.024s.255-.019.381-.038a5.285,5.285,0,0,0,.584-.128c.38-.093.693-.157.938-.193a3.747,3.747,0,0,1,2.074.162,1.51,1.51,0,0,1,.888,1.242,1.526,1.526,0,0,1-.252,1.161,2.514,2.514,0,0,1-.923.769c-.049.03-.046.075.007.136q.679.765,1.234,1.31a8.793,8.793,0,0,0,1.124.94,1.472,1.472,0,0,0,.741.3,3.977,3.977,0,0,0,.886-.043c.111-.016.177.043.2.176a.549.549,0,0,1-.288.565,2.389,2.389,0,0,1-.949.307A2.611,2.611,0,0,1,120.613,153.674Zm-2.278-3.949a1.633,1.633,0,0,0,.176-1.1q-.222-1.547-1.446-1.371a.364.364,0,0,0-.327.257,2.2,2.2,0,0,0,.017.832q.038.336.215,1.572a.413.413,0,0,0,.152.3.467.467,0,0,0,.331.049A1.16,1.16,0,0,0,118.335,149.724Z" transform="translate(-71.566 -146.102)" fill="#374b5c"/>
    <path id="Path_12030" data-name="Path 12030" d="M132.377,153.226a.148.148,0,0,1-.055-.125.2.2,0,0,1,.076-.128.385.385,0,0,1,.194-.081,1.464,1.464,0,0,0,.58-.188.629.629,0,0,0,.2-.465l.529-5.089a.766.766,0,0,0-.087-.535,1.087,1.087,0,0,0-.528-.3c-.168-.055-.245-.142-.233-.261a.146.146,0,0,1,.08-.111.286.286,0,0,1,.184-.031q.425.044.858.123c.385.055.657.09.813.107q1.376.142,2.42.218a3.977,3.977,0,0,0,.6.022c.167-.01.261-.013.284-.01a.363.363,0,0,1,.174.069.2.2,0,0,1,.084.173q0,.215.023.647a6.818,6.818,0,0,1,0,.826.238.238,0,0,1-.061.152.128.128,0,0,1-.106.046c-.1-.01-.162-.077-.194-.2-.016-.055-.046-.152-.088-.292s-.079-.253-.111-.34a.773.773,0,0,0-.12-.215,1.107,1.107,0,0,0-.769-.43l-.84-.087a.691.691,0,0,0-.439.09.43.43,0,0,0-.217.34l-.22,2.114a.244.244,0,0,0,.252.3l.985.1a.478.478,0,0,0,.414-.121,1.824,1.824,0,0,0,.3-.483c.06-.137.141-.2.246-.189a.122.122,0,0,1,.093.077.272.272,0,0,1,.015.183c-.069.369-.115.67-.139.9q-.049.47-.061.909v.091q-.02.2-.143.188a.21.21,0,0,1-.143-.093.488.488,0,0,1-.085-.213,1.591,1.591,0,0,0-.175-.549.408.408,0,0,0-.323-.2l-1.041-.109c-.186-.019-.288.057-.306.229l-.221,2.125a.517.517,0,0,0,.53.666l.962.1a1.349,1.349,0,0,0,.875-.158,2.658,2.658,0,0,0,.731-.828.24.24,0,0,1,.227-.112.089.089,0,0,1,.077.07.372.372,0,0,1,.013.154,2.042,2.042,0,0,1-.117.468q-.1.267-.273.666c-.048.1-.087.191-.118.27a.189.189,0,0,1-.106.1.322.322,0,0,1-.155.023c-.306-.031-.6-.067-.882-.1q-2.345-.278-2.759-.32c-.246-.026-.5-.041-.775-.047-.359-.022-.617-.041-.774-.058A.272.272,0,0,1,132.377,153.226Z" transform="translate(-76.223 -145.91)" fill="#374b5c"/>
    <path id="Path_12031" data-name="Path 12031" d="M146.6,155.582a.148.148,0,0,1-.025-.134.2.2,0,0,1,.1-.108.378.378,0,0,1,.208-.035,1.457,1.457,0,0,0,.607-.052.627.627,0,0,0,.3-.407l1.67-4.837a.768.768,0,0,0,.038-.54,1.1,1.1,0,0,0-.447-.41q-.226-.138-.168-.308a.147.147,0,0,1,.1-.09.293.293,0,0,1,.187.011q.4.139.807.314.546.212.769.289,1.308.452,2.307.76a3.837,3.837,0,0,0,.576.158c.164.029.257.047.279.055a.367.367,0,0,1,.154.107.2.2,0,0,1,.042.187q-.048.21-.124.636a6.781,6.781,0,0,1-.183.805.249.249,0,0,1-.093.134.131.131,0,0,1-.114.019.228.228,0,0,1-.143-.24l-.02-.3c-.009-.146-.019-.264-.031-.356a.774.774,0,0,0-.066-.238,1.113,1.113,0,0,0-.652-.594l-.8-.276a.693.693,0,0,0-.447-.012.43.43,0,0,0-.288.282l-.693,2.009a.243.243,0,0,0,.178.347l.935.323a.476.476,0,0,0,.431-.024,1.847,1.847,0,0,0,.406-.4q.133-.18.282-.128a.121.121,0,0,1,.073.1.265.265,0,0,1-.026.181q-.226.518-.34.847-.154.446-.265.872l-.019.088c-.043.128-.1.179-.183.152a.21.21,0,0,1-.117-.124.471.471,0,0,1-.035-.226,1.611,1.611,0,0,0-.046-.574.41.41,0,0,0-.269-.272l-.988-.341q-.267-.092-.35.152l-.7,2.02a.518.518,0,0,0,.365.769l.914.316a1.347,1.347,0,0,0,.888.045,2.676,2.676,0,0,0,.9-.641.236.236,0,0,1,.246-.058.09.09,0,0,1,.06.086.377.377,0,0,1-.023.152,2.054,2.054,0,0,1-.22.43q-.155.239-.417.588c-.07.087-.129.166-.178.236a.189.189,0,0,1-.125.07.314.314,0,0,1-.156-.013c-.291-.1-.569-.2-.836-.3q-2.222-.8-2.615-.938-.351-.122-.744-.222-.518-.155-.741-.232A.272.272,0,0,1,146.6,155.582Z" transform="translate(-79.827 -146.604)" fill="#374b5c"/>
    <path id="Path_12032" data-name="Path 12032" d="M165.713,164.914a2.473,2.473,0,0,1-.206-.847q-.249-1.49-.491-3.154l-.507-3.149c-.012-.117-.028-.182-.046-.194-.043-.029-.107.019-.191.143q-.234.331-.607.92t-.548.852q-.694,1.079-.987,1.519a.764.764,0,0,0-.136.6,1.376,1.376,0,0,0,.382.633c.149.154.195.275.137.362a.137.137,0,0,1-.139.057.426.426,0,0,1-.189-.072q-.289-.194-.595-.425-.25-.194-.418-.306-.28-.187-.555-.344c-.183-.1-.3-.171-.34-.2a.4.4,0,0,1-.125-.137.131.131,0,0,1-.012-.143.154.154,0,0,1,.133-.067,1.089,1.089,0,0,1,.241.033.95.95,0,0,0,.989-.448q.537-.643,1.256-1.589t1.4-1.965a1.116,1.116,0,0,0,.228-.808,2.041,2.041,0,0,0-.38-.808c-.142-.167-.183-.294-.125-.381s.181-.1.344.013q.168.112.716.506.993.7,1.067.752a.3.3,0,0,1,.128.234q.09.655.351,2.614.217,1.66.5,3.663c.008.123.031.2.069.221s.105,0,.168-.09l.883-1.3q.68-1.02,1.177-1.824a.564.564,0,0,0,.072-.492,1.673,1.673,0,0,0-.371-.559q-.215-.224-.122-.365a.132.132,0,0,1,.133-.047.42.42,0,0,1,.188.072l.9.616.436.277q.311.182.583.362a.408.408,0,0,1,.143.15.137.137,0,0,1,0,.146c-.062.093-.185.1-.368.025a1.223,1.223,0,0,0-.6-.128.638.638,0,0,0-.407.3q-.281.42-.721,1.04t-.631.884q-.777,1.063-1.239,1.755a8.086,8.086,0,0,0-.524.948l-.2.356c-.187.28-.368.362-.542.247A1.1,1.1,0,0,1,165.713,164.914Z" transform="translate(-83.257 -148.19)" fill="#374b5c"/>
    <path id="Path_12033" data-name="Path 12033" d="M174.223,172.3a.146.146,0,0,1,.043-.129.2.2,0,0,1,.142-.044.386.386,0,0,1,.2.071,1.469,1.469,0,0,0,.555.251.631.631,0,0,0,.462-.209l3.817-3.408a.762.762,0,0,0,.3-.453,1.087,1.087,0,0,0-.19-.576c-.087-.154-.085-.27,0-.35a.145.145,0,0,1,.133-.028.3.3,0,0,1,.157.1c.19.213.374.436.552.669q.372.452.53.628.921,1.032,1.643,1.79a3.78,3.78,0,0,0,.426.418c.129.105.2.167.217.184a.363.363,0,0,1,.082.168.2.2,0,0,1-.054.184c-.1.106-.237.271-.418.494a7.068,7.068,0,0,1-.553.614.253.253,0,0,1-.148.072.132.132,0,0,1-.11-.039.23.23,0,0,1-.007-.279c.023-.052.067-.143.131-.276s.111-.241.146-.326a.778.778,0,0,0,.058-.24,1.111,1.111,0,0,0-.279-.837l-.562-.629a.693.693,0,0,0-.385-.229.425.425,0,0,0-.388.106l-1.586,1.415a.244.244,0,0,0-.014.39l.659.738a.478.478,0,0,0,.388.189,1.862,1.862,0,0,0,.55-.152c.137-.061.239-.053.309.025a.124.124,0,0,1,.016.12.266.266,0,0,1-.111.145c-.3.227-.536.419-.71.574q-.353.314-.657.631l-.06.069c-.1.09-.179.1-.234.043a.208.208,0,0,1-.042-.167.467.467,0,0,1,.079-.214,1.6,1.6,0,0,0,.241-.524.414.414,0,0,0-.1-.368l-.7-.78a.239.239,0,0,0-.38-.037l-1.594,1.423a.518.518,0,0,0-.056.849l.644.722a1.351,1.351,0,0,0,.754.473,2.685,2.685,0,0,0,1.1-.121.24.24,0,0,1,.243.069.09.09,0,0,1,.01.1.37.37,0,0,1-.094.122,2.088,2.088,0,0,1-.4.268c-.167.089-.384.191-.651.309-.1.042-.193.081-.269.12a.191.191,0,0,1-.143,0,.317.317,0,0,1-.131-.087c-.2-.229-.4-.453-.583-.67q-1.547-1.785-1.824-2.095c-.165-.185-.345-.371-.542-.557q-.376-.388-.533-.564A.277.277,0,0,1,174.223,172.3Z" transform="translate(-86.824 -151.352)" fill="#374b5c"/>
    <path id="Path_12034" data-name="Path 12034" d="M185.963,188.96a2.778,2.778,0,0,1,.289-1.114,12.347,12.347,0,0,1,.577-1.131,13.3,13.3,0,0,1,.759-1.15.7.7,0,0,0,.168-.43.743.743,0,0,0-.077-.391c-.037-.073-.123-.075-.256-.005l-1.906.992a.63.63,0,0,0-.362.4,1.562,1.562,0,0,0,.08.713.412.412,0,0,1,.02.2.183.183,0,0,1-.105.125q-.15.078-.249-.111c-.132-.252-.264-.53-.4-.833-.173-.367-.293-.613-.359-.739s-.2-.359-.389-.7q-.232-.374-.419-.732a.268.268,0,0,1-.033-.161.131.131,0,0,1,.069-.112c.112-.059.219-.025.318.1a1.243,1.243,0,0,0,.49.417.671.671,0,0,0,.516-.091l4.478-2.333a.944.944,0,0,0,.444-.376.926.926,0,0,0-.038-.6c-.053-.167-.024-.279.09-.338a.146.146,0,0,1,.137,0,.293.293,0,0,1,.127.137q.177.338.356.778c.027.053.066.139.115.258s.1.234.161.347a5.462,5.462,0,0,0,.315.508q.32.492.492.822a3.74,3.74,0,0,1,.533,2.011,1.511,1.511,0,0,1-.876,1.249,1.53,1.53,0,0,1-1.18.145,2.5,2.5,0,0,1-1.031-.616c-.044-.036-.086-.019-.126.052q-.5.893-.828,1.6a8.776,8.776,0,0,0-.515,1.371,1.471,1.471,0,0,0-.034.8,3.966,3.966,0,0,0,.333.822c.052.1.018.181-.1.243a.548.548,0,0,1-.628-.085,2.383,2.383,0,0,1-.6-.795A2.6,2.6,0,0,1,185.963,188.96Zm2.973-3.456a1.639,1.639,0,0,0,1.1-.2q1.387-.723.816-1.82a.367.367,0,0,0-.352-.223,2.2,2.2,0,0,0-.779.291q-.3.147-1.412.723a.409.409,0,0,0-.235.243.465.465,0,0,0,.063.328A1.161,1.161,0,0,0,188.936,185.5Z" transform="translate(-89.121 -154.674)" fill="#374b5c"/>
    <path id="Path_12035" data-name="Path 12035" d="M190.518,200.481a.15.15,0,0,1,.1-.118c.11-.026.212.064.309.273a.952.952,0,0,0,.429.5.925.925,0,0,0,.615.03l1.508-.367a1.729,1.729,0,0,0,.557-.229,3.326,3.326,0,0,0,.464-.379l1.832-1.938a3.092,3.092,0,0,0,.4-.5,1.044,1.044,0,0,0,.158-.542.971.971,0,0,1,.049-.226.169.169,0,0,1,.127-.095.133.133,0,0,1,.126.039.293.293,0,0,1,.083.153q.11.448.181.882c.016.1.042.237.078.421s.072.345.106.484q.083.338.2.658c.025.071.059.177.1.318s.076.264.1.374a.489.489,0,0,1,.005.213c-.014.069-.043.109-.087.12a.166.166,0,0,1-.164-.059.849.849,0,0,1-.142-.2,1.516,1.516,0,0,0-.264-.4.3.3,0,0,0-.287-.057.848.848,0,0,0-.353.214l-1.66,1.6c-.117.09-.167.172-.149.244s.1.108.246.149q.947.279,2.069.515a.972.972,0,0,0,.48.022.35.35,0,0,0,.262-.249.949.949,0,0,0,.031-.447.692.692,0,0,1,.032-.251.187.187,0,0,1,.126-.146c.044-.011.086.012.126.067a.621.621,0,0,1,.093.215q.05.207.119.584.063.355.109.541c.03.124.059.229.087.314s.054.161.078.224a5.141,5.141,0,0,1,.182.557.554.554,0,0,1,.013.246.144.144,0,0,1-.108.125.136.136,0,0,1-.145-.046,2.64,2.64,0,0,1-.167-.238,1.6,1.6,0,0,0-.975-.769q-.667-.221-.855-.279-.745-.259-1.619-.52a2.543,2.543,0,0,0-.564-.107,1.945,1.945,0,0,0-.571.058l-1.607.391a.885.885,0,0,0-.535.3,1.21,1.21,0,0,0-.145.666,1.157,1.157,0,0,1-.028.262.148.148,0,0,1-.258.057.394.394,0,0,1-.1-.19c-.042-.175-.1-.462-.164-.863q-.029-.167-.066-.366c-.025-.132-.054-.272-.09-.418s-.112-.394-.232-.766-.2-.641-.243-.808A.481.481,0,0,1,190.518,200.481Z" transform="translate(-90.944 -158.809)" fill="#374b5c"/>
  </g>
  <g id="Group_37" data-name="Group 37" transform="translate(1.43 106.187)">
    <g id="Group_36" data-name="Group 36">
      <path id="Path_12036" data-name="Path 12036" d="M59.146,290.4a.131.131,0,0,1,.084-.1q.182-.062.3.146a1.246,1.246,0,0,0,.422.486.676.676,0,0,0,.524-.013l4.767-1.63a.918.918,0,0,0,.489-.309.96.96,0,0,0,.069-.595c-.02-.176.027-.282.14-.321a.145.145,0,0,1,.134.025.291.291,0,0,1,.106.154c.09.263.165.518.226.766.1.332.168.56.211.689s.13.332.249.592a6.372,6.372,0,0,1,.359.84,3.636,3.636,0,0,1,.151,2.248,1.862,1.862,0,0,1-1.241,1.274,2.875,2.875,0,0,1-1.354.141,2.246,2.246,0,0,1-1.191-.561,2.99,2.99,0,0,1-.816-1.308.987.987,0,0,1-.066-.441.239.239,0,0,1,.151-.218.154.154,0,0,1,.143.022.224.224,0,0,1,.092.112,1.22,1.22,0,0,1,.041.206,1.414,1.414,0,0,0,.055.248.774.774,0,0,0,.719.5,3.291,3.291,0,0,0,1.41-.22q1.852-.633,1.436-1.846-.207-.606-.749-.421l-4.952,1.68a.637.637,0,0,0-.42.335,1.525,1.525,0,0,0-.027.722.425.425,0,0,1-.009.2.189.189,0,0,1-.125.108q-.159.055-.228-.148c-.093-.269-.181-.564-.266-.883-.117-.388-.2-.65-.244-.784s-.14-.384-.28-.748q-.174-.4-.3-.788A.272.272,0,0,1,59.146,290.4Z" transform="translate(-59.137 -288.062)" fill="#374b5c"/>
      <path id="Path_12037" data-name="Path 12037" d="M67.559,306.854a2.949,2.949,0,0,1,1.383-1.886l2.677-1.762a1.067,1.067,0,0,0,.4-.442.716.716,0,0,0,.041-.532c-.066-.208-.055-.341.033-.4a.14.14,0,0,1,.15,0,.444.444,0,0,1,.152.149q.21.319.386.648.252.426.371.6t.439.626c.211.293.354.5.433.617.112.17.12.285.026.347a.147.147,0,0,1-.154,0,1.254,1.254,0,0,1-.2-.128,2.331,2.331,0,0,0-.2-.135.6.6,0,0,0-.411-.093,1.242,1.242,0,0,0-.541.221l-2.461,1.62a2.393,2.393,0,0,0-1.109,1.342,1.692,1.692,0,0,0,.251,1.4,1.849,1.849,0,0,0,1.35.936,2.884,2.884,0,0,0,1.82-.6l1.19-.769q.422-.278.6-.411a2.918,2.918,0,0,0,.778-.681.954.954,0,0,0,.134-.634,1.32,1.32,0,0,0-.044-.2.8.8,0,0,1-.034-.206.132.132,0,0,1,.057-.118c.087-.058.193.008.317.2l.355.561q.065.119.22.353c.075.113.17.246.291.4s.229.307.3.419c.108.163.114.276.019.338s-.2.012-.363-.124a.858.858,0,0,0-.571-.251,1.345,1.345,0,0,0-.64.213q-1.213.732-2.557,1.616a3.188,3.188,0,0,1-1.566.545,2.9,2.9,0,0,1-1.524-.309,3.036,3.036,0,0,1-1.167-1.057A3.222,3.222,0,0,1,67.559,306.854Z" transform="translate(-61.256 -291.541)" fill="#374b5c"/>
      <path id="Path_12038" data-name="Path 12038" d="M81.72,324.824a2.8,2.8,0,0,1-.133-1.144,12.4,12.4,0,0,1,.13-1.263c.063-.394.159-.843.292-1.345a.7.7,0,0,0,0-.462.753.753,0,0,0-.214-.337q-.093-.082-.241.087l-1.419,1.613a.629.629,0,0,0-.194.5,1.567,1.567,0,0,0,.332.636.4.4,0,0,1,.09.178.184.184,0,0,1-.053.155c-.074.084-.166.08-.272-.014q-.322-.282-.671-.634-.44-.418-.6-.559c-.107-.094-.312-.264-.614-.51-.235-.176-.453-.353-.656-.531a.285.285,0,0,1-.089-.138.13.13,0,0,1,.024-.128q.125-.143.333-.022a1.237,1.237,0,0,0,.607.211.668.668,0,0,0,.448-.272l3.335-3.791a.948.948,0,0,0,.277-.512.912.912,0,0,0-.249-.542c-.11-.136-.123-.252-.039-.347a.148.148,0,0,1,.129-.045.291.291,0,0,1,.168.081c.191.167.4.367.613.6.045.04.111.106.2.2s.18.181.276.266a5.606,5.606,0,0,0,.477.359q.476.344.755.589a3.742,3.742,0,0,1,1.224,1.682,1.508,1.508,0,0,1-.367,1.481,1.528,1.528,0,0,1-1.047.562,2.522,2.522,0,0,1-1.185-.2c-.055-.018-.087.013-.1.093q-.143,1.013-.2,1.79a8.814,8.814,0,0,0,.013,1.465,1.474,1.474,0,0,0,.256.757,4,4,0,0,0,.607.646c.085.075.082.162-.006.264a.548.548,0,0,1-.616.146,2.372,2.372,0,0,1-.851-.523A2.62,2.62,0,0,1,81.72,324.824Zm1.525-4.3a1.633,1.633,0,0,0,.955-.583q1.032-1.174.1-1.991a.369.369,0,0,0-.409-.081,2.2,2.2,0,0,0-.622.553q-.232.247-1.056,1.184a.411.411,0,0,0-.131.311.469.469,0,0,0,.178.284A1.16,1.16,0,0,0,83.246,320.526Z" transform="translate(-63.759 -295.031)" fill="#374b5c"/>
      <path id="Path_12039" data-name="Path 12039" d="M93,332.711a.144.144,0,0,1-.007-.135.2.2,0,0,1,.117-.093.381.381,0,0,1,.211-.005,1.478,1.478,0,0,0,.609.032.627.627,0,0,0,.354-.362l2.326-4.558a.763.763,0,0,0,.113-.529,1.1,1.1,0,0,0-.386-.469q-.205-.167-.123-.328a.146.146,0,0,1,.114-.074.289.289,0,0,1,.183.037q.381.194.756.424.511.286.722.393,1.231.63,2.179,1.074a3.789,3.789,0,0,0,.549.236c.158.052.248.082.268.093a.374.374,0,0,1,.137.127.2.2,0,0,1,.015.191c-.051.134-.122.338-.211.612a6.77,6.77,0,0,1-.293.772.24.24,0,0,1-.111.12.131.131,0,0,1-.115,0,.229.229,0,0,1-.109-.258c0-.057.012-.158.022-.3s.018-.265.019-.357a.8.8,0,0,0-.034-.244,1.109,1.109,0,0,0-.563-.678l-.75-.384a.7.7,0,0,0-.442-.074.426.426,0,0,0-.324.239l-.967,1.893a.244.244,0,0,0,.128.368l.881.45a.476.476,0,0,0,.429.037,1.836,1.836,0,0,0,.459-.341q.157-.16.3-.088a.126.126,0,0,1,.06.106.27.27,0,0,1-.052.176q-.295.481-.454.791-.214.42-.383.826l-.031.085q-.092.182-.2.124a.208.208,0,0,1-.1-.139.479.479,0,0,1,0-.229,1.626,1.626,0,0,0,.035-.576.411.411,0,0,0-.229-.306l-.932-.476a.239.239,0,0,0-.368.1l-.971,1.9a.517.517,0,0,0,.255.811l.861.439a1.349,1.349,0,0,0,.874.169,2.686,2.686,0,0,0,.98-.51.239.239,0,0,1,.252-.023.091.091,0,0,1,.046.093.355.355,0,0,1-.044.149,2.086,2.086,0,0,1-.277.394q-.185.215-.495.524c-.081.076-.151.146-.208.209a.187.187,0,0,1-.134.052.31.31,0,0,1-.152-.034q-.411-.21-.787-.414-2.088-1.1-2.459-1.292-.331-.169-.706-.323-.491-.225-.7-.332A.269.269,0,0,1,93,332.711Z" transform="translate(-67.698 -297.708)" fill="#374b5c"/>
      <path id="Path_12040" data-name="Path 12040" d="M126.264,342.1a2.467,2.467,0,0,1-.6-.629q-.966-1.164-2.01-2.48l-2.021-2.469c-.069-.095-.115-.143-.137-.144-.053,0-.083.07-.092.22q-.037.4-.064,1.1t-.046,1.011q-.058,1.281-.09,1.808a.762.762,0,0,0,.184.586,1.37,1.37,0,0,0,.648.356q.31.086.3.244a.135.135,0,0,1-.091.118.4.4,0,0,1-.2.033c-.232-.014-.475-.037-.728-.068q-.314-.042-.515-.055c-.224-.013-.442-.019-.653-.018s-.342,0-.394,0a.407.407,0,0,1-.176-.055c-.058-.034-.085-.073-.082-.118a.151.151,0,0,1,.08-.125,1.1,1.1,0,0,1,.226-.093.951.951,0,0,0,.63-.885q.14-.825.288-2t.223-2.4a1.113,1.113,0,0,0-.208-.813,2.044,2.044,0,0,0-.735-.508c-.205-.073-.306-.161-.3-.267s.109-.173.3-.161c.136.008.427.034.875.077q1.21.109,1.3.115a.3.3,0,0,1,.228.138q.408.521,1.617,2.083,1.022,1.326,2.275,2.913.1.152.17.157c.059,0,.093-.05.1-.163l.109-1.57q.075-1.224.1-2.169a.566.566,0,0,0-.185-.462,1.669,1.669,0,0,0-.6-.3c-.2-.057-.3-.142-.289-.255a.134.134,0,0,1,.092-.107.416.416,0,0,1,.2-.033l1.088.079.517.021q.36,0,.685.02a.412.412,0,0,1,.2.058.136.136,0,0,1,.07.128c-.007.112-.109.181-.306.206a1.218,1.218,0,0,0-.58.189.632.632,0,0,0-.2.461q-.031.505-.1,1.261c-.047.5-.08.864-.1,1.082q-.139,1.309-.189,2.14a8.009,8.009,0,0,0,.022,1.083l.008.406q-.031.505-.346.486A1.107,1.107,0,0,1,126.264,342.1Z" transform="translate(-74.407 -299.754)" fill="#374b5c"/>
      <path id="Path_12041" data-name="Path 12041" d="M139.26,341.248a.2.2,0,0,1,.035-.168.5.5,0,0,1,.179-.129,1.381,1.381,0,0,0,.76-.927q.512-2.508.909-5.243c.037-.261.06-.48.07-.657s.015-.275.02-.292a7.775,7.775,0,0,0,.7-.375,1.533,1.533,0,0,0,.459-.5.2.2,0,0,1,.082-.051.088.088,0,0,1,.1.047,1.768,1.768,0,0,1,.172.275q1.212,2.183,3.169,5.578a1.178,1.178,0,0,0,1.075.58.516.516,0,0,1,.217.047.182.182,0,0,1,.1.129.146.146,0,0,1-.035.134.273.273,0,0,1-.151.077l-.841.152c-.342.049-.661.1-.954.164q-.21.044-.8.19-.612.149-.843.2a.367.367,0,0,1-.179,0,.126.126,0,0,1-.1-.1q-.035-.165.217-.286a1.69,1.69,0,0,0,.521-.309.367.367,0,0,0,.112-.35,1.084,1.084,0,0,0-.055-.15l-.363-.751-.276-.552a.255.255,0,0,0-.093-.113.2.2,0,0,0-.14-.011l-1.95.406a.167.167,0,0,0-.111.069.3.3,0,0,0-.037.157q-.109.965-.131,1.3a.761.761,0,0,0,.013.226.435.435,0,0,0,.238.318,1.431,1.431,0,0,0,.6.106q.277,0,.312.176c.022.1-.052.172-.22.206l-.6.114c-.252.037-.456.072-.61.1-.1.021-.218.051-.344.088s-.217.063-.277.075a5.944,5.944,0,0,1-.631.166C139.393,341.4,139.285,341.365,139.26,341.248ZM143,337.3c.11-.022.16-.06.149-.111a.8.8,0,0,0-.045-.105l-1.255-2.334c-.04-.077-.069-.112-.091-.108a.425.425,0,0,0-.052.137l-.353,2.67a.2.2,0,0,0,0,.092c.014.067.087.086.219.058Z" transform="translate(-79.407 -299.407)" fill="#374b5c"/>
      <path id="Path_12042" data-name="Path 12042" d="M157.4,335.4a.131.131,0,0,1-.125-.065c-.052-.108,0-.219.142-.329a1.588,1.588,0,0,0,.465-.5.6.6,0,0,0-.042-.521l-2-4.194a4.872,4.872,0,0,0-.376-.7.3.3,0,0,0-.226-.147,1.35,1.35,0,0,0-.506.166l-.223.106a1.454,1.454,0,0,0-.537.442,1.413,1.413,0,0,0-.278.618,3.578,3.578,0,0,1-.114.509.425.425,0,0,1-.2.275c-.1.045-.171.007-.23-.115a.552.552,0,0,1-.059-.283,5,5,0,0,0-.029-.808,3.279,3.279,0,0,0-.179-.675c-.063-.186-.02-.314.128-.385a.167.167,0,0,1,.141.02c.059.03.1.05.11.06a1.583,1.583,0,0,0,.239.111.883.883,0,0,0,.375-.035,2.406,2.406,0,0,0,.433-.15l3.819-1.817a1.972,1.972,0,0,0,.4-.247,1.021,1.021,0,0,0,.229-.239c.031-.057.077-.144.136-.264a.9.9,0,0,1,.081-.169.29.29,0,0,1,.12-.114c.075-.035.14,0,.194.12a1.97,1.97,0,0,1,.081.223q.037.207.045.278c.013.044.038.162.076.356a2.2,2.2,0,0,0,.164.514l.091.193c.12.251.122.4.007.458a.2.2,0,0,1-.2-.019,1.531,1.531,0,0,1-.282-.252,1.173,1.173,0,0,0-.6-.379,1.186,1.186,0,0,0-.731.141l-.527.251a.423.423,0,0,0-.26.592,4.237,4.237,0,0,0,.285.717l1.947,4.092a.6.6,0,0,0,.365.35,1.667,1.667,0,0,0,.689-.016.852.852,0,0,1,.222-.006.15.15,0,0,1,.118.093.143.143,0,0,1-.007.141.305.305,0,0,1-.133.113q-.375.178-.817.351c-.371.161-.622.271-.75.332s-.377.188-.722.368q-.4.229-.777.407A.373.373,0,0,1,157.4,335.4Z" transform="translate(-82.849 -297.643)" fill="#374b5c"/>
      <path id="Path_12043" data-name="Path 12043" d="M172.215,325.5a2.952,2.952,0,0,1-2.042-1.141l-2.077-2.44a1.075,1.075,0,0,0-.488-.338.717.717,0,0,0-.533.025c-.2.09-.332.1-.4.015a.136.136,0,0,1-.015-.149.425.425,0,0,1,.128-.169q.291-.248.6-.463c.261-.2.446-.35.554-.441s.292-.258.568-.513.451-.413.559-.506c.155-.131.268-.154.341-.068a.146.146,0,0,1,.02.153,1.388,1.388,0,0,1-.1.219,2.191,2.191,0,0,0-.109.219.6.6,0,0,0-.042.419,1.251,1.251,0,0,0,.286.51l1.91,2.243a2.4,2.4,0,0,0,1.468.935,1.689,1.689,0,0,0,1.363-.421,1.851,1.851,0,0,0,.763-1.454,2.878,2.878,0,0,0-.817-1.733l-.911-1.086c-.219-.257-.379-.44-.483-.55a2.919,2.919,0,0,0-.77-.688.95.95,0,0,0-.645-.056,1.5,1.5,0,0,0-.193.068.762.762,0,0,1-.2.061.133.133,0,0,1-.124-.043c-.068-.079-.016-.193.155-.338l.512-.421q.11-.079.324-.261c.1-.088.223-.2.362-.338s.277-.265.379-.353c.148-.126.259-.146.332-.061s.037.2-.079.377a.86.86,0,0,0-.179.6,1.348,1.348,0,0,0,.291.61q.875,1.115,1.918,2.34a3.184,3.184,0,0,1,.734,1.487,2.9,2.9,0,0,1-.12,1.55,3.037,3.037,0,0,1-.905,1.288A3.226,3.226,0,0,1,172.215,325.5Z" transform="translate(-86.337 -295.201)" fill="#374b5c"/>
      <path id="Path_12044" data-name="Path 12044" d="M188.315,309.48a2.791,2.791,0,0,1-1.118.273,12.263,12.263,0,0,1-1.269.026,13.453,13.453,0,0,1-1.372-.124.706.706,0,0,0-.459.055.755.755,0,0,0-.308.252c-.047.069-.007.145.116.229l1.776,1.209a.63.63,0,0,0,.522.131,1.581,1.581,0,0,0,.591-.408.407.407,0,0,1,.164-.112.187.187,0,0,1,.161.034c.093.064.1.154.018.272q-.24.353-.546.743-.361.49-.48.666t-.431.672q-.22.382-.447.716a.285.285,0,0,1-.126.1.132.132,0,0,1-.131-.007c-.105-.072-.126-.181-.063-.329a1.237,1.237,0,0,0,.136-.628.675.675,0,0,0-.325-.412L180.552,310a.934.934,0,0,0-.543-.213.91.91,0,0,0-.506.315c-.122.126-.236.152-.341.081a.147.147,0,0,1-.06-.122.285.285,0,0,1,.06-.177c.143-.211.317-.438.518-.681.034-.05.092-.124.172-.223s.158-.2.23-.306a5.624,5.624,0,0,0,.3-.518c.189-.343.352-.617.492-.822a3.742,3.742,0,0,1,1.519-1.422,1.51,1.51,0,0,1,1.516.182,1.533,1.533,0,0,1,.686.971,2.52,2.52,0,0,1-.056,1.2c-.01.056.024.084.105.085q1.023.017,1.8-.026a8.7,8.7,0,0,0,1.452-.194,1.471,1.471,0,0,0,.719-.347,4,4,0,0,0,.567-.682q.094-.139.261-.025a.548.548,0,0,1,.223.593,2.4,2.4,0,0,1-.415.908A2.615,2.615,0,0,1,188.315,309.48Zm-4.451-.984a1.637,1.637,0,0,0-.7-.876q-1.292-.881-1.989.143a.365.365,0,0,0-.03.415,2.195,2.195,0,0,0,.626.548c.181.134.617.433,1.3.9a.412.412,0,0,0,.325.092.468.468,0,0,0,.26-.211A1.163,1.163,0,0,0,183.863,308.5Z" transform="translate(-89.488 -292.546)" fill="#374b5c"/>
      <path id="Path_12045" data-name="Path 12045" d="M194.811,297.545a.144.144,0,0,1-.133.024.2.2,0,0,1-.107-.1.384.384,0,0,1-.031-.209,1.469,1.469,0,0,0-.043-.608.626.626,0,0,0-.4-.307l-4.812-1.741a.766.766,0,0,0-.539-.046,1.093,1.093,0,0,0-.418.442q-.14.224-.31.163a.146.146,0,0,1-.088-.1.292.292,0,0,1,.013-.186q.146-.4.327-.8c.146-.362.246-.616.3-.764q.471-1.3.794-2.3a3.762,3.762,0,0,0,.166-.574c.032-.164.051-.256.059-.277A.358.358,0,0,1,189.7,290a.2.2,0,0,1,.188-.04c.14.034.35.079.633.134a7.16,7.16,0,0,1,.8.194.249.249,0,0,1,.132.1.131.131,0,0,1,.019.114.229.229,0,0,1-.242.14l-.3.016c-.146.007-.265.016-.357.026a.739.739,0,0,0-.238.063,1.107,1.107,0,0,0-.6.642l-.288.793a.7.7,0,0,0-.019.447.431.431,0,0,0,.278.292l2,.723a.244.244,0,0,0,.35-.173l.337-.931a.48.48,0,0,0-.018-.431,1.851,1.851,0,0,0-.394-.412c-.12-.09-.161-.185-.125-.284a.125.125,0,0,1,.1-.072.272.272,0,0,1,.18.03q.514.233.841.353.445.16.869.278l.089.019q.189.069.148.186a.212.212,0,0,1-.126.116.459.459,0,0,1-.226.031,1.619,1.619,0,0,0-.576.037.412.412,0,0,0-.276.266l-.356.983a.239.239,0,0,0,.147.353l2.009.727a.518.518,0,0,0,.774-.354l.329-.909a1.348,1.348,0,0,0,.058-.888,2.677,2.677,0,0,0-.628-.909.24.24,0,0,1-.054-.246.091.091,0,0,1,.087-.058.356.356,0,0,1,.152.025,2.017,2.017,0,0,1,.427.226c.158.1.351.247.582.425q.129.106.233.181a.181.181,0,0,1,.068.126.307.307,0,0,1-.015.156c-.1.289-.208.565-.312.831q-.837,2.21-.978,2.6c-.084.233-.161.48-.232.741-.109.344-.189.589-.243.737A.266.266,0,0,1,194.811,297.545Z" transform="translate(-91.719 -288.54)" fill="#374b5c"/>
    </g>
  </g>
  <rect id="Rectangle_18" data-name="Rectangle 18" width="1.874" height="16.873" transform="translate(2.212 67.067)" fill="#374b5c"/>
  <rect id="Rectangle_19" data-name="Rectangle 19" width="1.874" height="16.873" transform="translate(103.422 67.067)" fill="#374b5c"/>
  <g id="Group_38" data-name="Group 38" transform="translate(28.856 35.07)">
    <path id="Path_12046" data-name="Path 12046" d="M102.985,265.588a2.212,2.212,0,0,0-1.648-.828,5.079,5.079,0,0,0-1.484.176.662.662,0,0,0-.143.049.679.679,0,0,0-.3.045,3.362,3.362,0,0,0-2.087,2.742,2.792,2.792,0,0,0,.391,1.768,2.9,2.9,0,0,0,.929.892,3.612,3.612,0,0,0,1.906.551,3.274,3.274,0,0,0,1.071-.177,3.041,3.041,0,0,0,2.009-2.331,4.415,4.415,0,0,0-.238-2.01A2.752,2.752,0,0,0,102.985,265.588Zm-.747,2.662a1.641,1.641,0,0,1-1.082,1.229,2.13,2.13,0,0,1-1.772-.238,1.52,1.52,0,0,1-.488-.454,1.38,1.38,0,0,1-.178-.875,1.949,1.949,0,0,1,1.194-1.569l.043-.019a.74.74,0,0,0,.2-.015,4.029,4.029,0,0,1,1.082-.145.848.848,0,0,1,.615.265,1.6,1.6,0,0,1,.185.447A3.2,3.2,0,0,1,102.238,268.25Z" transform="translate(-96.219 -211.048)" fill="#374b5c"/>
    <path id="Path_12047" data-name="Path 12047" d="M113.317,255.54a3.528,3.528,0,0,0,1.862.539,3.211,3.211,0,0,0,1.047-.173,2.975,2.975,0,0,0,1.966-2.281,4.319,4.319,0,0,0-.232-1.963,2.66,2.66,0,0,0-.394-.858,2.167,2.167,0,0,0-1.616-.814,5.175,5.175,0,0,0-1.448.171,1.295,1.295,0,0,1-.438.093,3.286,3.286,0,0,0-2.04,2.682,2.733,2.733,0,0,0,.383,1.732A2.84,2.84,0,0,0,113.317,255.54Zm1.255-3.974.039-.016a.743.743,0,0,0,.2-.016,3.7,3.7,0,0,1,1.048-.14.809.809,0,0,1,.583.25,1.561,1.561,0,0,1,.177.428,3.034,3.034,0,0,1,.188,1.327,1.574,1.574,0,0,1-1.038,1.178,2.045,2.045,0,0,1-1.705-.229,1.455,1.455,0,0,1-.468-.436,1.322,1.322,0,0,1-.17-.837A1.873,1.873,0,0,1,114.572,251.566Z" transform="translate(-99.94 -207.312)" fill="#374b5c"/>
    <path id="Path_12048" data-name="Path 12048" d="M115.932,274.34a2.525,2.525,0,0,0-1.882-.941,6.164,6.164,0,0,0-1.747.209.715.715,0,0,0-.178.066.7.7,0,0,0-.341.041,3.9,3.9,0,0,0-2.425,3.186,3.221,3.221,0,0,0,.45,2.041,3.355,3.355,0,0,0,1.074,1.029,4.208,4.208,0,0,0,2.22.643,3.8,3.8,0,0,0,1.244-.206,3.516,3.516,0,0,0,2.328-2.7,5.2,5.2,0,0,0-.282-2.359A3.179,3.179,0,0,0,115.932,274.34Zm-.642,3.146a2.128,2.128,0,0,1-1.4,1.595,2.707,2.707,0,0,1-2.26-.3,1.978,1.978,0,0,1-.634-.592,1.817,1.817,0,0,1-.236-1.147,2.5,2.5,0,0,1,1.531-2.012.625.625,0,0,0,.078-.036.7.7,0,0,0,.242-.011,4.88,4.88,0,0,1,1.345-.179,1.155,1.155,0,0,1,.849.379,2.008,2.008,0,0,1,.246.583A3.885,3.885,0,0,1,115.29,277.485Z" transform="translate(-99.265 -213.234)" fill="#374b5c"/>
    <path id="Path_12049" data-name="Path 12049" d="M98.57,258.57a2.749,2.749,0,0,0,.9-.149,2.559,2.559,0,0,0,1.691-1.964,3.635,3.635,0,0,0-.193-1.663,2.311,2.311,0,0,0-.342-.741,1.9,1.9,0,0,0-1.415-.715,4.228,4.228,0,0,0-1.22.142,1.474,1.474,0,0,1-.376.081,2.815,2.815,0,0,0-1.749,2.3,2.353,2.353,0,0,0,.332,1.5,2.461,2.461,0,0,0,.783.754A3.023,3.023,0,0,0,98.57,258.57Zm-.45-3.7.008,0a.766.766,0,0,0,.168-.017,2.941,2.941,0,0,1,.818-.112.548.548,0,0,1,.383.153,1.291,1.291,0,0,1,.124.311,2.418,2.418,0,0,1,.15,1.026,1.171,1.171,0,0,1-.764.862,1.543,1.543,0,0,1-1.283-.175,1.074,1.074,0,0,1-.342-.317.969.969,0,0,1-.12-.6A1.4,1.4,0,0,1,98.121,254.874Z" transform="translate(-95.852 -208.159)" fill="#374b5c"/>
    <path id="Path_12050" data-name="Path 12050" d="M150.519,220.405a36.954,36.954,0,0,0,1.114-4.659.7.7,0,0,0-.861-.8,32.627,32.627,0,0,0-3.927,1.259.69.69,0,0,0-.229.085c-10.458,4.106-19.6,13.569-23.588,24.614a74.221,74.221,0,0,0-3.315-19.578,21.209,21.209,0,0,0,6.693-12.025,26.563,26.563,0,0,0-1.373-14.149c-.23-.617-.48-1.227-.739-1.859,0-.01-.014-.016-.019-.026a.693.693,0,0,0-.17-.235c-.007-.007-.017-.01-.025-.016a.688.688,0,0,0-.234-.12c-.013,0-.022-.016-.036-.019s-.031,0-.047,0a.8.8,0,0,0-.084-.019.674.674,0,0,0-.128.018.69.69,0,0,0-.1.013.748.748,0,0,0-.231.117c-.01.008-.025.009-.034.018-2.6,2.2-4.251,5.541-5.211,10.516-1.153,5.976-1.927,11.44.265,17.773v0c.667,2.125,1.222,4.231,1.69,6.34a60.871,60.871,0,0,0-2.96-5.473,31.879,31.879,0,0,0-7.687-9.03,17.164,17.164,0,0,0-10.8-3.766c-.016,0-.034,0-.05,0a.688.688,0,0,0-.124,0c-.108,0-.217,0-.323,0a.7.7,0,0,0-.648.595c-.393,2.552.921,4.994,2.258,7.047a67.3,67.3,0,0,0,6.678,8.623c3.477,3.8,9.517,7.926,14.753,8.227a77.471,77.471,0,0,1,.651,10.239c0,2.554-.132,5.179-.256,7.717-.1,2.107-.206,4.237-.242,6.37a22.856,22.856,0,0,0-3.669-5.9,28.755,28.755,0,0,0-9.383-7.049.7.7,0,1,0-.613,1.265,27.363,27.363,0,0,1,8.93,6.7,20.5,20.5,0,0,1,4.844,10.565,37.96,37.96,0,0,0,1.507,8.759.7.7,0,0,0,1.343-.412,36.634,36.634,0,0,1-1.446-8.455.052.052,0,0,1,0-.01l0-.016a105.338,105.338,0,0,1,.135-11.747c.119-2.437.236-4.95.25-7.422a5.059,5.059,0,0,0,2.656.688,10.962,10.962,0,0,0,4.63-1.226,39.059,39.059,0,0,0,20.151-23.538Zm-1.333-.449c-9.755,13.941-18.04,19.211-22.39,21.162,5.447-4.747,16.147-14.43,22.867-22.844C149.52,218.84,149.357,219.4,149.186,219.956Zm-22.96,19.793c4.082-5.52,12.5-16.121,21.046-22.216.551-.214,1.1-.421,1.662-.6C142.452,225.19,131.84,234.842,126.226,239.75Zm15.226-19.315a127.573,127.573,0,0,0-15.692,17.59A42.066,42.066,0,0,1,141.452,220.434Zm-16.426-11.393a20.337,20.337,0,0,1-4.091,8.98,56.668,56.668,0,0,0,3.705-19.36A24.407,24.407,0,0,1,125.026,209.041Zm-5.038,7.481a162.609,162.609,0,0,1,3.228-18.261A55.593,55.593,0,0,1,119.988,216.522Zm-.627-12.716a19.635,19.635,0,0,1,2.918-7.687,168.308,168.308,0,0,0-3.728,20.646C117.864,212.369,118.506,208.237,119.36,203.806Zm-3.582,19.113c.713,1.166,1.375,2.366,2.008,3.582-3.9-4.864-9.934-11.595-16.068-15.417a17.036,17.036,0,0,1,6.719,3.187A30.534,30.534,0,0,1,115.779,222.919Zm3.509,7.833c-6.714-4.106-14.767-13.864-18.4-18.523C108.4,216.888,115.991,226.351,119.287,230.752Zm-11.972-6.041a65.772,65.772,0,0,1-6.538-8.442,12.04,12.04,0,0,1-2.027-4.5c2.969,3.925,12.282,15.74,20.1,20.362C114.6,231.033,110.1,227.762,107.315,224.711Zm22.443,17.974c-1.374.658-3.716,1.513-5.473.828,2.323-.535,11.317-3.494,22.934-18.514A37.538,37.538,0,0,1,129.758,242.685Z" transform="translate(-96.211 -192.859)" fill="#374b5c"/>
  </g>
</svg>
