<svg xmlns="http://www.w3.org/2000/svg" width="59.161" height="48.09" viewBox="0 0 59.161 48.09">
  <g id="Group_114" data-name="Group 114" transform="translate(-165.451 -111.58)">
    <g id="Group_111" data-name="Group 111" transform="translate(165.451 112.715)">
      <g id="Group_110" data-name="Group 110">
        <path id="Path_12490" data-name="Path 12490" d="M196.931,138.215a32.912,32.912,0,0,0-11.349-16.185c-5.707-4.474-12.322-6.425-18.954-9.039-1.141,10.243-2.8,23.248,2.486,32.66a28.82,28.82,0,0,0,13.86,12.338,27.4,27.4,0,0,0,6.547,1.858,9.2,9.2,0,0,0,1.157.1A77.188,77.188,0,0,0,176.453,131.5a1.349,1.349,0,0,1,2.111-1.681,79.9,79.9,0,0,1,14.794,29.707,6.587,6.587,0,0,0,2.7-1.891C200.941,151.992,196.973,138.354,196.931,138.215Z" transform="translate(-165.451 -112.991)" fill="#00dbd0"/>
      </g>
    </g>
    <g id="Group_113" data-name="Group 113" transform="translate(200.789 111.58)">
      <g id="Group_112" data-name="Group 112">
        <path id="Path_12491" data-name="Path 12491" d="M233.04,111.58s-4.908,2.073-5.337,2.263c-6.118,2.7-13.645,6.264-16.344,12.649a28.624,28.624,0,0,0-1.684,14.866c.02.162.039.329.06.5.224,1.917.529,4.541,2.754,5.876.079.047.163.094.252.139a34.235,34.235,0,0,1,8.606-20.653,1.446,1.446,0,0,1,1.982-.146,1.312,1.312,0,0,1,.152,1.9,31.559,31.559,0,0,0-7.952,19.394,7.193,7.193,0,0,0,1.664-.369,24.04,24.04,0,0,0,8.928-5.772c.36-.349.712-.713,1.049-1.083C234.755,132.832,233.04,111.58,233.04,111.58Z" transform="translate(-209.383 -111.58)" fill="#00dbd0"/>
      </g>
    </g>
  </g>
</svg>
