<svg id="Group_99" data-name="Group 99" xmlns="http://www.w3.org/2000/svg" width="30.615" height="30.615" viewBox="0 0 30.615 30.615">
  <path id="Path_12239" data-name="Path 12239" d="M912.228,638.989c-.128.021-.256.04-.384.057.128-.017.257-.037.384-.057Zm0,0" transform="translate(-894.452 -608.573)" fill="#fff"/>
  <path id="Path_12240" data-name="Path 12240" d="M913.328,638.855l-.183.032.183-.032Zm0,0" transform="translate(-895.246 -608.491)" fill="#fff"/>
  <path id="Path_12241" data-name="Path 12241" d="M910.263,639.245c-.149.017-.3.032-.45.044.151-.012.3-.027.45-.044Zm0,0" transform="translate(-893.213 -608.729)" fill="#fff"/>
  <path id="Path_12242" data-name="Path 12242" d="M911.384,639.153l-.216.027.216-.027Zm0,0" transform="translate(-894.04 -608.673)" fill="#fff"/>
  <path id="Path_12243" data-name="Path 12243" d="M914.43,638.643l-.161.034.161-.034Zm0,0" transform="translate(-895.931 -608.362)" fill="#fff"/>
  <path id="Path_12244" data-name="Path 12244" d="M917.13,637.984l-.13.036.13-.036Zm0,0" transform="translate(-897.597 -607.96)" fill="#fff"/>
  <path id="Path_12245" data-name="Path 12245" d="M916.31,638.2l-.142.037.142-.037Zm0,0" transform="translate(-897.09 -608.094)" fill="#fff"/>
  <path id="Path_12246" data-name="Path 12246" d="M915.247,638.466l-.151.034.151-.034Zm0,0" transform="translate(-896.436 -608.254)" fill="#fff"/>
  <path id="Path_12247" data-name="Path 12247" d="M909.422,639.36l-.242.018.242-.018Zm0,0" transform="translate(-892.827 -608.799)" fill="#fff"/>
  <path id="Path_12248" data-name="Path 12248" d="M897.865,576.308a15.308,15.308,0,1,0-15.308,15.308c.09,0,.179,0,.269,0V579.7h-3.289v-3.833h3.289v-2.82c0-3.271,2-5.051,4.914-5.051a26.966,26.966,0,0,1,2.949.151v3.418h-2.012c-1.588,0-1.9.755-1.9,1.862v2.441h3.8l-.495,3.833h-3.3v11.328a15.316,15.316,0,0,0,11.082-14.716Zm0,0" transform="translate(-867.25 -561)" fill="#fff"/>
  <path id="Path_12249" data-name="Path 12249" d="M908.343,639.413q-.239.015-.48.024.241-.008.48-.024Zm0,0" transform="translate(-892.024 -608.832)" fill="#fff"/>
  <path id="Path_12250" data-name="Path 12250" d="M907.445,639.475l-.254.006.254-.006Zm0,0" transform="translate(-891.614 -608.87)" fill="#fff"/>
</svg>
