<svg xmlns="http://www.w3.org/2000/svg" width="395" height="386" viewBox="0 0 395 386">
  <rect id="Rectangle_43" data-name="Rectangle 43" width="395" height="386" fill="#fff"/>
  <g id="Rectangle_44" data-name="Rectangle 44" transform="translate(23 23)" fill="none" stroke="#00dbd0" stroke-width="3">
    <rect width="350" height="340" stroke="none"/>
    <rect x="1.5" y="1.5" width="347" height="337" fill="none"/>
  </g>
  <g id="Group_228" data-name="Group 228" transform="translate(-764 -337)">
    <g id="Group_227" data-name="Group 227" transform="translate(853 424.459)">
      <path id="Path_36514" data-name="Path 36514" d="M284.477,107.87a31.019,31.019,0,0,0,17.62,8.786V99.9a13.483,13.483,0,1,1,8.883,0v16.754A31.157,31.157,0,0,0,328.6,63.747L306.539,41.685,284.477,63.747A31.2,31.2,0,0,0,284.477,107.87Z" transform="translate(-197.359 -29.879)" fill="#00dbd0"/>
      <path id="Path_36515" data-name="Path 36515" d="M487.429,306.217a13.442,13.442,0,0,1-12.673-9.041H458A31.157,31.157,0,0,0,510.911,314.8l22.061-22.062-22.061-22.062A31.157,31.157,0,0,0,458,288.294h16.754a13.459,13.459,0,1,1,12.673,17.924Z" transform="translate(-328.289 -187.465)" fill="#00dbd0"/>
      <path id="Path_36516" data-name="Path 36516" d="M527.987,126.48a18.793,18.793,0,1,0,37.585,0V107.688H546.779A18.792,18.792,0,0,0,527.987,126.48Z" transform="translate(-378.453 -77.189)" fill="#00dbd0"/>
      <path id="Path_36517" data-name="Path 36517" d="M689.364,228.688l8.593-8.593-8.593-8.593a12.152,12.152,0,1,0,0,17.186Z" transform="translate(-479.256 -149.051)" fill="#00dbd0"/>
      <path id="Path_36518" data-name="Path 36518" d="M497.2,25.779a12.152,12.152,0,0,0,0-17.186L488.61,0l-8.593,8.593A12.152,12.152,0,0,0,497.2,25.779Z" transform="translate(-341.517)" fill="#00dbd0"/>
      <path id="Path_36519" data-name="Path 36519" d="M95.037,279.253a13.442,13.442,0,0,1,12.674,9.041h16.754a31.157,31.157,0,0,0-52.909-17.62L49.493,292.735,71.555,314.8a31.157,31.157,0,0,0,52.909-17.621H107.71a13.459,13.459,0,1,1-12.674-17.924Z" transform="translate(-35.476 -187.465)" fill="#00dbd0"/>
      <path id="Path_36520" data-name="Path 36520" d="M130.306,145.273a18.793,18.793,0,0,0,0-37.585H111.514V126.48A18.793,18.793,0,0,0,130.306,145.273Z" transform="translate(-79.932 -77.189)" fill="#00dbd0"/>
      <path id="Path_36521" data-name="Path 36521" d="M25.779,228.688A12.152,12.152,0,0,0,8.593,211.5L0,220.1l8.593,8.593A12.152,12.152,0,0,0,25.779,228.688Z" transform="translate(0 -149.051)" fill="#00dbd0"/>
      <path id="Path_36522" data-name="Path 36522" d="M230.68,25.779a12.152,12.152,0,0,0,0-17.186L222.087,0l-8.593,8.593A12.152,12.152,0,0,0,230.68,25.779Z" transform="translate(-150.478)" fill="#00dbd0"/>
      <path id="Path_36523" data-name="Path 36523" d="M328.6,445.783A31.017,31.017,0,0,0,310.98,437v16.754a13.483,13.483,0,1,1-8.883,0V437a31.157,31.157,0,0,0-17.62,52.909l22.062,22.062L328.6,489.906A31.2,31.2,0,0,0,328.6,445.783Z" transform="translate(-197.359 -313.233)" fill="#00dbd0"/>
      <path id="Path_36524" data-name="Path 36524" d="M546.779,503a18.793,18.793,0,0,0,0,37.585h18.793V521.793A18.793,18.793,0,0,0,546.779,503Z" transform="translate(-378.453 -360.543)" fill="#00dbd0"/>
      <path id="Path_36525" data-name="Path 36525" d="M672.178,453.2a12.152,12.152,0,0,0,17.186,17.186l8.593-8.593-8.593-8.593A12.152,12.152,0,0,0,672.178,453.2Z" transform="translate(-479.256 -322.293)" fill="#00dbd0"/>
      <path id="Path_36526" data-name="Path 36526" d="M480.016,643.367a12.152,12.152,0,0,0,0,17.186l8.593,8.593,8.593-8.593a12.152,12.152,0,0,0-17.186-17.186Z" transform="translate(-341.517 -458.605)" fill="#00dbd0"/>
      <path id="Path_36527" data-name="Path 36527" d="M149.1,521.793a18.792,18.792,0,1,0-37.585,0v18.792h18.792A18.793,18.793,0,0,0,149.1,521.793Z" transform="translate(-79.932 -360.543)" fill="#00dbd0"/>
      <path id="Path_36528" data-name="Path 36528" d="M8.593,453.2,0,461.79l8.593,8.593a12.152,12.152,0,1,0,0-17.186Z" transform="translate(0 -322.293)" fill="#00dbd0"/>
      <path id="Path_36529" data-name="Path 36529" d="M213.494,643.367a12.152,12.152,0,0,0,0,17.186l8.593,8.593,8.593-8.593a12.152,12.152,0,0,0-17.186-17.186Z" transform="translate(-150.478 -458.605)" fill="#00dbd0"/>
    </g>
  </g>
</svg>
