<svg xmlns="http://www.w3.org/2000/svg" width="59.987" height="49.989" viewBox="0 0 59.987 49.989">
  <g id="Group_86" data-name="Group 86" transform="translate(703.987 401.989) rotate(180)">
    <path id="Path_12234" data-name="Path 12234" d="M663.066,374.544a15.841,15.841,0,0,0-4.363-.634,13.71,13.71,0,0,0-5.468,1.119c1.373-5.034,4.677-13.717,11.255-14.694a1.565,1.565,0,0,0,1.275-1.126l1.437-5.141a1.56,1.56,0,0,0-1.293-1.968,10.761,10.761,0,0,0-1.471-.1c-7.9,0-15.716,8.241-19.015,20.042-1.937,6.923-2.5,17.334,2.264,23.884,2.673,3.668,6.566,5.623,11.579,5.821h.061a13.859,13.859,0,0,0,3.738-27.2Zm0,0" transform="translate(0 0)" fill="rgba(0,219,208,0.27)"/>
    <path id="Path_12235" data-name="Path 12235" d="M710.3,381.089a13.914,13.914,0,0,0-8.333-6.545,15.835,15.835,0,0,0-4.36-.634,13.722,13.722,0,0,0-5.471,1.119c1.375-5.034,4.677-13.717,11.255-14.694a1.562,1.562,0,0,0,1.275-1.126l1.436-5.141a1.56,1.56,0,0,0-1.29-1.968,10.76,10.76,0,0,0-1.471-.1c-7.9,0-15.716,8.241-19.017,20.042-1.938,6.923-2.505,17.334,2.267,23.884,2.67,3.668,6.566,5.626,11.579,5.821h.061A13.86,13.86,0,0,0,710.3,381.089Zm0,0" transform="translate(-8.516 0)" fill="rgba(0,219,208,0.27)"/>
    <rect id="Rectangle_26" data-name="Rectangle 26" width="59.987" height="49.989" transform="translate(644 352)" fill="none"/>
  </g>
</svg>
