<svg id="Group_104" data-name="Group 104" xmlns="http://www.w3.org/2000/svg" width="30.612" height="30.612" viewBox="0 0 30.612 30.612">
  <path id="Path_12252" data-name="Path 12252" d="M442.306,128a15.306,15.306,0,1,0,15.306,15.306A15.308,15.308,0,0,0,442.306,128Zm6.989,11.934q.01.226.01.454a9.928,9.928,0,0,1-10,10h0a9.944,9.944,0,0,1-5.385-1.578,7.142,7.142,0,0,0,.838.049,7.05,7.05,0,0,0,4.363-1.5,3.517,3.517,0,0,1-3.282-2.44,3.5,3.5,0,0,0,1.587-.06,3.514,3.514,0,0,1-2.818-3.444c0-.016,0-.03,0-.045a3.49,3.49,0,0,0,1.591.439,3.516,3.516,0,0,1-1.088-4.69,9.974,9.974,0,0,0,7.242,3.671,3.515,3.515,0,0,1,5.987-3.2,7.047,7.047,0,0,0,2.231-.853,3.527,3.527,0,0,1-1.545,1.943,7.006,7.006,0,0,0,2.017-.553,7.14,7.14,0,0,1-1.752,1.819Zm0,0" transform="translate(-427 -128)" fill="#fff"/>
</svg>
